<svg xmlns="http://www.w3.org/2000/svg" width="601.911" height="420.056" viewBox="0 0 601.911 420.056">
  <g id="Group_808" data-name="Group 808" transform="translate(-5.214 -24)">
    <rect id="Rectangle_7357" data-name="Rectangle 7357" width="601.911" height="1.421" rx="0.711" transform="translate(607.125 444.056) rotate(180)" fill="#2e3552"/>
    <g id="Background_Complete" data-name="Background Complete" transform="translate(97 -22.603)">
      <g id="Group_227" data-name="Group 227">
        <g id="Group_213" data-name="Group 213">
          <g id="Group_148" data-name="Group 148">
            <path id="Path_496" data-name="Path 496" d="M41.348,375.718a31.768,31.768,0,0,0-13.588-4.677c-2.221-.228-4.647-.163-6.428,1.182a1.323,1.323,0,0,0-.662,1.174,1.437,1.437,0,0,0,.629.8,19.429,19.429,0,0,0,20.049,1.518" fill="#e0e0e0"/>
          </g>
          <g id="Group_149" data-name="Group 149">
            <path id="Path_497" data-name="Path 497" d="M41,375.334a66.325,66.325,0,0,1-8.776-7.722,22.2,22.2,0,0,1-5.5-10.176,4.1,4.1,0,0,1,.435-3.4c7,5.464,12.492,12.53,13.844,21.3" fill="#e0e0e0"/>
          </g>
          <g id="Group_150" data-name="Group 150">
            <path id="Path_498" data-name="Path 498" d="M41.275,375.666a31.753,31.753,0,0,1,.163-11.523,15.58,15.58,0,0,1,6.138-9.509c1.209,2.826.689,6.081-.162,9.034a43.933,43.933,0,0,1-6.086,12.814" fill="#e0e0e0"/>
          </g>
          <g id="Group_151" data-name="Group 151">
            <path id="Path_499" data-name="Path 499" d="M48.134,387.954c-4.163.506-7.789,2.7-10.9,5.515A20.616,20.616,0,0,0,31,404.17c4.084-.252,7.548-3.132,10.06-6.361s4.254-6.772,7.014-9.792" fill="#e0e0e0"/>
          </g>
          <g id="Group_152" data-name="Group 152">
            <path id="Path_500" data-name="Path 500" d="M49.623,389.92a26.88,26.88,0,0,1,3.1-25.424c2.372,8.437,1.5,17.967-3.1,25.424" fill="#e0e0e0"/>
          </g>
          <g id="Group_153" data-name="Group 153">
            <path id="Path_501" data-name="Path 501" d="M58.685,400.709a19.433,19.433,0,0,0-18.583,10.7c-.231.46-.434,1.045-.126,1.457a1.383,1.383,0,0,0,1.233.363c3.662-.238,6.908-2.441,9.586-4.95s5.012-5.408,7.971-7.578" fill="#e0e0e0"/>
          </g>
          <g id="Group_154" data-name="Group 154">
            <path id="Path_502" data-name="Path 502" d="M58.4,400.122a34.609,34.609,0,0,1-.345-19.334c.681-2.488,1.824-5.108,4.126-6.275a.81.81,0,0,1,.631-.111.835.835,0,0,1,.4.462,11.651,11.651,0,0,1,.973,5.547,34.846,34.846,0,0,1-.87,5.615c-.724,3.432-1.11,7.12-2.992,10.079a20.624,20.624,0,0,0-1.2,2.214c-.356.752-.359,1.017-.685,1.615" fill="#e0e0e0"/>
          </g>
          <g id="Group_155" data-name="Group 155">
            <path id="Path_503" data-name="Path 503" d="M82.381,403.7c-1.777-6.759.109-14.954,4.369-20.495.314-.409.729-.846,1.242-.8.784.073.988,1.118.953,1.906A37.034,37.034,0,0,1,82.381,403.7" fill="#e0e0e0"/>
          </g>
          <g id="Group_156" data-name="Group 156">
            <path id="Path_504" data-name="Path 504" d="M84.544,405.174a29.814,29.814,0,0,0,24.464-4.976,19.81,19.81,0,0,0-13.244-1.626c-4.424,1.012-8.466,2.994-11.22,6.6" fill="#e0e0e0"/>
          </g>
          <g id="Group_157" data-name="Group 157">
            <path id="Path_505" data-name="Path 505" d="M86.367,400.673c4.6-7.5,13.418-12.394,22.2-12.839-1.012,3.574-3.949,6.351-7.262,8.029a40.325,40.325,0,0,1-10.658,3.117c-1.419.276-3.364.578-4.284,1.693" fill="#e0e0e0"/>
          </g>
          <g id="Group_158" data-name="Group 158">
            <path id="Path_506" data-name="Path 506" d="M82.838,378.833a64.477,64.477,0,0,0,2.84-13,21.652,21.652,0,0,0-2.59-12.862c-4.3,8.314-4.731,18.027-.379,26.312" fill="#e0e0e0"/>
          </g>
          <g id="Group_159" data-name="Group 159">
            <path id="Path_507" data-name="Path 507" d="M97.3,371.522c5.024-9.131,15.275-16.426,25.647-17.448-4,9.963-14.913,17.662-25.647,17.448" fill="#e0e0e0"/>
          </g>
          <g id="Group_160" data-name="Group 160">
            <path id="Path_508" data-name="Path 508" d="M94.142,373.311c7.493,1.142,13.877,5.927,20.88,8.829a9.356,9.356,0,0,0,4.72.9,3.7,3.7,0,0,0,2.313-6.537,10.114,10.114,0,0,0-3.428-2.08c-7.627-3.175-15.806-3.254-23.84-1.329" fill="#e0e0e0"/>
          </g>
          <g id="Group_161" data-name="Group 161">
            <path id="Path_509" data-name="Path 509" d="M89.806,378.567c1.7.486,2.276,1.364,3.619,2.508a39.054,39.054,0,0,0,15.834,8.134c.6.15,1.4.21,1.7-.337.262-.477-.069-1.055-.409-1.48a21.793,21.793,0,0,0-9.56-6.49c-3.654-1.361-6.82-3-11.181-2.649" fill="#e0e0e0"/>
          </g>
          <g id="Group_162" data-name="Group 162">
            <path id="Path_510" data-name="Path 510" d="M84.913,346.826a29.967,29.967,0,0,0,22.973,7.816,1.57,1.57,0,0,0,1.045-.376c.579-.629-.115-1.6-.789-2.125-6.754-5.266-14.935-7.449-23.229-5.315" fill="#e0e0e0"/>
          </g>
          <g id="Group_163" data-name="Group 163">
            <path id="Path_511" data-name="Path 511" d="M90.714,344.7a32.017,32.017,0,0,1,28.666-4.73,22.757,22.757,0,0,1-13.66,6A43.253,43.253,0,0,1,90.714,344.7" fill="#e0e0e0"/>
          </g>
          <g id="Group_164" data-name="Group 164">
            <path id="Path_512" data-name="Path 512" d="M88.409,330.117c-.664-6.741-.233-12.063-.7-18.836-.038-.541-.154-1.192-.66-1.387-.7-.272-1.292.6-1.524,1.314a21.59,21.59,0,0,0,2.875,18.76" fill="#e0e0e0"/>
          </g>
          <g id="Group_165" data-name="Group 165">
            <path id="Path_513" data-name="Path 513" d="M87.924,330.862a39.64,39.64,0,0,0,11.167-10.854c2.2-3.018,4.065-6.633,3.564-10.337a10.688,10.688,0,0,0-8.056,4,22.471,22.471,0,0,0-4.106,8.262c-.894,2.966-1.52,6.014-2.569,8.929" fill="#e0e0e0"/>
          </g>
          <g id="Group_166" data-name="Group 166">
            <path id="Path_514" data-name="Path 514" d="M98.895,327.814a90.047,90.047,0,0,0,27.482-16.2c-3.283-1.323-7.041-.531-10.323.794a32.55,32.55,0,0,0-17.3,15.337" fill="#e0e0e0"/>
          </g>
          <g id="Group_167" data-name="Group 167">
            <path id="Path_515" data-name="Path 515" d="M91.008,334.55a55.921,55.921,0,0,0,15.261.074c4.947-.827,9.622-2.788,14.246-4.733a1.678,1.678,0,0,0,.968-.735,1.116,1.116,0,0,0-.347-1.219,2.954,2.954,0,0,0-1.215-.57c-5.026-1.4-10.45-.747-15.4.92a71.475,71.475,0,0,0-13.517,6.263" fill="#e0e0e0"/>
          </g>
          <g id="Group_168" data-name="Group 168">
            <path id="Path_516" data-name="Path 516" d="M62.04,347.056c-3.461-6.987-3.236-15.14-.246-22.341,2.1,3.208,2.362,7.292,1.977,11.108s-1.547,7.745-1.622,11.58" fill="#e0e0e0"/>
          </g>
          <g id="Group_169" data-name="Group 169">
            <path id="Path_517" data-name="Path 517" d="M48.213,340.082a31.16,31.16,0,0,0-23.154,9.864A21.639,21.639,0,0,0,37.737,347.6,64.416,64.416,0,0,0,48.6,340.323" fill="#e0e0e0"/>
          </g>
          <g id="Group_170" data-name="Group 170">
            <path id="Path_518" data-name="Path 518" d="M38.917,336.973c-4.228-.342-8.3-.866-12.361.38a14.826,14.826,0,0,0-9.421,7.988,22.339,22.339,0,0,0,11.589-2.188,66.771,66.771,0,0,0,10.193-6.18" fill="#e0e0e0"/>
          </g>
          <g id="Group_171" data-name="Group 171">
            <path id="Path_519" data-name="Path 519" d="M52.681,337.115c-3.8-2.492-7.709-5.029-12.137-6.061s-9.56-.27-12.648,3.068c3.585,2.1,7.934,2.352,12.09,2.349s9.252-.051,13.17,1.336" fill="#e0e0e0"/>
          </g>
          <g id="Group_172" data-name="Group 172">
            <path id="Path_520" data-name="Path 520" d="M52.7,337.316c-6.5-6.384-8.966-17.854-6.35-26.582a40.5,40.5,0,0,1,6.35,26.582" fill="#e0e0e0"/>
          </g>
          <g id="Group_173" data-name="Group 173">
            <path id="Path_521" data-name="Path 521" d="M70.582,319.227c1.226-2.851,2.089-5.843,3.189-8.745a25.126,25.126,0,0,1,4.546-8.061,11.975,11.975,0,0,1,8.053-4.174,32.434,32.434,0,0,1-15.629,21.025" fill="#e0e0e0"/>
          </g>
          <g id="Group_174" data-name="Group 174">
            <path id="Path_522" data-name="Path 522" d="M67.347,323c-2.03-2.793-4.374-6.584-7.126-8.669s-6.335-3.347-9.693-2.546A22.576,22.576,0,0,0,67.347,323" fill="#e0e0e0"/>
          </g>
          <g id="Group_175" data-name="Group 175">
            <path id="Path_523" data-name="Path 523" d="M67.994,319.459a48.236,48.236,0,0,1-3.208-10.387,16.207,16.207,0,0,1,1.626-10.562c3.569,6.746,4.719,13.988,1.764,21.025" fill="#e0e0e0"/>
          </g>
          <g id="Group_176" data-name="Group 176">
            <path id="Path_524" data-name="Path 524" d="M70.615,298.51c2.021-6.689,8.145-11.613,14.757-13.873a5.513,5.513,0,0,1,2.587-.388,2.247,2.247,0,0,1,1.908,1.592c.241,1.138-.7,2.157-1.583,2.913a50.24,50.24,0,0,1-17.669,9.756" fill="#e0e0e0"/>
          </g>
          <g id="Group_177" data-name="Group 177">
            <path id="Path_525" data-name="Path 525" d="M70.688,293.04c.257-4.312.526-8.687,1.928-12.773s4.106-7.919,8.039-9.707c.669,4.356-1.253,8.689-3.57,12.436s-5.111,7.286-6.5,11.466" fill="#e0e0e0"/>
          </g>
          <g id="Group_178" data-name="Group 178">
            <path id="Path_526" data-name="Path 526" d="M70.582,296.008c-1.671-4.874-1.844-11.065-4.762-15.311-2.04-2.969-5.308-4.991-7.066-8.135a12.379,12.379,0,0,0,.411,9.234,26.725,26.725,0,0,0,5.4,7.73c2.16,2.307,4.009,4.042,6.017,6.482" fill="#e0e0e0"/>
          </g>
          <g id="Group_180" data-name="Group 180">
            <g id="Group_179" data-name="Group 179">
              <path id="Path_527" data-name="Path 527" d="M70.615,439.549c-.13,0-.243-32.515-.252-72.616s.089-72.623.219-72.623.242,32.508.251,72.623C70.842,407.033,70.744,439.549,70.615,439.549Z" fill="#e0e0e0"/>
            </g>
          </g>
          <g id="Group_182" data-name="Group 182">
            <g id="Group_181" data-name="Group 181">
              <path id="Path_528" data-name="Path 528" d="M99.029,342.15a6.9,6.9,0,0,1-1.222.459l-3.365,1.135c-2.837.966-6.733,2.366-10.963,4.1-4.188,1.8-8.138,3.255-10.387,5.2A7.644,7.644,0,0,0,71,355.808c-.322.764-.38,1.231-.423,1.222a.937.937,0,0,1,.014-.341,5.168,5.168,0,0,1,.239-.947,7.334,7.334,0,0,1,2.037-2.944,18.284,18.284,0,0,1,4.506-2.8c1.8-.842,3.8-1.719,5.923-2.591,4.242-1.738,8.169-3.093,11.038-3.98,1.434-.447,2.6-.777,3.415-.994A6.919,6.919,0,0,1,99.029,342.15Z" fill="#e0e0e0"/>
            </g>
          </g>
          <g id="Group_184" data-name="Group 184">
            <g id="Group_183" data-name="Group 183">
              <path id="Path_529" data-name="Path 529" d="M108.343,319.272a1.986,1.986,0,0,1-.342.366l-1.044.98-3.9,3.538L90.1,335.7c-5.061,4.5-9.435,8.809-12.465,12.05-1.518,1.618-2.713,2.959-3.529,3.895l-.942,1.076a2.014,2.014,0,0,1-.351.356,2,2,0,0,1,.278-.416c.2-.261.483-.651.875-1.133.774-.974,1.934-2.352,3.424-4a164.282,164.282,0,0,1,12.4-12.175c5.078-4.494,9.7-8.531,13.057-11.442l3.994-3.426,1.1-.914A2.022,2.022,0,0,1,108.343,319.272Z" fill="#e0e0e0"/>
            </g>
          </g>
          <g id="Group_186" data-name="Group 186">
            <g id="Group_185" data-name="Group 185">
              <path id="Path_530" data-name="Path 530" d="M84.634,340.28c-.132-.059.925-2.5,1.978-5.587s1.564-5.692,1.7-5.67a19.081,19.081,0,0,1-1.254,5.821,37.828,37.828,0,0,1-1.574,3.908A6.026,6.026,0,0,1,84.634,340.28Z" fill="#e0e0e0"/>
            </g>
          </g>
          <g id="Group_188" data-name="Group 188">
            <g id="Group_187" data-name="Group 187">
              <path id="Path_531" data-name="Path 531" d="M70.644,359.961a5.886,5.886,0,0,1-.78-.9c-.529-.679-1.2-1.538-2-2.562-1.678-2.169-4-5.163-6.6-8.44s-4.991-6.217-6.723-8.343L52.5,337.184a5.817,5.817,0,0,1-.705-.965,5.8,5.8,0,0,1,.844.846c.52.564,1.258,1.395,2.157,2.432,1.8,2.074,4.231,4.983,6.837,8.265s4.884,6.31,6.5,8.532c.805,1.111,1.447,2.018,1.879,2.653A5.764,5.764,0,0,1,70.644,359.961Z" fill="#e0e0e0"/>
            </g>
          </g>
          <g id="Group_190" data-name="Group 190">
            <g id="Group_189" data-name="Group 189">
              <path id="Path_532" data-name="Path 532" d="M64.414,351.963a11.453,11.453,0,0,1-2.61-4.887,13.966,13.966,0,0,1-.592-4.926l.208.017c-.093.376-.161.575-.2.569s-.039-.216-.008-.6l.207.017a22.439,22.439,0,0,0,.834,4.792A36.577,36.577,0,0,0,64.414,351.963Z" fill="#e0e0e0"/>
            </g>
          </g>
          <g id="Group_192" data-name="Group 192">
            <g id="Group_191" data-name="Group 191">
              <path id="Path_533" data-name="Path 533" d="M56.371,341.845a8.417,8.417,0,0,0-1.823-1.059,12.187,12.187,0,0,0-5.059-.4,31.171,31.171,0,0,0-5.095.822,15.489,15.489,0,0,1-2.1.5,7.331,7.331,0,0,1,2.008-.823,23.327,23.327,0,0,1,5.149-.971,11.032,11.032,0,0,1,5.219.563A3.23,3.23,0,0,1,56.371,341.845Z" fill="#e0e0e0"/>
            </g>
          </g>
          <g id="Group_194" data-name="Group 194">
            <g id="Group_193" data-name="Group 193">
              <path id="Path_534" data-name="Path 534" d="M54.464,339.393c-.036.073-1.061-.426-2.792-1.017A28.1,28.1,0,0,0,37.6,337.3c-1.8.322-2.89.659-2.914.582a2.669,2.669,0,0,1,.74-.316,17.661,17.661,0,0,1,2.109-.592,24.843,24.843,0,0,1,14.248,1.087,17.5,17.5,0,0,1,1.994.9A2.668,2.668,0,0,1,54.464,339.393Z" fill="#e0e0e0"/>
            </g>
          </g>
          <g id="Group_196" data-name="Group 196">
            <g id="Group_195" data-name="Group 195">
              <path id="Path_535" data-name="Path 535" d="M70.582,329.023a57.835,57.835,0,0,1-2.036-7.072,57.973,57.973,0,0,1-1.581-7.189A57.607,57.607,0,0,1,69,321.835,57.763,57.763,0,0,1,70.582,329.023Z" fill="#e0e0e0"/>
            </g>
          </g>
          <g id="Group_198" data-name="Group 198">
            <g id="Group_197" data-name="Group 197">
              <path id="Path_536" data-name="Path 536" d="M70.712,329.023a34.281,34.281,0,0,0-2.257-4.234,18.66,18.66,0,0,0-3.322-3.428,3.1,3.1,0,0,1,1.282.661,10.327,10.327,0,0,1,2.425,2.5A9.4,9.4,0,0,1,70.712,329.023Z" fill="#e0e0e0"/>
            </g>
          </g>
          <g id="Group_200" data-name="Group 200">
            <g id="Group_199" data-name="Group 199">
              <path id="Path_537" data-name="Path 537" d="M70.615,422.216c-.051.007-.147-.782-.513-2.163a30.756,30.756,0,0,0-2.173-5.629A77.891,77.891,0,0,0,56.4,398.182c-2.574-2.94-5.071-5.715-7.191-8.371a58.788,58.788,0,0,1-5.141-7.415,35.653,35.653,0,0,1-2.6-5.5c-.239-.679-.414-1.208-.51-1.574a2.641,2.641,0,0,1-.133-.562c.042-.013.278.744.814,2.07a40.276,40.276,0,0,0,2.712,5.4,62.075,62.075,0,0,0,5.192,7.312c2.127,2.628,4.628,5.387,7.207,8.333,5.208,5.846,9.286,11.74,11.473,16.406a28.154,28.154,0,0,1,2.052,5.73,16.057,16.057,0,0,1,.287,1.631A2.673,2.673,0,0,1,70.615,422.216Z" fill="#e0e0e0"/>
            </g>
          </g>
          <g id="Group_202" data-name="Group 202">
            <g id="Group_201" data-name="Group 201">
              <path id="Path_538" data-name="Path 538" d="M96.291,393.214a11.729,11.729,0,0,1-1.345.755,29.368,29.368,0,0,0-3.491,2.308,40.125,40.125,0,0,0-4.584,4.181c-1.609,1.7-3.266,3.673-4.958,5.788-3.382,4.243-6.545,8-8.439,11-.961,1.486-1.66,2.74-2.118,3.619a11.681,11.681,0,0,1-.741,1.355,1.279,1.279,0,0,1,.124-.382c.1-.242.237-.605.453-1.054a34.306,34.306,0,0,1,2-3.716,121.239,121.239,0,0,1,8.354-11.112c1.695-2.119,3.372-4.1,5.011-5.794a37.26,37.26,0,0,1,4.7-4.147,24.474,24.474,0,0,1,3.605-2.2c.446-.223.809-.361,1.05-.464A1.3,1.3,0,0,1,96.291,393.214Z" fill="#e0e0e0"/>
            </g>
          </g>
          <g id="Group_204" data-name="Group 204">
            <g id="Group_203" data-name="Group 203">
              <path id="Path_539" data-name="Path 539" d="M96.794,402.623a19.734,19.734,0,0,1-2.845.413,37.5,37.5,0,0,0-6.745,1.328,20.259,20.259,0,0,0-6.04,3.17c-1.393,1.076-2.049,1.966-2.114,1.914a2.2,2.2,0,0,1,.422-.655,10.711,10.711,0,0,1,1.482-1.516,18.272,18.272,0,0,1,6.106-3.36,30.461,30.461,0,0,1,6.856-1.212A15.618,15.618,0,0,1,96.794,402.623Z" fill="#e0e0e0"/>
            </g>
          </g>
          <g id="Group_206" data-name="Group 206">
            <g id="Group_205" data-name="Group 205">
              <path id="Path_540" data-name="Path 540" d="M79.881,408.414c-.149-.084,1.133-2.042,2.127-4.675.933-2.658,1.152-4.988,1.319-4.961a4.507,4.507,0,0,1-.047,1.526,16.376,16.376,0,0,1-.83,3.6,17.411,17.411,0,0,1-1.649,3.3A4.614,4.614,0,0,1,79.881,408.414Z" fill="#e0e0e0"/>
            </g>
          </g>
          <g id="Group_208" data-name="Group 208">
            <g id="Group_207" data-name="Group 207">
              <path id="Path_541" data-name="Path 541" d="M104.607,367.955a2.141,2.141,0,0,1-.455.242l-1.337.608c-.585.251-1.3.569-2.1.992s-1.741.841-2.717,1.427l-1.552.883c-.538.309-1.07.676-1.637,1.031-1.144.694-2.29,1.549-3.513,2.421a60.241,60.241,0,0,0-13.529,14c-.83,1.253-1.646,2.427-2.3,3.594-.335.578-.684,1.123-.975,1.671s-.564,1.076-.829,1.581c-.552,1-.947,1.948-1.334,2.765s-.688,1.536-.919,2.129c-.228.55-.413,1-.561,1.357a2.108,2.108,0,0,1-.227.463,2.19,2.19,0,0,1,.137-.495c.127-.367.286-.827.48-1.391.206-.605.476-1.34.849-2.168s.742-1.8,1.279-2.809q.385-.77.806-1.605c.285-.556.628-1.109.958-1.7.644-1.183,1.453-2.374,2.279-3.643a58.074,58.074,0,0,1,13.628-14.1c1.24-.869,2.4-1.718,3.563-2.4.574-.35,1.115-.712,1.661-1.015l1.576-.861c.993-.571,1.946-.98,2.764-1.374s1.54-.7,2.138-.922l1.374-.528A2.164,2.164,0,0,1,104.607,367.955Z" fill="#e0e0e0"/>
            </g>
          </g>
          <g id="Group_210" data-name="Group 210">
            <g id="Group_209" data-name="Group 209">
              <path id="Path_542" data-name="Path 542" d="M84.286,381.571a3.257,3.257,0,0,1,1.117-1.664,7.053,7.053,0,0,1,4.5-1.728,12.3,12.3,0,0,1,4.738.926,6.79,6.79,0,0,1,1.791.87,10.961,10.961,0,0,1-1.9-.556,14.3,14.3,0,0,0-4.614-.77,7.337,7.337,0,0,0-4.3,1.509A13.111,13.111,0,0,0,84.286,381.571Z" fill="#e0e0e0"/>
            </g>
          </g>
          <g id="Group_212" data-name="Group 212">
            <g id="Group_211" data-name="Group 211">
              <path id="Path_543" data-name="Path 543" d="M81.248,384.7a12.009,12.009,0,0,0,.992-8.5,2.758,2.758,0,0,1,.528,1.212,8.6,8.6,0,0,1-.727,6.232C81.644,384.366,81.294,384.737,81.248,384.7Z" fill="#e0e0e0"/>
            </g>
          </g>
        </g>
        <g id="Group_214" data-name="Group 214">
          <path id="Path_544" data-name="Path 544" d="M48.158,426.875c.7,12.426,4.445,25.063,10.2,37.84H83.408c5.493-12.65,8.979-25.268,9.6-37.84Z" fill="#e0e0e0"/>
        </g>
        <g id="Group_216" data-name="Group 216">
          <g id="Group_215" data-name="Group 215">
            <path id="Path_545" data-name="Path 545" d="M88.947,446.982c0,.13-8.246.235-18.416.235s-18.419-.105-18.419-.235,8.245-.235,18.419-.235S88.947,446.853,88.947,446.982Z" fill="#fafafa"/>
          </g>
        </g>
        <g id="Group_218" data-name="Group 218">
          <g id="Group_217" data-name="Group 217">
            <path id="Path_546" data-name="Path 546" d="M88.388,451.484c0,.13-7.731.235-17.265.235s-17.267-.1-17.267-.235,7.729-.235,17.267-.235S88.388,451.354,88.388,451.484Z" fill="#fafafa"/>
          </g>
        </g>
        <g id="Group_220" data-name="Group 220">
          <g id="Group_219" data-name="Group 219">
            <path id="Path_547" data-name="Path 547" d="M58.766,435.033a70.929,70.929,0,0,1,0,11.538,70.929,70.929,0,0,1,0-11.538Z" fill="#fafafa"/>
          </g>
        </g>
        <g id="Group_222" data-name="Group 222">
          <g id="Group_221" data-name="Group 221">
            <path id="Path_548" data-name="Path 548" d="M72.186,435.033a76.063,76.063,0,0,1,0,11.949,76.063,76.063,0,0,1,0-11.949Z" fill="#fafafa"/>
          </g>
        </g>
        <g id="Group_224" data-name="Group 224">
          <g id="Group_223" data-name="Group 223">
            <path id="Path_549" data-name="Path 549" d="M84.784,434.932a79.119,79.119,0,0,1,0,12.187,79.121,79.121,0,0,1,0-12.187Z" fill="#fafafa"/>
          </g>
        </g>
        <g id="Group_226" data-name="Group 226">
          <g id="Group_225" data-name="Group 225">
            <path id="Path_550" data-name="Path 550" d="M92.211,435.033c0,.13-9.672.235-21.6.235s-21.6-.105-21.6-.235,9.67-.235,21.6-.235S92.211,434.9,92.211,435.033Z" fill="#fafafa"/>
          </g>
        </g>
      </g>
      <g id="Group_232" data-name="Group 232">
        <g id="Group_231" data-name="Group 231">
          <path id="Path_558" data-name="Path 558" d="M383.7,317.079a29.091,29.091,0,0,1,7.1-3.086l1.463-7.031,11.879-.208,1.71,6.974a29.064,29.064,0,0,1,7.207,2.835l6-3.935,8.546,8.252-3.721,6.137a29.087,29.087,0,0,1,3.087,7.105l7.03,1.463.209,11.878-6.975,1.71a29.079,29.079,0,0,1-2.835,7.207l3.935,6-8.252,8.547-6.137-3.722a29.119,29.119,0,0,1-7.1,3.087l-1.464,7.031-11.878.208-1.71-6.975a29.117,29.117,0,0,1-7.207-2.835l-6,3.935-8.547-8.252,3.721-6.137a29.119,29.119,0,0,1-3.087-7.1l-7.03-1.463-.209-11.879,6.975-1.71a29.116,29.116,0,0,1,2.835-7.207l-3.935-6,8.252-8.547,6.138,3.721Zm6.333,15.824a12.745,12.745,0,1,0,18.02-.316A12.745,12.745,0,0,0,390.034,332.9Z" fill="#ebebeb"/>
        </g>
      </g>
      <g id="Group_236" data-name="Group 236">
        <g id="Group_235" data-name="Group 235">
          <path id="Path_560" data-name="Path 560" d="M436.008,382.564a13.6,13.6,0,0,1,3.313-1.44l.682-3.279,5.54-.1.8,3.253a13.57,13.57,0,0,1,3.361,1.322l2.8-1.835,3.986,3.849-1.736,2.862a13.544,13.544,0,0,1,1.44,3.313l3.278.682.1,5.54-3.253.8a13.558,13.558,0,0,1-1.322,3.361l1.835,2.8-3.848,3.986-2.863-1.736a13.539,13.539,0,0,1-3.313,1.439l-.682,3.28-5.54.1-.8-3.253a13.583,13.583,0,0,1-3.362-1.323l-2.8,1.836-3.986-3.849,1.735-2.862a13.6,13.6,0,0,1-1.44-3.313l-3.278-.682-.1-5.54,3.253-.8a13.611,13.611,0,0,1,1.322-3.361l-1.835-2.8,3.849-3.986,2.862,1.736Zm2.954,7.38a5.943,5.943,0,1,0,8.4-.148A5.943,5.943,0,0,0,438.962,389.944Z" fill="#ebebeb"/>
        </g>
      </g>
      <g id="Group_238" data-name="Group 238">
        <g id="Group_237" data-name="Group 237">
          <path id="Path_561" data-name="Path 561" d="M194.206,272.05a13.558,13.558,0,0,1,3.313-1.439l.682-3.279,5.54-.1.8,3.252a13.566,13.566,0,0,1,3.362,1.323l2.8-1.836,3.986,3.849-1.736,2.862A13.6,13.6,0,0,1,214.39,280l3.278.683.1,5.539-3.253.8a13.556,13.556,0,0,1-1.322,3.361l1.835,2.8-3.848,3.986-2.863-1.735A13.578,13.578,0,0,1,205,296.869l-.682,3.279-5.54.1-.8-3.253a13.618,13.618,0,0,1-3.362-1.322l-2.8,1.835-3.987-3.848,1.736-2.863a13.565,13.565,0,0,1-1.44-3.313l-3.279-.682-.1-5.54,3.253-.8a13.6,13.6,0,0,1,1.322-3.361l-1.835-2.8,3.848-3.986,2.863,1.735Zm2.954,7.38a5.944,5.944,0,1,0,8.4-.148A5.943,5.943,0,0,0,197.16,279.43Z" fill="#ebebeb"/>
        </g>
      </g>
    </g>
    <g id="Floor" transform="translate(97 -22.603)">
      <g id="Group_242" data-name="Group 242">
        <g id="Group_241" data-name="Group 241">
          <path id="Path_563" data-name="Path 563" d="M471.34,464.978c0,.144-98.21.26-219.33.26-121.161,0-219.35-.116-219.35-.26s98.189-.261,219.35-.261C373.13,464.717,471.34,464.834,471.34,464.978Z" fill="#263238"/>
        </g>
      </g>
    </g>
    <g id="Device" transform="translate(97 -22.603)">
      <g id="Group_251" data-name="Group 251">
        <g id="Group_250" data-name="Group 250">
          <g id="Group_249" data-name="Group 249">
            <path id="Path_564" data-name="Path 564" d="M375.47,380.381l-118.31-.068c-14.229-.007-25.759-11.068-25.757-24.707l.058-284.3c0-13.647,11.55-24.706,25.787-24.7l118.311.067c14.229.008,25.758,11.069,25.756,24.708l-.058,284.305C401.254,369.33,389.707,380.389,375.47,380.381Z" fill="#455a64"/>
            <g id="Group_248" data-name="Group 248">
              <path id="Path_565" data-name="Path 565" d="M375.433,56.726l-22.938-.013L285.5,56.675l-8.067,0-20.077-.012c-9.971-.005-18.057,7.74-18.059,17.3l-.057,277.5c0,9.554,8.073,17.3,18.038,17.3l118.075.066c9.97.006,18.056-7.739,18.059-17.3l.056-277.5C393.473,64.477,385.4,56.732,375.433,56.726Z" fill="#fff"/>
            </g>
          </g>
        </g>
      </g>
      <g id="Group_276" data-name="Group 276">
        <g id="Group_252" data-name="Group 252">
          <rect id="Rectangle_7323" data-name="Rectangle 7323" width="93.023" height="85.269" transform="translate(281.422 185.604)" fill="#026cd1"/>
        </g>
        <g id="Group_253" data-name="Group 253" opacity="0.3">
          <rect id="Rectangle_7324" data-name="Rectangle 7324" width="93.023" height="85.269" transform="translate(281.422 185.604)"/>
        </g>
        <g id="Group_254" data-name="Group 254">
          <rect id="Rectangle_7325" data-name="Rectangle 7325" width="78.379" height="85.269" transform="translate(258.274 185.604)" fill="#026cd1"/>
        </g>
        <g id="Group_256" data-name="Group 256">
          <g id="Group_255" data-name="Group 255">
            <path id="Path_566" data-name="Path 566" d="M336.652,271.027c-.143,0-.26-19.124-.26-42.71s.117-42.713.26-42.713.261,19.12.261,42.713S336.8,271.027,336.652,271.027Z" fill="#263238"/>
          </g>
        </g>
        <g id="Group_266" data-name="Group 266">
          <g id="Group_259" data-name="Group 259">
            <path id="Path_568" data-name="Path 568" d="M365.717,265.393h-4.9a.375.375,0,0,1,0-.75h4.524v-4.5a.375.375,0,1,1,.75,0v4.875A.375.375,0,0,1,365.717,265.393Z" fill="#fff"/>
          </g>
          <g id="Group_260" data-name="Group 260">
            <path id="Path_569" data-name="Path 569" d="M365.717,254.547a.375.375,0,0,1-.375-.375v-5.1h-4.653a.375.375,0,0,1,0-.75h5.028a.375.375,0,0,1,.375.375v5.473A.375.375,0,0,1,365.717,254.547Z" fill="#fff"/>
          </g>
          <g id="Group_261" data-name="Group 261">
            <path id="Path_570" data-name="Path 570" d="M349.4,254.675a.375.375,0,0,1-.375-.375v-5.6a.375.375,0,0,1,.375-.375h5a.375.375,0,0,1,0,.75h-4.625V254.3A.375.375,0,0,1,349.4,254.675Z" fill="#fff"/>
          </g>
          <g id="Group_262" data-name="Group 262">
            <path id="Path_571" data-name="Path 571" d="M354.269,265.393H349.4a.375.375,0,0,1-.375-.375V260.4a.375.375,0,0,1,.75,0v4.243h4.5a.375.375,0,0,1,0,.75Z" fill="#fff"/>
          </g>
          <g id="Group_263" data-name="Group 263">
            <path id="Path_572" data-name="Path 572" d="M360.687,261.909h-6.159a.374.374,0,0,1-.375-.375v-9.5a.375.375,0,0,1,.375-.375h6.159a.375.375,0,0,1,.375.375v9.5A.374.374,0,0,1,360.687,261.909Zm-5.784-.75h5.409v-8.747H354.9Z" fill="#fff"/>
          </g>
          <g id="Group_264" data-name="Group 264">
            <path id="Path_573" data-name="Path 573" d="M358.215,259.955a.531.531,0,1,1-.531-.53A.531.531,0,0,1,358.215,259.955Z" fill="#fff"/>
          </g>
          <g id="Group_265" data-name="Group 265">
            <path id="Path_574" data-name="Path 574" d="M358.3,253.853h-1.384a.375.375,0,0,1,0-.75H358.3a.375.375,0,0,1,0,.75Z" fill="#fff"/>
          </g>
        </g>
        <g id="Group_267" data-name="Group 267">
          <path id="Path_575" data-name="Path 575" d="M311.931,232.738H272.393a2.4,2.4,0,0,1-2.4-2.4h0a2.4,2.4,0,0,1,2.4-2.4h39.538a2.4,2.4,0,0,1,2.4,2.4h0A2.4,2.4,0,0,1,311.931,232.738Z" fill="#fff"/>
        </g>
        <g id="Group_268" data-name="Group 268">
          <rect id="Rectangle_7326" data-name="Rectangle 7326" width="15.457" height="4.792" rx="2.396" transform="translate(269.997 235.343)" fill="#fff"/>
        </g>
        <g id="Group_270" data-name="Group 270">
          <g id="Group_269" data-name="Group 269">
            <path id="Path_576" data-name="Path 576" d="M281.422,248.463a45.579,45.579,0,0,1-9.723,0,45.406,45.406,0,0,1,9.723,0Z" fill="#fff"/>
          </g>
        </g>
        <g id="Group_274" data-name="Group 274">
          <g id="Group_271" data-name="Group 271">
            <rect id="Rectangle_7327" data-name="Rectangle 7327" width="5.493" height="5.493" rx="2.01" transform="translate(308.695 259.801)" fill="#fff"/>
          </g>
          <g id="Group_272" data-name="Group 272">
            <rect id="Rectangle_7328" data-name="Rectangle 7328" width="5.493" height="5.493" rx="2.01" transform="translate(316.371 259.801)" fill="#fff"/>
          </g>
          <g id="Group_273" data-name="Group 273">
            <rect id="Rectangle_7329" data-name="Rectangle 7329" width="5.493" height="5.493" rx="2.01" transform="translate(324.047 259.732)" fill="#fff"/>
          </g>
        </g>
      </g>
      <g id="Group_277" data-name="Group 277">
        <path id="Path_577" data-name="Path 577" d="M469.745,152.706H429.673a3.284,3.284,0,0,1-3.284-3.284h0a3.284,3.284,0,0,1,3.284-3.284h40.072a3.284,3.284,0,0,1,3.284,3.284h0A3.284,3.284,0,0,1,469.745,152.706Z" fill="#e0e0e0"/>
      </g>
      <g id="Group_278" data-name="Group 278">
        <path id="Path_578" data-name="Path 578" d="M469.745,165.607H429.673a3.284,3.284,0,0,1-3.284-3.284h0a3.284,3.284,0,0,1,3.284-3.285h40.072a3.284,3.284,0,0,1,3.284,3.285h0A3.284,3.284,0,0,1,469.745,165.607Z" fill="#e0e0e0"/>
      </g>
      <g id="Group_279" data-name="Group 279">
        <path id="Path_579" data-name="Path 579" d="M441.741,178.228H429.673a3.284,3.284,0,0,1-3.284-3.284h0a3.284,3.284,0,0,1,3.284-3.284h12.068a3.284,3.284,0,0,1,3.284,3.284h0A3.284,3.284,0,0,1,441.741,178.228Z" fill="#e0e0e0"/>
      </g>
      <g id="Group_285" data-name="Group 285">
        <path id="Path_582" data-name="Path 582" d="M364.963,109.953H273.131a4.972,4.972,0,0,1-4.971-4.972h0a4.972,4.972,0,0,1,4.971-4.971h91.832a4.972,4.972,0,0,1,4.971,4.971h0A4.972,4.972,0,0,1,364.963,109.953Z" fill="#e0e0e0"/>
      </g>
      <g id="Group_286" data-name="Group 286">
        <path id="Path_583" data-name="Path 583" d="M346.11,130.5H291.984a4.971,4.971,0,0,1-4.971-4.971h0a4.971,4.971,0,0,1,4.971-4.972H346.11a4.971,4.971,0,0,1,4.971,4.972h0A4.971,4.971,0,0,1,346.11,130.5Z" fill="#e0e0e0"/>
      </g>
      <g id="Group_288" data-name="Group 288">
        <path id="Path_584" data-name="Path 584" d="M219.43,140.849H179.358a3.284,3.284,0,0,1-3.284-3.284h0a3.284,3.284,0,0,1,3.284-3.284H219.43a3.284,3.284,0,0,1,3.285,3.284h0A3.284,3.284,0,0,1,219.43,140.849Z" fill="#e0e0e0"/>
      </g>
      <g id="Group_289" data-name="Group 289">
        <path id="Path_585" data-name="Path 585" d="M219.43,153.75H179.358a3.285,3.285,0,0,1-3.284-3.284h0a3.285,3.285,0,0,1,3.284-3.285H219.43a3.285,3.285,0,0,1,3.285,3.285h0A3.285,3.285,0,0,1,219.43,153.75Z" fill="#e0e0e0"/>
      </g>
      <g id="Group_290" data-name="Group 290">
        <path id="Path_586" data-name="Path 586" d="M191.426,166.371H179.358a3.285,3.285,0,0,1-3.284-3.284h0a3.285,3.285,0,0,1,3.284-3.285h12.068a3.284,3.284,0,0,1,3.284,3.285h0A3.284,3.284,0,0,1,191.426,166.371Z" fill="#e0e0e0"/>
      </g>
      <g id="Group_292" data-name="Group 292">
        <path id="Path_587" data-name="Path 587" d="M477.1,277.033H437.029a3.284,3.284,0,0,1-3.284-3.284h0a3.284,3.284,0,0,1,3.284-3.284H477.1a3.284,3.284,0,0,1,3.284,3.284h0A3.284,3.284,0,0,1,477.1,277.033Z" fill="#e0e0e0"/>
      </g>
      <g id="Group_293" data-name="Group 293">
        <rect id="Rectangle_7333" data-name="Rectangle 7333" width="46.64" height="6.569" rx="3.284" transform="translate(433.745 283.365)" fill="#e0e0e0"/>
      </g>
      <g id="Group_294" data-name="Group 294">
        <path id="Path_588" data-name="Path 588" d="M449.1,302.555H437.029a3.284,3.284,0,0,1-3.284-3.284h0a3.284,3.284,0,0,1,3.284-3.285H449.1a3.285,3.285,0,0,1,3.285,3.285h0A3.285,3.285,0,0,1,449.1,302.555Z" fill="#e0e0e0"/>
      </g>
      <g id="Group_300" data-name="Group 300">
        <path id="Path_591" data-name="Path 591" d="M249.549,171.838a.5.5,0,0,1-.5-.5V156.581a.5.5,0,0,1,.5-.5h14.784a.5.5,0,0,1,0,1H250.049v14.257A.5.5,0,0,1,249.549,171.838Z" fill="#026cd1"/>
      </g>
      <g id="Group_301" data-name="Group 301">
        <path id="Path_592" data-name="Path 592" d="M380.085,171.851a.5.5,0,0,1-.5-.5V157.068H365.328a.5.5,0,0,1,0-1h14.757a.5.5,0,0,1,.5.5v14.783A.5.5,0,0,1,380.085,171.851Z" fill="#026cd1"/>
      </g>
      <g id="Group_302" data-name="Group 302">
        <path id="Path_593" data-name="Path 593" d="M380.085,295.566H365.3a.5.5,0,0,1,0-1h14.284V280.308a.5.5,0,0,1,1,0v14.758A.5.5,0,0,1,380.085,295.566Z" fill="#026cd1"/>
      </g>
      <g id="Group_303" data-name="Group 303">
        <path id="Path_594" data-name="Path 594" d="M264.306,295.4H249.549a.5.5,0,0,1-.5-.5V280.117a.5.5,0,0,1,1,0V294.4h14.257a.5.5,0,0,1,0,1Z" fill="#026cd1"/>
      </g>
      <g id="Group_304" data-name="Group 304">
        <circle id="Ellipse_34" data-name="Ellipse 34" cx="12.193" cy="12.193" r="12.193" transform="translate(298.376 338.988) rotate(-22.678)" fill="#e0e0e0"/>
      </g>
    </g>
    <g id="Box" transform="translate(97 -22.603)">
      <g id="Group_337" data-name="Group 337">
        <g id="Group_313" data-name="Group 313">
          <rect id="Rectangle_7335" data-name="Rectangle 7335" width="158.995" height="145.742" transform="translate(205.712 318.973)" fill="#026cd1"/>
        </g>
        <g id="Group_314" data-name="Group 314" opacity="0.3">
          <rect id="Rectangle_7336" data-name="Rectangle 7336" width="158.995" height="145.742" transform="translate(205.712 318.973)"/>
        </g>
        <g id="Group_315" data-name="Group 315">
          <rect id="Rectangle_7337" data-name="Rectangle 7337" width="133.965" height="145.742" transform="translate(166.147 318.973)" fill="#026cd1"/>
        </g>
        <g id="Group_317" data-name="Group 317">
          <g id="Group_316" data-name="Group 316">
            <path id="Path_598" data-name="Path 598" d="M300.112,464.978c-.144,0-.26-32.687-.26-73s.116-73.006.26-73.006.261,32.68.261,73.006S300.256,464.978,300.112,464.978Z" fill="#263238"/>
          </g>
        </g>
        <g id="Group_319" data-name="Group 319">
          <g id="Group_318" data-name="Group 318">
            <path id="Path_599" data-name="Path 599" d="M364.707,391.975c0,.144-14.851.261-33.166.261s-33.17-.117-33.17-.261,14.848-.26,33.17-.26S364.707,391.832,364.707,391.975Z" fill="#263238"/>
          </g>
        </g>
        <g id="Group_327" data-name="Group 327">
          <g id="Group_320" data-name="Group 320">
            <path id="Path_600" data-name="Path 600" d="M349.791,455.707h-8.375a1,1,0,0,1,0-2h7.375v-7.333a1,1,0,0,1,2,0v8.333A1,1,0,0,1,349.791,455.707Z" fill="#fff"/>
          </g>
          <g id="Group_321" data-name="Group 321">
            <path id="Path_601" data-name="Path 601" d="M349.791,437.17a1,1,0,0,1-1-1v-8.356H341.2a1,1,0,0,1,0-2h8.595a1,1,0,0,1,1,1v9.356A1,1,0,0,1,349.791,437.17Z" fill="#fff"/>
          </g>
          <g id="Group_322" data-name="Group 322">
            <path id="Path_602" data-name="Path 602" d="M321.9,437.389a1,1,0,0,1-1-1v-9.575a1,1,0,0,1,1-1h8.546a1,1,0,0,1,0,2H322.9v8.575A1,1,0,0,1,321.9,437.389Z" fill="#fff"/>
          </g>
          <g id="Group_323" data-name="Group 323">
            <path id="Path_603" data-name="Path 603" d="M330.223,455.707H321.9a1,1,0,0,1-1-1v-7.893a1,1,0,0,1,2,0v6.893h7.326a1,1,0,0,1,0,2Z" fill="#fff"/>
          </g>
          <g id="Group_324" data-name="Group 324">
            <path id="Path_604" data-name="Path 604" d="M341.193,449.754H330.666a1,1,0,0,1-1-1V432.521a1,1,0,0,1,1-1h10.527a1,1,0,0,1,1,1v16.233A1,1,0,0,1,341.193,449.754Zm-9.527-2h8.527V433.521h-8.527Z" fill="#fff"/>
          </g>
          <g id="Group_325" data-name="Group 325">
            <circle id="Ellipse_35" data-name="Ellipse 35" cx="0.907" cy="0.907" r="0.907" transform="translate(335.153 445.147)" fill="#fff"/>
          </g>
          <g id="Group_326" data-name="Group 326">
            <path id="Path_605" data-name="Path 605" d="M337.113,435.983h-2.367a1,1,0,0,1,0-2h2.367a1,1,0,0,1,0,2Z" fill="#fff"/>
          </g>
        </g>
        <g id="Group_328" data-name="Group 328">
          <path id="Path_606" data-name="Path 606" d="M257.859,399.535H190.28a4.1,4.1,0,0,1-4.1-4.1h0a4.1,4.1,0,0,1,4.1-4.1h67.579a4.1,4.1,0,0,1,4.1,4.1h0A4.1,4.1,0,0,1,257.859,399.535Z" fill="#fff"/>
        </g>
        <g id="Group_329" data-name="Group 329">
          <path id="Path_607" data-name="Path 607" d="M208.508,412.177H190.28a4.1,4.1,0,0,1-4.1-4.1h0a4.1,4.1,0,0,1,4.1-4.1h18.228a4.1,4.1,0,0,1,4.1,4.1h0A4.1,4.1,0,0,1,208.508,412.177Z" fill="#fff"/>
        </g>
        <g id="Group_331" data-name="Group 331">
          <g id="Group_330" data-name="Group 330">
            <path id="Path_608" data-name="Path 608" d="M205.712,426.411a66.41,66.41,0,0,1-8.309.261,66.4,66.4,0,0,1-8.309-.261,66.513,66.513,0,0,1,8.309-.26A66.526,66.526,0,0,1,205.712,426.411Z" fill="#fff"/>
          </g>
        </g>
        <g id="Group_335" data-name="Group 335">
          <g id="Group_332" data-name="Group 332">
            <rect id="Rectangle_7338" data-name="Rectangle 7338" width="9.388" height="9.388" rx="2.01" transform="translate(252.327 445.791)" fill="#fff"/>
          </g>
          <g id="Group_333" data-name="Group 333">
            <rect id="Rectangle_7339" data-name="Rectangle 7339" width="9.388" height="9.388" rx="2.01" transform="translate(265.447 445.791)" fill="#fff"/>
          </g>
          <g id="Group_334" data-name="Group 334">
            <rect id="Rectangle_7340" data-name="Rectangle 7340" width="9.388" height="9.388" rx="2.01" transform="translate(278.567 445.673)" fill="#fff"/>
          </g>
        </g>
        <g id="Group_336" data-name="Group 336">
          <rect id="Rectangle_7341" data-name="Rectangle 7341" width="61.949" height="21.215" rx="10.608" transform="translate(187.653 354.008)" fill="#fff"/>
        </g>
      </g>
      <g id="Group_344" data-name="Group 344">
        <g id="Group_339" data-name="Group 339">
          <g id="Group_338" data-name="Group 338">
            <path id="Path_609" data-name="Path 609" d="M381.365,416.974c6.25,4.505,6.557,13.968,1.369,19.284-2.249,2.3,1.283,5.843,3.535,3.536a18.026,18.026,0,0,0,5.048-13.89,17.814,17.814,0,0,0-7.429-13.248,2.519,2.519,0,0,0-3.42.9,2.556,2.556,0,0,0,.9,3.421Z" fill="#026cd1"/>
          </g>
        </g>
        <g id="Group_341" data-name="Group 341">
          <g id="Group_340" data-name="Group 340">
            <path id="Path_610" data-name="Path 610" d="M389.138,410.648c10.005,7.165,10.745,22.379,2.312,30.967-2.256,2.3,1.277,5.836,3.536,3.536a26.222,26.222,0,0,0,3.633-31.427,25.1,25.1,0,0,0-6.958-7.394,2.52,2.52,0,0,0-3.42.9,2.555,2.555,0,0,0,.9,3.421Z" fill="#026cd1"/>
          </g>
        </g>
        <g id="Group_343" data-name="Group 343">
          <g id="Group_342" data-name="Group 342">
            <path id="Path_611" data-name="Path 611" d="M397.565,403.291c10.658,7.6,13.944,22.188,9.09,33.956a27.6,27.6,0,0,1-5.83,8.74c-2.261,2.294,1.272,5.832,3.536,3.535A34.168,34.168,0,0,0,409,408.409a32.468,32.468,0,0,0-8.91-9.435,2.52,2.52,0,0,0-3.421.9,2.554,2.554,0,0,0,.9,3.42Z" fill="#026cd1"/>
          </g>
        </g>
      </g>
    </g>
    <g id="Group_802" data-name="Group 802" transform="translate(40.654 134.121)">
      <g id="Group_801" data-name="Group 801" transform="translate(0 24.304)">
        <g id="Group_798" data-name="Group 798" transform="translate(38.812)">
          <path id="Path_727" data-name="Path 727" d="M584.741,814.845s-19.478,19.565-20.427,27.4,9.62,20.071,9.62,20.071Z" transform="translate(-563.634 -771.839)" fill="#ed7d2b"/>
          <path id="Path_728" data-name="Path 728" d="M702.428,1784.738s.709,11.045,2.846,11.2c.284.021,10.839,0,10.839,0l13.474-.107s-.1-3.247-4.035-3.924-10.539-3.432-12.936-8.632C710.1,1777.8,702.428,1784.738,702.428,1784.738Z" transform="translate(-671.641 -1527.19)" fill="#163560"/>
          <path id="Path_729" data-name="Path 729" d="M564.966,1785.037s.709,11.045,2.846,11.2c.284.02,10.839,0,10.839,0l13.474-.107s-.1-3.246-4.035-3.924-10.539-3.432-12.936-8.632C572.633,1778.1,564.966,1785.037,564.966,1785.037Z" transform="translate(-564.19 -1527.423)" fill="#163560"/>
          <path id="Path_730" data-name="Path 730" d="M606.865,1193.424s-3.475,22.546-16.534,62.585-14.813,57.368-14.813,57.368l-14.1-.365s-.216-43.726,5.8-63.858,1.15-72.536,1.15-72.536Z" transform="translate(-561.413 -1054.628)" fill="#163560"/>
          <path id="Path_731" data-name="Path 731" d="M654.616,1181.823A547.034,547.034,0,0,1,649.4,1257.5c-5.786,41.715-3.755,59.412-3.755,59.412l-14.074.5s-8.5-41.7-6.136-62.578-11.673-71.6-11.673-71.6Z" transform="translate(-602.335 -1058.696)" fill="#1c468a"/>
          <path id="Path_732" data-name="Path 732" d="M675.288,757.913l7.51,4.9,10.833-2.044c-.152-.875-.876-4.5-1.534-7.782-.04-.194-.08-.387-.117-.577-.564-2.793-1.051-5.193-1.051-5.193L680.8,742.775l-3.777-1.657c.01.059.3,3.1.339,3.544A25.805,25.805,0,0,1,675.288,757.913Z" transform="translate(-650.426 -714.208)" fill="#ffb27d"/>
          <path id="Path_733" data-name="Path 733" d="M686.864,794.264c-.21-.088-13.059-3.849-14.453-3.386s-2.214,3.164-2.214,3.164l21.013,4.7S689.549,795.388,686.864,794.264Z" transform="translate(-646.447 -753.074)" fill="#93c5f0"/>
          <path id="Path_734" data-name="Path 734" d="M587.027,891.559c2.2,9.924,38.423,11.023,47.741,1.99,1.06-1.029,1.1-5.809.687-12.253-.811-12.589-3.368-31.523-3.487-41.2a76.621,76.621,0,0,0-1.575-13.789,112.017,112.017,0,0,0-4.631-16.5s-17.7-5.681-21.013-4.7C588.811,809.829,584.829,881.635,587.027,891.559Z" transform="translate(-580.999 -764.139)" fill="#93c5f0"/>
          <path id="Path_735" data-name="Path 735" d="M747.375,950.963c-.811-12.589-3.368-31.523-3.487-41.2a76.629,76.629,0,0,0-1.575-13.789l-10.647-1.855S721.353,936.643,747.375,950.963Z" transform="translate(-692.919 -833.805)" fill="#66a9e7"/>
          <path id="Path_736" data-name="Path 736" d="M690.591,990.675c7.277-3.64,18.9-16.48,19.71-20.03,5.179.817,5.47,5.184,5.47,5.184-7.423,15.574-22.124,24.889-25.18,26.344A84.236,84.236,0,0,0,690.591,990.675Z" transform="translate(-662.388 -893.624)" fill="#163560"/>
          <path id="Path_737" data-name="Path 737" d="M764.573,1068.247a2.5,2.5,0,0,0,.8,2.9c1.526,1.161,2.518,3.045,2.172,4.424s-3.683,3.635-4.842,3.275-3.521-2.171-3.269-2.9-1.6-6.378,1.22-8.56S764.573,1068.247,764.573,1068.247Z" transform="translate(-715.918 -968.627)" fill="#ffb27d"/>
          <path id="Path_738" data-name="Path 738" d="M724.916,817.871s10.748,1.5,18.718,13.564c8.116,12.292,13.758,21.22,12.244,25.616s-15.368,19.661-17.762,19.667-6.261-1.728-6.488-5.645c0,0,10.325-14.748,8.394-16.938-.825-.936-13.3-10.475-14.981-6.118C722.252,855.225,724.916,817.871,724.916,817.871Z" transform="translate(-688.321 -774.204)" fill="#93c5f0"/>
          <path id="Path_739" data-name="Path 739" d="M687.212,750.729c2.23,3.76,10.521,7,13.978,8.188-.04-.194-.08-.387-.117-.577-.564-2.793-1.051-5.193-1.051-5.193L689.89,748.7C687.653,748.677,686.292,749.181,687.212,750.729Z" transform="translate(-659.519 -720.137)" fill="#fca56b"/>
          <path id="Path_740" data-name="Path 740" d="M682.846,670.19s-16.294,5.122-19.327-5.075-7.179-16.4,3.1-20.1,13.463-.415,15.3,2.742S687.006,668.595,682.846,670.19Z" transform="translate(-638.529 -637.803)" fill="#ffb27d"/>
          <path id="Path_741" data-name="Path 741" d="M655.936,626.834s-1.014,11.875-3.471,11.365-4.684-.887-4.317,2.691,3.547,7.843-5.572,8.843c-7.548.828-16.7-19.332-14.627-23.031C633.924,616.028,664.576,613.81,655.936,626.834Z" transform="translate(-613.19 -617.864)" fill="#163560"/>
        </g>
        <path id="Path_742" data-name="Path 742" d="M682.677,833c4.076-6.942,11.135-9.461,15.889-8.871,5.216,1.739,6.169,4.98,6.169,4.98-7.649-2.66-19.982,9.567-21.6,19.319C680.785,845.951,682.677,833,682.677,833Z" transform="translate(-616.827 -779.029)" fill="#163560"/>
        <rect id="Rectangle_7355" data-name="Rectangle 7355" width="52.022" height="68.176" rx="23.437" transform="translate(25.602 45.321)" fill="#026cd1"/>
      </g>
    </g>
  </g>
</svg>
