<svg xmlns="http://www.w3.org/2000/svg" width="612.34" height="467.581" viewBox="0 0 612.34 467.581">
  <g id="Group_7" data-name="Group 7" transform="translate(0 0)">
    <g id="Group_6" data-name="Group 6">
      <path id="Path_22" data-name="Path 22" d="M784.737,216.435H296.562a2.74,2.74,0,0,0-2.732,2.732v16.079a2.742,2.742,0,0,0,2.732,2.743H784.737a2.742,2.742,0,0,0,2.732-2.743V219.167a2.74,2.74,0,0,0-2.732-2.732Z" transform="translate(-293.83 -216.435)" fill="#026cd1"/>
      <circle id="Ellipse_90" data-name="Ellipse 90" cx="3.882" cy="3.882" r="3.882" transform="translate(11.989 6.108)" fill="#fff"/>
      <circle id="Ellipse_91" data-name="Ellipse 91" cx="3.882" cy="3.882" r="3.882" transform="translate(26.724 6.108)" fill="#fff"/>
      <circle id="Ellipse_92" data-name="Ellipse 92" cx="3.882" cy="3.882" r="3.882" transform="translate(41.461 6.108)" fill="#fff"/>
      <path id="Path_23" data-name="Path 23" d="M763.193,221.165H746.219a1.254,1.254,0,1,0,0,2.509h16.973a1.254,1.254,0,1,0,0-2.509Z" transform="translate(-286.72 -216.361)" fill="#fff"/>
      <path id="Path_24" data-name="Path 24" d="M763.193,225.8H746.219a1.254,1.254,0,1,0,0,2.509h16.973a1.254,1.254,0,1,0,0-2.509Z" transform="translate(-286.72 -216.287)" fill="#fff"/>
      <path id="Path_25" data-name="Path 25" d="M763.193,230.445H746.22a1.26,1.26,0,0,0,0,2.519h16.973a1.26,1.26,0,1,0,0-2.519Z" transform="translate(-286.72 -216.214)" fill="#fff"/>
    </g>
    <g id="Group_2" data-name="Group 2" transform="translate(17.371 40.709)">
      <circle id="Ellipse_2" data-name="Ellipse 2" cx="5.717" cy="5.717" r="5.717" transform="translate(132.688 38.482)" fill="#026cd1"/>
      <path id="Path_155" data-name="Path 155" d="M311.5,354.463c-1.22,0-2.206,1.588-2.2,3.538s.988,3.52,2.2,3.523H477.121c1.22,0,2.206-1.588,2.2-3.537s-.988-3.52-2.2-3.523Z" transform="translate(-309.296 -354.463)" fill="#e6e6e6"/>
      <path id="Path_156" data-name="Path 156" d="M311.5,377.746c-1.22,0-2.206,1.588-2.2,3.537s.988,3.52,2.2,3.524H477.121c1.22,0,2.206-1.588,2.2-3.538s-.988-3.52-2.2-3.523Z" transform="translate(-309.296 -357.287)" fill="#e6e6e6"/>
      <path id="Path_157" data-name="Path 157" d="M311.5,400.746c-1.22,0-2.206,1.588-2.2,3.537s.988,3.52,2.2,3.524H417.809c1.22,0,2.206-1.588,2.2-3.537s-.988-3.52-2.2-3.523Z" transform="translate(-309.296 -360.077)" fill="#e6e6e6"/>
    </g>
    <g id="Group_4" data-name="Group 4" transform="translate(-3.878 57.552)">
      <path id="Path_2" data-name="Path 2" d="M323.911,611.917c1.746-14.041,10.448-27.875,23.838-32.444a65.189,65.189,0,0,0,0,44.756c2.058,5.566,4.926,11.542,2.99,17.151-1.2,3.49-4.15,6.161-7.443,7.831a43.281,43.281,0,0,1-10.557,3.245l-.71.587C326.3,640.108,322.165,625.958,323.911,611.917Z" transform="translate(-297.43 -260.471)" fill="#e6e6e6"/>
      <path id="Path_3" data-name="Path 3" d="M349.015,579.7a55.719,55.719,0,0,0-13.852,31.358,23.994,23.994,0,0,0,.273,7.513,13.761,13.761,0,0,0,3.423,6.383c1.543,1.695,3.317,3.25,4.421,5.291a8.426,8.426,0,0,1,.412,6.879,21.892,21.892,0,0,1-4.851,7.236c-2.172,2.4-4.465,4.861-5.388,8.045-.112.386-.7.19-.592-.2,1.606-5.539,6.983-8.685,9.547-13.673a8.534,8.534,0,0,0,.577-7.488c-.981-2.149-2.809-3.754-4.386-5.457a14.685,14.685,0,0,1-3.579-6.117,22.181,22.181,0,0,1-.561-7.475,54.052,54.052,0,0,1,3.948-16.427,56.706,56.706,0,0,1,10.2-16.341c.267-.3.677.171.413.468Z" transform="translate(-298.563 -260.43)" fill="#fff"/>
      <path id="Path_4" data-name="Path 4" d="M334.792,609.921a8.36,8.36,0,0,1-6.363-8.757c.032-.4.655-.37.623.031a7.741,7.741,0,0,0,5.936,8.134C335.378,609.422,335.18,610.013,334.792,609.921Z" transform="translate(-298.024 -263.067)" fill="#fff"/>
      <path id="Path_5" data-name="Path 5" d="M338.648,629.107a16.113,16.113,0,0,0,7.2-9.28c.113-.385.705-.189.592.2a16.758,16.758,0,0,1-7.507,9.641c-.346.205-.624-.353-.28-.557Z" transform="translate(-299.247 -265.34)" fill="#fff"/>
      <path id="Path_6" data-name="Path 6" d="M342.555,591.659a4.732,4.732,0,0,0,4.484-.228c.343-.209.621.349.28.557a5.3,5.3,0,0,1-4.96.263.322.322,0,0,1-.2-.394A.313.313,0,0,1,342.555,591.659Z" transform="translate(-299.691 -261.916)" fill="#fff"/>
      <path id="Path_7" data-name="Path 7" d="M389.7,607.808c-.21.137-.421.274-.632.416a62.331,62.331,0,0,0-7.968,6.221c-.195.174-.39.353-.579.532a65.694,65.694,0,0,0-14.268,19.531,63.8,63.8,0,0,0-3.495,9.042c-1.29,4.279-2.347,9.021-4.9,12.521a10.968,10.968,0,0,1-.853,1.053H333.939c-.052-.026-.105-.047-.158-.074l-.921.042c.037-.163.079-.332.116-.495.021-.095.047-.189.068-.284.016-.063.032-.126.042-.184.005-.021.01-.042.016-.058.011-.058.026-.111.037-.163q.347-1.413.716-2.826c0-.005,0-.005.005-.011a93.8,93.8,0,0,1,7.894-20.725c.105-.195.21-.395.326-.589a60.869,60.869,0,0,1,5.468-8.294,53.816,53.816,0,0,1,3.584-4.1,44.758,44.758,0,0,1,11.2-8.389c8.273-4.368,17.852-6.042,26.694-3.373C389.252,607.666,389.473,607.734,389.7,607.808Z" transform="translate(-298.564 -263.727)" fill="#e6e6e6"/>
      <path id="Path_8" data-name="Path 8" d="M389.663,608.26a55.719,55.719,0,0,0-29.94,16.7,24,24,0,0,0-4.305,6.163,13.762,13.762,0,0,0-1.11,7.157c.211,2.282.692,4.592.345,6.886a8.426,8.426,0,0,1-3.813,5.74,21.892,21.892,0,0,1-8.23,2.857c-3.18.61-6.492,1.193-9.146,3.179-.321.241-.676-.272-.355-.513,4.617-3.455,10.8-2.73,15.855-5.17a8.534,8.534,0,0,0,4.969-5.631c.511-2.306.017-4.689-.217-7a14.686,14.686,0,0,1,.825-7.039,22.182,22.182,0,0,1,4.053-6.306,54.06,54.06,0,0,1,13.043-10.739,56.7,56.7,0,0,1,17.98-6.908C390.008,607.56,390.053,608.183,389.663,608.26Z" transform="translate(-298.579 -263.886)" fill="#fff"/>
      <path id="Path_9" data-name="Path 9" d="M365.891,622.527a8.359,8.359,0,0,1,.192-10.823c.266-.3.745.1.479.4a7.741,7.741,0,0,0-.158,10.068c.256.309-.258.662-.513.355Z" transform="translate(-302.341 -264.367)" fill="#fff"/>
      <path id="Path_10" data-name="Path 10" d="M356.906,640.776a16.112,16.112,0,0,0,11.332-3.077c.322-.239.677.273.355.513a16.757,16.757,0,0,1-11.8,3.178C356.4,641.345,356.509,640.731,356.906,640.776Z" transform="translate(-301.437 -267.526)" fill="#fff"/>
      <path id="Path_11" data-name="Path 11" d="M383.336,612.648a4.732,4.732,0,0,0,3.718,2.518c.4.039.286.653-.111.614A5.3,5.3,0,0,1,382.823,613a.322.322,0,0,1,.079-.434.313.313,0,0,1,.434.079Z" transform="translate(-304.618 -264.479)" fill="#fff"/>
      <path id="Path_12" data-name="Path 12" d="M599.364,620.835c-9.585-10.407-14.517-25.988-9.349-39.159A65.189,65.189,0,0,0,624.169,610.6c5.577,2.027,11.991,3.7,15.02,8.8,1.885,3.175,2.019,7.149,1.165,10.741a43.284,43.284,0,0,1-4.347,10.153l-.011.922C622.422,637.23,608.95,631.243,599.364,620.835Z" transform="translate(-329.504 -260.738)" fill="#e6e6e6"/>
      <path id="Path_13" data-name="Path 13" d="M590.545,581.716a55.718,55.718,0,0,0,14.976,30.837,23.992,23.992,0,0,0,5.909,4.648,13.762,13.762,0,0,0,7.083,1.514c2.291-.082,4.624-.431,6.894.046a8.426,8.426,0,0,1,5.515,4.132,21.889,21.889,0,0,1,2.386,8.379c.429,3.209.823,6.549,2.656,9.311.222.335-.31.66-.532.326-3.188-4.805-2.114-10.941-4.263-16.122a8.533,8.533,0,0,0-5.341-5.28c-2.274-.641-4.68-.283-7-.18a14.686,14.686,0,0,1-6.981-1.222,22.182,22.182,0,0,1-6.066-4.4,54.053,54.053,0,0,1-9.983-13.63,56.708,56.708,0,0,1-5.879-18.342c-.056-.4.568-.406.624-.013Z" transform="translate(-329.745 -260.708)" fill="#fff"/>
      <path id="Path_14" data-name="Path 14" d="M603.018,613.743a8.359,8.359,0,0,1-10.795-.8c-.285-.283.141-.738.426-.455a7.741,7.741,0,0,0,10.043.728C603.016,612.973,603.339,613.506,603.018,613.743Z" transform="translate(-330.013 -264.464)" fill="#fff"/>
      <path id="Path_15" data-name="Path 15" d="M620.8,622.434a16.112,16.112,0,0,0-2.43-11.488c-.221-.335.311-.66.532-.325a16.759,16.759,0,0,1,2.5,11.959c-.067.4-.673.248-.606-.146Z" transform="translate(-333.19 -264.232)" fill="#fff"/>
      <path id="Path_16" data-name="Path 16" d="M594.126,595.526a4.732,4.732,0,0,0,2.725-3.569c.062-.4.668-.248.606.146a5.3,5.3,0,0,1-3.005,3.955.322.322,0,0,1-.429-.1.313.313,0,0,1,.1-.429Z" transform="translate(-330.237 -261.957)" fill="#fff"/>
      <path id="Path_17" data-name="Path 17" d="M639.85,564.678c-.032.249-.063.5-.091.751a62.3,62.3,0,0,0-.4,10.1c.007.261.017.525.031.785a65.694,65.694,0,0,0,5.682,23.51,63.788,63.788,0,0,0,4.641,8.51c2.432,3.75,5.366,7.621,6.387,11.831a10.952,10.952,0,0,1,.252,1.331l-14.909,17.6c-.054.023-.1.05-.158.073l-.563.73c-.1-.134-.2-.274-.3-.408-.059-.077-.114-.158-.173-.236-.038-.053-.076-.106-.113-.151-.013-.017-.025-.035-.034-.049-.037-.045-.067-.092-.1-.134q-.854-1.178-1.694-2.373s0,0,0-.011a93.807,93.807,0,0,1-10.712-19.419c-.081-.206-.165-.416-.239-.63a60.861,60.861,0,0,1-2.795-9.533,53.805,53.805,0,0,1-.812-5.385,44.754,44.754,0,0,1,.837-13.968c2.014-9.136,6.928-17.527,14.679-22.549C639.453,564.928,639.648,564.8,639.85,564.678Z" transform="translate(-333.822 -258.676)" fill="#e6e6e6"/>
      <path id="Path_18" data-name="Path 18" d="M641.264,564.869a55.719,55.719,0,0,0-6.609,33.638,23.992,23.992,0,0,0,1.92,7.269,13.763,13.763,0,0,0,4.744,5.473c1.878,1.314,3.951,2.44,5.477,4.188a8.426,8.426,0,0,1,1.916,6.62,21.894,21.894,0,0,1-3.139,8.127c-1.59,2.82-3.286,5.725-3.485,9.033-.024.4-.645.34-.621-.06.347-5.756,4.9-10.009,6.3-15.44a8.534,8.534,0,0,0-1.085-7.431c-1.43-1.88-3.567-3.044-5.48-4.357a14.684,14.684,0,0,1-4.838-5.179,22.178,22.178,0,0,1-2.192-7.168,54.058,54.058,0,0,1,.235-16.894,56.707,56.707,0,0,1,6.349-18.184c.194-.35.7.018.505.365Z" transform="translate(-335.046 -258.638)" fill="#fff"/>
      <path id="Path_19" data-name="Path 19" d="M632.916,597.954a8.36,8.36,0,0,1-8.135-7.141c-.057-.4.557-.5.615-.107a7.741,7.741,0,0,0,7.581,6.628C633.377,597.338,633.314,597.958,632.916,597.954Z" transform="translate(-333.973 -261.803)" fill="#fff"/>
      <path id="Path_20" data-name="Path 20" d="M641.184,615.6a16.113,16.113,0,0,0,4.976-10.636c.026-.4.646-.34.621.061a16.759,16.759,0,0,1-5.2,11.057C641.288,616.358,640.893,615.875,641.184,615.6Z" transform="translate(-335.951 -263.53)" fill="#fff"/>
      <path id="Path_21" data-name="Path 21" d="M636.472,578.289a4.732,4.732,0,0,0,4.324-1.209c.288-.28.683.2.4.482a5.3,5.3,0,0,1-4.781,1.348.322.322,0,0,1-.28-.341.313.313,0,0,1,.34-.28Z" transform="translate(-335.35 -260.17)" fill="#fff"/>
      <path id="Path_26" data-name="Path 26" d="M298.243,657.7c.056-.127.119-.248.177-.374C298.522,656.273,298.243,657.7,298.243,657.7Z" transform="translate(-294.365 -269.867)" fill="#f2f2f2"/>
      <path id="Path_27" data-name="Path 27" d="M328.372,625.826a43.163,43.163,0,0,0-6.268.453l-.3.044a27.6,27.6,0,0,0-23.222,28.2l.079,2.529c.052,1.6.108,3.317.154,5.224a1.683,1.683,0,0,0,1.688,1.662H636.237c23.671-.249,47.256-.562,70.1-.931a69.529,69.529,0,0,0,12.824-1.151c6.347-1.3,10.753-3.879,13.47-7.883h0c3.378-4.965,3.485-11.217,3.28-18.281-.416-14.263-.829-29.248-1.241-44.187-.364-13.166-.726-26.3-1.088-38.868-.224-7.46-.722-14.046-4.558-19.078-4.158-5.443-11.742-8.2-22.542-8.2h-.392c-33.844.208-67.378,20.36-83.444,50.145-1.85,3.43-3.574,7.1-5.241,10.653a147.122,147.122,0,0,1-8.05,15.521,50.742,50.742,0,0,1-5.318,7.178c-.13.156-.28.323-.438.482-.361.408-.739.8-1.107,1.151a34.6,34.6,0,0,1-6.782,5.339l-.238.138c-.179.111-.373.221-.567.323a30.924,30.924,0,0,1-4.189,1.938,39.685,39.685,0,0,1-20.7,1.664,65.038,65.038,0,0,1-20.579-7.262c-7.046-3.856-13.642-8.664-20.02-13.313-2.8-2.043-5.7-4.155-8.594-6.156-.544-.377-1.079-.745-1.622-1.113-3.535-2.385-6.739-4.356-9.8-6.023a61.8,61.8,0,0,0-23.346-7.488c-8.417-.8-15.835.707-22.041,4.463a32.931,32.931,0,0,0-4.986,3.72c-7.351,6.611-11.883,16.368-16.266,25.8-5.452,11.736-11.089,23.873-22.22,30.165-12.845,7.266-31.593,4.248-44.858-1-4.17-1.651-8.336-3.55-12.364-5.387-1.627-.742-3.254-1.484-4.884-2.211-3.2-1.431-5.822-2.528-8.246-3.454l-.767-.3c-.426-.161-.853-.321-1.288-.474a78.76,78.76,0,0,0-8.2-2.519l-.625-.158c-1.252-.286-2.423-.524-3.572-.724l-.459-.079A42.709,42.709,0,0,0,328.372,625.826Z" transform="translate(-294.405 -253.906)" fill="#e6e6e6"/>
    </g>
    <g id="Group_5" data-name="Group 5" transform="translate(-7.979 9.247)">
      <path id="Path_47" data-name="Path 47" d="M906.736,727.837c.132,13.773-86.663,15.036-88.316,0C818.289,714.065,905.083,712.8,906.736,727.837Z" transform="translate(-286.417 -302.864)" fill="#e6e6e6"/>
      <path id="Path_48" data-name="Path 48" d="M619.315,507.569l-6.451,3.518,4.1,13.487,6.45.586,3.519-7.623Z" transform="translate(-66.902 -130.411)" fill="#ffb6b6"/>
      <path id="Path_49" data-name="Path 49" d="M658.28,553.994v6.45l9.969-.586-.139-5.312Z" transform="translate(-85.93 -149.861)" fill="#ffb6b6"/>
      <path id="Path_50" data-name="Path 50" d="M619.929,374.348l3.518,43.98,11.142,64.5,17.592-2.346-5.864-51.016,2.345-46.912Z" transform="translate(-69.862 -74.595)" fill="#2f2e41"/>
      <path id="Path_51" data-name="Path 51" d="M896.42,463.6l-42.221.586-4.691,32.252,28.734,13.487,7.037,25.8-35.77,38.116,14.073,17.592s19.938-26.974,34.6-42.221S905.8,487.64,905.8,487.64Z" transform="translate(-299.442 -196.683)" fill="#2f2e41"/>
      <circle id="Ellipse_10" data-name="Ellipse 10" cx="12.901" cy="12.901" r="12.901" transform="translate(558.862 157.845)" fill="#ffb6b6"/>
      <path id="Path_52" data-name="Path 52" d="M878.777,308.992v12.9l8.8,14.074S901.06,326,898.128,323.652s-3.518-20.524-3.518-20.524Z" transform="translate(-311.705 -129.45)" fill="#ffb6b6"/>
      <path id="Path_53" data-name="Path 53" d="M642.854,183.788l-8.8,10.555,3.519,73.3,27.56-.586,4.691-63.917-5.864-16.419-4.022-5.473L652.823,192Z" transform="translate(-75.782 6.309)" fill="#d0cde1"/>
      <path id="Path_54" data-name="Path 54" d="M840.178,377.96l-6.45,24.629,6.45,24.629-10.555,14.074-9.382-44.566s7.037-36.357,7.623-40.461,1.759-4.691,1.759-4.691l4.691.586Z" transform="translate(-287.18 -149.747)" fill="#2f2e41"/>
      <path id="Path_55" data-name="Path 55" d="M705.714,241.574l4.1,7.624,1.173,12.9-2.345,14.66,8.209,13.487,8.209-36.943-8.8-47.5h-3.519Z" transform="translate(-105.804 -3.979)" fill="#2f2e41"/>
      <path id="Path_56" data-name="Path 56" d="M840.78,652.327s-8.209,2.346-11.142,2.932,1.759,11.728,1.759,11.728,2.932,15.247,3.519,18.178,4.691,12.9,9.969,14.074,1.759-20.524,1.759-20.524,2.346-7.037,2.346-9.382-3.518-1.173-3.518-1.173C836.089,666.987,840.78,652.327,840.78,652.327Z" transform="translate(-290.713 -275.755)" fill="#2f2e41"/>
      <path id="Path_57" data-name="Path 57" d="M882.758,719.847c.586,3.518-.586,3.518,8.8,4.691s7.037-6.451,7.037-6.451a49.281,49.281,0,0,0-2.346-10.555c-1.759-4.691-11.142,1.173-11.142,1.173S882.172,716.329,882.758,719.847Z" transform="translate(-313.34 -298.123)" fill="#2f2e41"/>
      <path id="Path_58" data-name="Path 58" d="M887.014,287.006l.306,5.215a59.033,59.033,0,0,0,4.37-17.353c.586-8.8-9.383-10.555-15.247-11.141s-15.833,3.518-15.833,8.21,10.555,3.518,14.66,2.346,5.864,8.8,5.864,8.8l2.346.586Z" transform="translate(-304.094 -112.919)" fill="#2f2e41"/>
      <path id="Path_59" data-name="Path 59" d="M643.24,189.773l3.461-4.153,9.969,8.209-9.969,7.037Z" transform="translate(-79.629 4.477)" fill="#d0cde1"/>
      <path id="Path_60" data-name="Path 60" d="M677.5,186.86l-4.105-5.277-7.037,10.555,8.8,6.451Z" transform="translate(-89.313 6.169)" fill="#d0cde1"/>
      <path id="Path_61" data-name="Path 61" d="M845.607,377.078l2.346,22.283-4.691,13.487-2.932,12.9s0,12.314,11.728,12.9,21.7-36.943,21.7-36.943,1.759,8.21,2.932,12.9,21.11,23.456,21.11,23.456,4.691-.586,8.8-9.969-8.21-18.178-8.21-18.178L894.865,397.6l1.173-15.246,8.21-39.875-24.336-12.608,2.639,33.718-8.8,26.388-13.194-58.347-4.4,3.225L837.4,342.481Z" transform="translate(-294.368 -140.656)" fill="#2f2e41"/>
    </g>
    <g id="Group_3" data-name="Group 3" transform="translate(151.322 109.78)">
      <path id="Path_62" data-name="Path 62" d="M350.028,358.634c-.907-.007-1.824-.013-2.724-.041l.028-.908c.891.028,1.8.04,2.7.041s1.813-.015,2.72-.044l.029.908C351.861,358.619,350.936,358.634,350.028,358.634Zm-8.186-.384c-1.809-.171-3.636-.4-5.429-.689l.143-.9c1.775.283,3.582.513,5.372.682Zm16.4-.01-.087-.9c1.789-.171,3.6-.4,5.371-.689l.145.9c-1.794.289-3.621.523-5.429.7Zm-27.2-1.716c-1.771-.4-3.553-.866-5.3-1.382l.258-.871c1.725.51,3.487.969,5.24,1.366Zm38-.023-.2-.886c1.756-.4,3.519-.863,5.238-1.373l.259.871c-1.738.516-3.519.983-5.295,1.387Zm-48.5-3.079c-1.709-.628-3.419-1.319-5.082-2.055l.368-.831c1.645.728,3.337,1.412,5.028,2.033Zm58.984-.035-.314-.853c1.68-.619,3.366-1.3,5.01-2.032l.369.831c-1.662.737-3.366,1.429-5.065,2.054Zm-69-4.4c-1.608-.839-3.214-1.745-4.773-2.689l.471-.777c1.542.936,3.131,1.831,4.722,2.661Zm78.992-.033-.421-.805c1.587-.83,3.173-1.725,4.711-2.66l.472.776c-1.555.945-3.157,1.849-4.762,2.688Zm-88.355-5.645c-1.49-1.04-2.966-2.142-4.388-3.276l.567-.711c1.407,1.122,2.868,2.213,4.342,3.241Zm97.7-.032-.521-.745c1.473-1.03,2.932-2.12,4.336-3.241l.567.71c-1.419,1.133-2.893,2.235-4.382,3.276Zm-106.257-6.794c-1.347-1.222-2.67-2.5-3.934-3.806l.652-.633c1.25,1.289,2.56,2.556,3.893,3.766Zm114.8-.031-.611-.673c1.329-1.207,2.638-2.475,3.89-3.768l.652.632c-1.265,1.307-2.588,2.588-3.931,3.809Zm-122.422-7.823c-1.179-1.383-2.329-2.82-3.417-4.274l.727-.545c1.077,1.438,2.214,2.861,3.381,4.229Zm130.036-.038-.691-.589c1.166-1.369,2.3-2.793,3.381-4.233l.728.544c-1.089,1.456-2.238,2.9-3.418,4.279Zm-136.59-8.719c-.994-1.522-1.951-3.094-2.843-4.672l.791-.447c.883,1.561,1.829,3.117,2.813,4.622Zm143.145-.049-.761-.5c.984-1.509,1.93-3.067,2.814-4.632l.792.446c-.893,1.582-1.85,3.157-2.844,4.681Zm-148.526-9.467c-.791-1.635-1.537-3.316-2.22-5l.842-.342c.675,1.661,1.414,3.324,2.2,4.941Zm153.907-.071-.818-.4c.782-1.62,1.521-3.288,2.2-4.957l.842.341c-.684,1.687-1.43,3.373-2.221,5.011ZM268.937,300.228c-.575-1.726-1.1-3.491-1.561-5.247l.879-.231c.456,1.737.975,3.484,1.544,5.19Zm162.138-.1-.862-.286c.565-1.7,1.083-3.452,1.538-5.193l.879.23c-.46,1.759-.983,3.525-1.555,5.249ZM266.157,289.645c-.347-1.783-.641-3.6-.873-5.4l.9-.116c.23,1.784.52,3.582.864,5.345Zm167.685-.1-.892-.172c.341-1.763.63-3.562.857-5.347l.9.115c-.23,1.8-.523,3.622-.867,5.4ZM264.759,278.8c-.117-1.811-.177-3.652-.179-5.471h.909c0,1.8.061,3.622.177,5.414Zm170.47-.1-.907-.058c.113-1.79.17-3.611.17-5.412v-.2h.909v.2c0,1.823-.058,3.663-.172,5.473ZM265.653,267.91l-.907-.056c.113-1.815.285-3.648.512-5.449l.9.114C265.935,264.3,265.764,266.115,265.653,267.91Zm168.656-.3c-.118-1.8-.3-3.609-.526-5.389l.9-.117c.234,1.8.413,3.631.532,5.447Zm-167.3-10.44-.892-.172c.343-1.783.749-3.579,1.206-5.339l.879.228C267.751,253.63,267.35,255.407,267.011,257.172Zm165.9-.293c-.346-1.765-.754-3.541-1.212-5.278l.878-.232c.463,1.755.875,3.55,1.225,5.334ZM269.736,246.7l-.863-.285c.57-1.727,1.205-3.458,1.887-5.148l.843.34C270.928,243.275,270.3,244.988,269.736,246.7Zm160.414-.283c-.571-1.705-1.2-3.414-1.882-5.078l.841-.343c.686,1.682,1.326,3.409,1.9,5.132Zm-156.356-9.769-.819-.394c.788-1.638,1.64-3.273,2.533-4.859l.792.446C275.417,233.405,274.574,235.023,273.795,236.644Zm152.272-.248c-.783-1.613-1.629-3.225-2.516-4.789l.791-.448c.9,1.581,1.752,3.21,2.543,4.841Zm-146.958-9.2-.762-.5c.991-1.523,2.045-3.035,3.132-4.493l.728.543C281.132,224.2,280.089,225.694,279.109,227.2Zm141.623-.214c-.983-1.5-2.029-2.993-3.109-4.431l.727-.545c1.091,1.454,2.149,2.961,3.142,4.479Zm-135.148-8.468-.692-.588c1.177-1.384,2.414-2.749,3.677-4.056l.654.631C287.972,215.8,286.748,217.149,285.584,218.519Zm128.654-.187c-1.168-1.366-2.4-2.712-3.649-4l.651-.633c1.267,1.3,2.508,2.664,3.688,4.044Zm-121.129-7.6-.612-.672c1.345-1.225,2.745-2.421,4.161-3.554l.568.709c-1.4,1.121-2.787,2.3-4.117,3.516Zm113.582-.165c-1.332-1.206-2.721-2.386-4.13-3.506l.566-.711c1.423,1.132,2.827,2.325,4.173,3.544Zm-105.133-6.6-.521-.744c1.487-1.042,3.027-2.049,4.578-2.994l.473.776C304.553,201.943,303.029,202.939,301.558,203.97Zm96.658-.145c-1.479-1.03-3.008-2.023-4.544-2.953l.47-.777c1.553.939,3.1,1.943,4.593,2.984Zm-87.42-5.483-.422-.8c1.606-.843,3.262-1.644,4.921-2.383l.37.83C314.022,196.715,312.385,197.508,310.8,198.342Zm78.15-.125c-1.6-.831-3.24-1.62-4.887-2.347l.367-.831c1.665.734,3.327,1.533,4.94,2.372Zm-68.274-4.271-.315-.852c1.7-.63,3.451-1.213,5.192-1.732l.26.871c-1.723.514-3.451,1.091-5.137,1.714Zm58.357-.1c-1.689-.618-3.419-1.188-5.143-1.7l.256-.872c1.742.513,3.491,1.089,5.2,1.714Zm-47.984-2.989-.2-.886c1.768-.405,3.575-.758,5.372-1.05l.145.9C334.581,190.1,332.793,190.453,331.044,190.854Zm37.6-.066c-1.752-.395-3.541-.738-5.318-1.02l.142-.9c1.8.285,3.6.632,5.375,1.031Zm-26.915-1.667-.088-.9c1.8-.175,3.641-.295,5.461-.355l.03.908c-1.8.06-3.618.178-5.4.351Zm16.225-.028c-1.788-.167-3.606-.279-5.4-.332l.027-.908c1.817.054,3.655.167,5.462.336Z" transform="translate(-248.679 -168.996)" fill="#d0cde1"/>
      <ellipse id="Ellipse_11" data-name="Ellipse 11" cx="21.587" cy="20.891" rx="21.587" ry="20.891" transform="translate(76.6)" fill="#026cd1"/>
      <circle id="Ellipse_12" data-name="Ellipse 12" cx="20.891" cy="20.891" r="20.891" transform="translate(160.164 58.495)" fill="#026cd1"/>
      <ellipse id="Ellipse_13" data-name="Ellipse 13" cx="21.587" cy="20.891" rx="21.587" ry="20.891" transform="translate(133.702 147.63)" fill="#026cd1"/>
      <circle id="Ellipse_14" data-name="Ellipse 14" cx="21.587" cy="21.587" r="21.587" transform="translate(30.64 150.415)" fill="#026cd1"/>
      <ellipse id="Ellipse_15" data-name="Ellipse 15" cx="21.587" cy="20.891" rx="21.587" ry="20.891" transform="translate(0 58.495)" fill="#026cd1"/>
      <path id="Path_63" data-name="Path 63" d="M443.484,176.751h-7.448a2.554,2.554,0,0,1-2.554-2.554v-7.448a.213.213,0,0,0-.213-.213h-4.894a3.4,3.4,0,0,0-3.4,3.4v17.024a3.4,3.4,0,0,0,3.4,3.4h11.917a3.4,3.4,0,0,0,3.4-3.4v-10a.213.213,0,0,0-.213-.213Zm-4.894,8.512h-8.512a.851.851,0,0,1,0-1.7h8.512a.851.851,0,0,1,0,1.7Zm0-4.256h-8.512a.851.851,0,0,1,0-1.7h8.512a.851.851,0,0,1,0,1.7Z" transform="translate(-336.203 -157.364)" fill="#fff"/>
      <path id="Path_64" data-name="Path 64" d="M455.286,175.647,447.635,168a.106.106,0,0,0-.181.075v6.906a.851.851,0,0,0,.851.851h6.906a.106.106,0,0,0,.075-.181Z" transform="translate(-348.472 -158.144)" fill="#fff"/>
      <path id="Path_65" data-name="Path 65" d="M576.019,507.508a1.132,1.132,0,1,0,.8.331A1.131,1.131,0,0,0,576.019,507.508Z" transform="translate(-418.012 -343.429)" fill="#fff"/>
      <path id="Path_66" data-name="Path 66" d="M568.561,496.628v0a.865.865,0,0,0-.641-.649,9.947,9.947,0,0,0-5.454.9,17.539,17.539,0,0,0-5.706,3.613,13.605,13.605,0,0,0-1.253,1.434,5.558,5.558,0,0,0-2.483.4c-2.448,1.077-3.147,3.834-3.333,4.966a1.06,1.06,0,0,0,1.153,1.23h.005l2.727-.3c0,.035.007.067.01.1a1.456,1.456,0,0,0,.42.879l1.331,1.332a1.453,1.453,0,0,0,.878.42l.091.01-.3,2.724v.006a1.06,1.06,0,0,0,.945,1.163c.033,0,.065.005.1.005a1.055,1.055,0,0,0,.176-.014c1.138-.183,3.894-.874,4.969-3.335a5.6,5.6,0,0,0,.4-2.473,13.335,13.335,0,0,0,1.439-1.253,17.41,17.41,0,0,0,3.617-5.661A10.118,10.118,0,0,0,568.561,496.628Zm-4.539,7.414a2.492,2.492,0,1,1,0-3.524l0,0a2.472,2.472,0,0,1,.027,3.5Z" transform="translate(-404.253 -337.074)" fill="#fff"/>
      <path id="Path_67" data-name="Path 67" d="M556,526.37a.678.678,0,0,0-.466.113c-.271.185-.543.368-.818.547a.633.633,0,0,1-.89-.848l.515-.89a.678.678,0,0,0-.643-1.056,2.6,2.6,0,0,0-1.511.74c-.155.156-.627.628-.881,2.428a15.2,15.2,0,0,0-.137,1.559.678.678,0,0,0,.661.7h.035a15.227,15.227,0,0,0,1.56-.136c1.8-.254,2.273-.727,2.428-.882a2.565,2.565,0,0,0,.737-1.515A.678.678,0,0,0,556,526.37Z" transform="translate(-405.067 -352.555)" fill="#fff"/>
      <path id="Path_68" data-name="Path 68" d="M325.153,539.157h-1.547a1.16,1.16,0,0,1-1.16-1.16v-6.962a1.16,1.16,0,0,1,1.16-1.16h1.547a1.16,1.16,0,0,1,1.16,1.16V538A1.16,1.16,0,0,1,325.153,539.157Z" transform="translate(-280.256 -355.634)" fill="#fff"/>
      <path id="Path_69" data-name="Path 69" d="M348.99,533.583h-1.547a1.16,1.16,0,0,1-1.16-1.16v-11.6a1.16,1.16,0,0,1,1.16-1.16h1.547a1.16,1.16,0,0,1,1.16,1.16v11.6A1.16,1.16,0,0,1,348.99,533.583Z" transform="translate(-293.264 -350.06)" fill="#fff"/>
      <path id="Path_70" data-name="Path 70" d="M360.908,527.079h-1.547a1.16,1.16,0,0,1-1.16-1.16V508.9a1.16,1.16,0,0,1,1.16-1.16h1.547a1.16,1.16,0,0,1,1.16,1.16v17.018A1.16,1.16,0,0,1,360.908,527.079Z" transform="translate(-299.767 -343.556)" fill="#fff"/>
      <path id="Path_71" data-name="Path 71" d="M337.071,522.433h-1.547a1.16,1.16,0,0,1-1.16-1.16V500.387a1.16,1.16,0,0,1,1.16-1.16h1.547a1.16,1.16,0,0,1,1.16,1.16v20.885a1.16,1.16,0,0,1-1.16,1.16Z" transform="translate(-286.76 -338.91)" fill="#fff"/>
      <path id="Path_72" data-name="Path 72" d="M616.4,317.731l-1.105-1.106a1.355,1.355,0,0,0-1.911-.005l-7.684,7.092a1.434,1.434,0,0,0-.481.976,1.359,1.359,0,0,0,.39,1.013l1.651,1.669,0,0a1.367,1.367,0,0,0,.961.4h.05a1.422,1.422,0,0,0,.981-.473l7.142-7.649a1.355,1.355,0,0,0,.008-1.916Z" transform="translate(-434.561 -239.05)" fill="#fff"/>
      <path id="Path_73" data-name="Path 73" d="M633.4,306.583l-.013-.013-1.451-1.436a.909.909,0,0,0-.647-.265.926.926,0,0,0-.541.175c0-.018,0-.036,0-.052a1.546,1.546,0,0,0-.22-1.068,10.92,10.92,0,0,0-1.05-1.217l0,0a11.461,11.461,0,0,0-3.671-2.368,5.908,5.908,0,0,0-2.247-.442,4.282,4.282,0,0,0-2.741.96,5.069,5.069,0,0,0-.6.687.677.677,0,0,0,.79,1.03,3.13,3.13,0,0,1,.363-.111,2.687,2.687,0,0,1,.781-.049,3.284,3.284,0,0,1,1.511.554,2.176,2.176,0,0,1,.773,1.739,4.516,4.516,0,0,1-.847,1.46.677.677,0,0,0,.061.889l1.457,1.457a.677.677,0,0,0,.931.026c.412-.368,1.039-.922,1.258-1.058a1.577,1.577,0,0,1,.622-.245.812.812,0,0,1,.478.1.053.053,0,0,1-.013.04l-.077.073-.013.012a.911.911,0,0,0,0,1.288l0,0,1.45,1.435a.908.908,0,0,0,.647.265.918.918,0,0,0,.644-.262l2.349-2.321.024-.025A.926.926,0,0,0,633.4,306.583Z" transform="translate(-442.676 -230.136)" fill="#fff"/>
      <path id="Path_74" data-name="Path 74" d="M283.024,309.825a.848.848,0,0,1-.6-1.447l1.943-1.943-1.943-1.943a.848.848,0,1,1,1.2-1.2l2.543,2.543a.848.848,0,0,1,0,1.2l-2.543,2.543A.845.845,0,0,1,283.024,309.825Z" transform="translate(-258.281 -231.855)" fill="#fff"/>
      <path id="Path_75" data-name="Path 75" d="M253.175,315.421a.848.848,0,0,1-.848-.848v-.848a5.111,5.111,0,0,1,5.083-5.085h11.021a.848.848,0,1,1,0,1.7H257.413a3.411,3.411,0,0,0-3.39,3.393v.845a.848.848,0,0,1-.848.848Z" transform="translate(-241.993 -234.909)" fill="#fff"/>
      <path id="Path_76" data-name="Path 76" d="M265.046,330.346a.845.845,0,0,1-.6-.248l-2.543-2.543a.847.847,0,0,1,0-1.2l2.543-2.543a.848.848,0,0,1,1.2,1.2l-1.943,1.943,1.943,1.943a.848.848,0,0,1-.6,1.447Z" transform="translate(-247.083 -243.053)" fill="#fff"/>
      <path id="Path_77" data-name="Path 77" d="M264.368,324.749a.848.848,0,0,1,0-1.7h11.018a3.411,3.411,0,0,0,3.39-3.393v-.845a.848.848,0,0,1,1.7,0v.848a5.111,5.111,0,0,1-5.083,5.085Z" transform="translate(-248.101 -239.999)" fill="#fff"/>
    </g>
  </g>
</svg>
