<svg id="intro-img-2" xmlns="http://www.w3.org/2000/svg" width="1000" height="800" viewBox="0 0 1000 800">
  <rect id="BG" width="1000" height="800" fill="#fff" opacity="0"/>
  <g id="Content" transform="translate(73.627 102)">
    <rect id="Rectangle_7357" data-name="Rectangle 7357" width="853.373" height="2.015" rx="1.008" transform="translate(0 593.529)" fill="#2e3552"/>
    <g id="Background_Complete" data-name="Background Complete" transform="translate(71.679 312.806)">
      <g id="Group_227" data-name="Group 227" transform="translate(472.389 4.714)">
        <g id="Group_213" data-name="Group 213">
          <g id="Group_148" data-name="Group 148" transform="translate(120.552 142.316)">
            <path id="Path_496" data-name="Path 496" d="M20.658,377.714a45.038,45.038,0,0,1,19.265-6.631c3.149-.323,6.588-.231,9.113,1.676a1.876,1.876,0,0,1,.939,1.664,2.037,2.037,0,0,1-.892,1.138c-7.839,5.979-19.7,6.734-28.425,2.152" transform="translate(-20.658 -370.94)" fill="#e0e0e0"/>
          </g>
          <g id="Group_149" data-name="Group 149" transform="translate(121.047 118.343)">
            <path id="Path_497" data-name="Path 497" d="M26.557,384.234A94.031,94.031,0,0,0,39,373.286a31.476,31.476,0,0,0,7.8-14.427c.335-1.645.438-3.523-.617-4.828-9.919,7.747-17.711,17.765-19.628,30.2" transform="translate(-26.557 -354.031)" fill="#e0e0e0"/>
          </g>
          <g id="Group_150" data-name="Group 150" transform="translate(110.713 119.198)">
            <path id="Path_498" data-name="Path 498" d="M50.772,384.453c.746-5.427,1.015-11-.231-16.337s-4.147-10.439-8.7-13.482c-1.714,4.007-.977,8.621.23,12.808A62.287,62.287,0,0,0,50.7,385.609" transform="translate(-40.83 -354.634)" fill="#e0e0e0"/>
          </g>
          <g id="Group_151" data-name="Group 151" transform="translate(110.931 166.438)">
            <path id="Path_499" data-name="Path 499" d="M31,387.954c5.9.717,11.043,3.829,15.451,7.819a29.229,29.229,0,0,1,8.837,15.172c-5.79-.357-10.7-4.441-14.263-9.018s-6.031-9.6-9.944-13.883" transform="translate(-31.003 -387.954)" fill="#e0e0e0"/>
          </g>
          <g id="Group_152" data-name="Group 152" transform="translate(102.608 133.18)">
            <path id="Path_500" data-name="Path 500" d="M53.961,400.542a38.11,38.11,0,0,0-4.4-36.045c-3.363,11.962-2.128,25.473,4.4,36.045" transform="translate(-47.749 -364.496)" fill="#e0e0e0"/>
          </g>
          <g id="Group_153" data-name="Group 153" transform="translate(95.857 184.47)">
            <path id="Path_501" data-name="Path 501" d="M39.934,400.724A27.552,27.552,0,0,1,66.281,415.89c.328.652.615,1.482.179,2.066a1.961,1.961,0,0,1-1.748.515c-5.192-.337-9.794-3.461-13.591-7.018s-7.106-7.667-11.3-10.744" transform="translate(-39.819 -400.673)" fill="#e0e0e0"/>
          </g>
          <g id="Group_154" data-name="Group 154" transform="translate(88.16 147.183)">
            <path id="Path_502" data-name="Path 502" d="M65.062,410.879a49.067,49.067,0,0,0,.489-27.411c-.965-3.527-2.586-7.242-5.85-8.9a1.148,1.148,0,0,0-.895-.157,1.184,1.184,0,0,0-.566.655,16.518,16.518,0,0,0-1.379,7.864,49.406,49.406,0,0,0,1.233,7.961c1.026,4.866,1.574,10.095,4.242,14.29a29.243,29.243,0,0,1,1.7,3.139c.5,1.066.509,1.442.971,2.29" transform="translate(-56.839 -374.373)" fill="#e0e0e0"/>
          </g>
          <g id="Group_155" data-name="Group 155" transform="translate(53.065 158.56)">
            <path id="Path_503" data-name="Path 503" d="M91.026,412.593c2.519-9.583-.155-21.2-6.194-29.057-.445-.58-1.034-1.2-1.761-1.133-1.112.1-1.4,1.585-1.351,2.7a52.506,52.506,0,0,0,9.306,27.488" transform="translate(-81.715 -382.398)" fill="#e0e0e0"/>
          </g>
          <g id="Group_156" data-name="Group 156" transform="translate(24.625 180.805)">
            <path id="Path_504" data-name="Path 504" d="M119.228,408.135c-11.643,3.03-25,.084-34.684-7.055a28.087,28.087,0,0,1,18.777-2.305c6.272,1.435,12,4.245,15.907,9.36" transform="translate(-84.544 -398.087)" fill="#e0e0e0"/>
          </g>
          <g id="Group_157" data-name="Group 157" transform="translate(25.245 166.268)">
            <path id="Path_505" data-name="Path 505" d="M117.847,406.037c-6.522-10.632-19.024-17.572-31.48-18.2,1.435,5.067,5.6,9,10.3,11.383s9.941,3.415,15.111,4.419c2.012.391,4.769.82,6.074,2.4" transform="translate(-86.367 -387.834)" fill="#e0e0e0"/>
          </g>
          <g id="Group_158" data-name="Group 158" transform="translate(57.579 116.834)">
            <path id="Path_506" data-name="Path 506" d="M83.8,389.639c-1.767-6.05-3.542-12.153-4.026-18.437s.411-12.842,3.672-18.235c6.091,11.787,6.707,25.558.537,37.3" transform="translate(-79.648 -352.967)" fill="#e0e0e0"/>
          </g>
          <g id="Group_159" data-name="Group 159" transform="translate(4.859 118.404)">
            <path id="Path_507" data-name="Path 507" d="M133.665,378.811c-7.123-12.946-21.656-23.288-36.362-24.737,5.673,14.125,21.143,25.041,36.362,24.737" transform="translate(-97.303 -354.074)" fill="#e0e0e0"/>
          </g>
          <g id="Group_160" data-name="Group 160" transform="translate(4.26 143.554)">
            <path id="Path_508" data-name="Path 508" d="M135.584,373.937c-10.623,1.619-19.674,8.4-29.6,12.518a13.264,13.264,0,0,1-6.692,1.282c-2.278-.3-4.527-1.828-5.037-4.069a5.841,5.841,0,0,1,1.758-5.2,14.339,14.339,0,0,1,4.86-2.949c10.813-4.5,22.409-4.613,33.8-1.884" transform="translate(-94.142 -371.813)" fill="#e0e0e0"/>
          </g>
          <g id="Group_161" data-name="Group 161" transform="translate(21.73 152.616)">
            <path id="Path_509" data-name="Path 509" d="M119.926,378.718c-2.4.689-3.227,1.934-5.131,3.556a55.37,55.37,0,0,1-22.449,11.532c-.856.213-1.982.3-2.406-.478-.371-.676.1-1.5.58-2.1,3.451-4.319,8.373-7.272,13.554-9.2s9.669-4.255,15.852-3.756" transform="translate(-89.806 -378.205)" fill="#e0e0e0"/>
          </g>
          <g id="Group_162" data-name="Group 162" transform="translate(24.428 106.978)">
            <path id="Path_510" data-name="Path 510" d="M119.272,347.165A42.486,42.486,0,0,1,86.7,358.246a2.225,2.225,0,0,1-1.482-.533c-.821-.892.163-2.268,1.119-3.013,9.576-7.466,21.174-10.561,32.933-7.535" transform="translate(-84.913 -346.015)" fill="#e0e0e0"/>
          </g>
          <g id="Group_163" data-name="Group 163" transform="translate(9.92 96.273)">
            <path id="Path_511" data-name="Path 511" d="M131.356,347.309A45.393,45.393,0,0,0,90.714,340.6c5.118,5.044,12.22,7.758,19.367,8.5a61.324,61.324,0,0,0,21.275-1.8" transform="translate(-90.714 -338.464)" fill="#e0e0e0"/>
          </g>
          <g id="Group_164" data-name="Group 164" transform="translate(53.83 55.694)">
            <path id="Path_512" data-name="Path 512" d="M84.536,338.587c.941-9.557.33-17.1.994-26.705.054-.767.218-1.69.936-1.966,1-.386,1.832.844,2.161,1.863a30.609,30.609,0,0,1-4.076,26.6" transform="translate(-84.536 -309.843)" fill="#e0e0e0"/>
          </g>
          <g id="Group_165" data-name="Group 165" transform="translate(33.516 55.448)">
            <path id="Path_513" data-name="Path 513" d="M108.926,339.716c-6.478-4.007-11.338-9.238-15.832-15.389-3.126-4.279-5.763-9.4-5.053-14.656,4.392-.088,8.565,2.334,11.422,5.671s4.554,7.507,5.821,11.714,2.155,8.526,3.642,12.659" transform="translate(-87.924 -309.669)" fill="#e0e0e0"/>
          </g>
          <g id="Group_166" data-name="Group 166" transform="translate(0 57.234)">
            <path id="Path_514" data-name="Path 514" d="M137.715,334.868a127.666,127.666,0,0,1-38.963-22.975c4.655-1.876,9.983-.753,14.636,1.126,10.63,4.29,19.317,11.535,24.53,21.744" transform="translate(-98.752 -310.929)" fill="#e0e0e0"/>
          </g>
          <g id="Group_167" data-name="Group 167" transform="translate(6.84 79.454)">
            <path id="Path_515" data-name="Path 515" d="M134.313,337.871c-7.194.785-14.5,1.3-21.637.1-7.014-1.173-13.642-3.953-20.2-6.71a2.379,2.379,0,0,1-1.372-1.042A1.582,1.582,0,0,1,91.6,328.5a4.189,4.189,0,0,1,1.723-.808c7.126-1.992,14.816-1.059,21.828,1.3a101.338,101.338,0,0,1,19.164,8.879" transform="translate(-91.008 -326.601)" fill="#e0e0e0"/>
          </g>
          <g id="Group_168" data-name="Group 168" transform="translate(88.549 76.78)">
            <path id="Path_516" data-name="Path 516" d="M62.164,356.389c4.907-9.906,4.588-21.465.349-31.674-2.984,4.548-3.349,10.338-2.8,15.749s2.193,10.981,2.3,16.418" transform="translate(-59.498 -324.715)" fill="#e0e0e0"/>
          </g>
          <g id="Group_169" data-name="Group 169" transform="translate(110.266 98.559)">
            <path id="Path_517" data-name="Path 517" d="M25.612,340.084a44.177,44.177,0,0,1,32.827,13.985c-6.115.96-12.413-.617-17.975-3.333s-10.506-6.526-15.406-10.31" transform="translate(-25.059 -340.077)" fill="#e0e0e0"/>
          </g>
          <g id="Group_170" data-name="Group 170" transform="translate(123.998 93.582)">
            <path id="Path_518" data-name="Path 518" d="M17.135,337.143c5.994-.485,11.762-1.228,17.525.539s11.008,5.775,13.357,11.325c-5.607.632-11.291-.774-16.431-3.1a94.665,94.665,0,0,1-14.451-8.762" transform="translate(-17.135 -336.566)" fill="#e0e0e0"/>
          </g>
          <g id="Group_171" data-name="Group 171" transform="translate(103.811 85.16)">
            <path id="Path_519" data-name="Path 519" d="M28.569,339.826c5.392-3.533,10.93-7.13,17.208-8.593s13.554-.383,17.932,4.35c-5.083,2.982-11.249,3.335-17.141,3.33s-13.117-.072-18.672,1.894" transform="translate(-27.896 -330.626)" fill="#e0e0e0"/>
          </g>
          <g id="Group_172" data-name="Group 172" transform="translate(104.1 56.958)">
            <path id="Path_520" data-name="Path 520" d="M45.678,348.421c9.217-9.051,12.712-25.313,9-37.687a57.427,57.427,0,0,0-9,37.687" transform="translate(-45.324 -310.734)" fill="#e0e0e0"/>
          </g>
          <g id="Group_173" data-name="Group 173" transform="translate(56.721 39.254)">
            <path id="Path_521" data-name="Path 521" d="M92.966,327.992c-1.738-4.042-2.962-8.284-4.521-12.4A35.623,35.623,0,0,0,82,304.165c-2.948-3.267-7.022-5.7-11.417-5.918A45.984,45.984,0,0,0,92.74,328.056" transform="translate(-70.582 -298.247)" fill="#e0e0e0"/>
          </g>
          <g id="Group_174" data-name="Group 174" transform="translate(83.691 58.097)">
            <path id="Path_522" data-name="Path 522" d="M50.528,327.783c2.878-3.96,6.2-9.335,10.1-12.291s8.982-4.745,13.742-3.61a32.008,32.008,0,0,1-23.846,15.9" transform="translate(-50.528 -311.538)" fill="#e0e0e0"/>
          </g>
          <g id="Group_175" data-name="Group 175" transform="translate(80.128 39.627)">
            <path id="Path_523" data-name="Path 523" d="M67.2,328.211c1.886-4.792,3.785-9.634,4.548-14.726s.3-10.533-2.305-14.974c-5.06,9.564-6.69,19.832-2.5,29.809" transform="translate(-64.552 -298.51)" fill="#e0e0e0"/>
          </g>
          <g id="Group_176" data-name="Group 176" transform="translate(51.709 19.353)">
            <path id="Path_524" data-name="Path 524" d="M97.964,304.484C95.1,295,86.417,288.019,77.042,284.815a7.816,7.816,0,0,0-3.668-.55,3.186,3.186,0,0,0-2.705,2.257c-.342,1.613.991,3.058,2.244,4.13a71.23,71.23,0,0,0,25.051,13.832" transform="translate(-70.615 -284.211)" fill="#e0e0e0"/>
          </g>
          <g id="Group_177" data-name="Group 177" transform="translate(64.632)">
            <path id="Path_525" data-name="Path 525" d="M84.9,302.432c-.364-6.113-.746-12.316-2.733-18.109s-5.821-11.227-11.4-13.762c-.948,6.176,1.776,12.319,5.061,17.631s7.246,10.33,9.22,16.256" transform="translate(-70.582 -270.56)" fill="#e0e0e0"/>
          </g>
          <g id="Group_178" data-name="Group 178" transform="translate(79.105 2.838)">
            <path id="Path_526" data-name="Path 526" d="M58.041,305.8c2.369-6.91,2.614-15.688,6.751-21.708,2.892-4.209,7.526-7.076,10.018-11.534,1.655,4.164,1.148,8.96-.583,13.092a37.891,37.891,0,0,1-7.656,10.959c-3.062,3.271-5.684,5.731-8.531,9.19" transform="translate(-58.041 -272.562)" fill="#e0e0e0"/>
          </g>
          <g id="Group_180" data-name="Group 180" transform="translate(78.748 33.672)">
            <g id="Group_179" data-name="Group 179">
              <path id="Path_527" data-name="Path 527" d="M70.672,500.226c.184,0,.345-46.1.357-102.953.013-56.874-.126-102.963-.31-102.963s-.343,46.089-.356,102.963C70.35,454.126,70.489,500.226,70.672,500.226Z" transform="translate(-70.362 -294.31)" fill="#e0e0e0"/>
            </g>
          </g>
          <g id="Group_182" data-name="Group 182" transform="translate(38.773 101.491)">
            <g id="Group_181" data-name="Group 181">
              <path id="Path_528" data-name="Path 528" d="M70.573,342.152a9.789,9.789,0,0,0,1.733.651l4.771,1.609c4.022,1.37,9.546,3.354,15.543,5.811,5.938,2.546,11.538,4.615,14.726,7.378a10.837,10.837,0,0,1,2.959,3.915c.457,1.083.539,1.745.6,1.732a1.328,1.328,0,0,0-.02-.483,7.326,7.326,0,0,0-.339-1.343,10.4,10.4,0,0,0-2.888-4.174,25.924,25.924,0,0,0-6.388-3.968c-2.556-1.194-5.389-2.437-8.4-3.673-6.014-2.464-11.582-4.385-15.649-5.643-2.033-.634-3.692-1.1-4.842-1.409A9.809,9.809,0,0,0,70.573,342.152Z" transform="translate(-70.573 -342.145)" fill="#e0e0e0"/>
            </g>
          </g>
          <g id="Group_184" data-name="Group 184" transform="translate(25.567 69.061)">
            <g id="Group_183" data-name="Group 183">
              <path id="Path_529" data-name="Path 529" d="M72.811,319.272a2.818,2.818,0,0,0,.485.519l1.48,1.389L80.3,326.2l18.38,16.367c7.175,6.387,13.377,12.489,17.673,17.084,2.152,2.294,3.846,4.2,5,5.522l1.336,1.526a2.854,2.854,0,0,0,.5.5,2.841,2.841,0,0,0-.394-.59c-.279-.37-.685-.923-1.241-1.606-1.1-1.381-2.742-3.335-4.854-5.677a232.918,232.918,0,0,0-17.576-17.261c-7.2-6.371-13.751-12.1-18.512-16.222l-5.663-4.857-1.562-1.3A2.862,2.862,0,0,0,72.811,319.272Z" transform="translate(-72.81 -319.271)" fill="#e0e0e0"/>
            </g>
          </g>
          <g id="Group_186" data-name="Group 186" transform="translate(53.933 82.887)">
            <g id="Group_185" data-name="Group 185">
              <path id="Path_530" data-name="Path 530" d="M89.872,344.983c.187-.084-1.311-3.544-2.8-7.921-1.509-4.375-2.217-8.07-2.409-8.039-.173.018.251,3.819,1.778,8.253a53.634,53.634,0,0,0,2.232,5.541A8.543,8.543,0,0,0,89.872,344.983Z" transform="translate(-84.623 -329.023)" fill="#e0e0e0"/>
            </g>
          </g>
          <g id="Group_188" data-name="Group 188" transform="translate(79.014 93.088)">
            <g id="Group_187" data-name="Group 187">
              <path id="Path_531" data-name="Path 531" d="M51.8,369.88a8.343,8.343,0,0,0,1.106-1.283c.75-.963,1.7-2.181,2.831-3.632,2.379-3.075,5.668-7.32,9.356-11.966s7.076-8.814,9.532-11.828l2.894-3.583a8.25,8.25,0,0,0,1-1.368,8.215,8.215,0,0,0-1.2,1.2c-.737.8-1.784,1.978-3.058,3.448-2.549,2.94-6,7.065-9.693,11.718s-6.924,8.946-9.21,12.1c-1.141,1.575-2.052,2.861-2.664,3.761A8.171,8.171,0,0,0,51.8,369.88Z" transform="translate(-51.797 -336.218)" fill="#e0e0e0"/>
            </g>
          </g>
          <g id="Group_190" data-name="Group 190" transform="translate(87.839 101.474)">
            <g id="Group_189" data-name="Group 189">
              <path id="Path_532" data-name="Path 532" d="M61.192,356.07c.109.116,2.466-2.68,3.7-6.929a19.8,19.8,0,0,0,.839-6.984l-.295.024c.132.533.228.815.281.807s.055-.306.011-.855l-.293.024a31.813,31.813,0,0,1-1.182,6.794C63.06,353.068,61.013,355.956,61.192,356.07Z" transform="translate(-61.181 -342.133)" fill="#e0e0e0"/>
            </g>
          </g>
          <g id="Group_192" data-name="Group 192" transform="translate(99.249 98.233)">
            <g id="Group_191" data-name="Group 191">
              <path id="Path_533" data-name="Path 533" d="M42.3,342.68a11.934,11.934,0,0,1,2.585-1.5,17.278,17.278,0,0,1,7.173-.57,44.194,44.194,0,0,1,7.224,1.165,21.946,21.946,0,0,0,2.973.713,10.4,10.4,0,0,0-2.847-1.167,33.076,33.076,0,0,0-7.3-1.377,15.642,15.642,0,0,0-7.4.8A4.579,4.579,0,0,0,42.3,342.68Z" transform="translate(-42.297 -339.847)" fill="#e0e0e0"/>
            </g>
          </g>
          <g id="Group_194" data-name="Group 194" transform="translate(101.955 93.352)">
            <g id="Group_193" data-name="Group 193">
              <path id="Path_534" data-name="Path 534" d="M34.69,340.642c.051.1,1.5-.6,3.958-1.442a39.836,39.836,0,0,1,19.947-1.521c2.552.457,4.1.934,4.131.825a3.784,3.784,0,0,0-1.049-.448,25.035,25.035,0,0,0-2.99-.839,35.222,35.222,0,0,0-20.2,1.541,24.806,24.806,0,0,0-2.827,1.282A3.783,3.783,0,0,0,34.69,340.642Z" transform="translate(-34.689 -336.404)" fill="#e0e0e0"/>
            </g>
          </g>
          <g id="Group_196" data-name="Group 196" transform="translate(79.084 62.668)">
            <g id="Group_195" data-name="Group 195">
              <path id="Path_535" data-name="Path 535" d="M66.971,334.981c.179.045,1.47-4.445,2.887-10.027s2.419-10.147,2.241-10.192-1.472,4.445-2.887,10.028S66.793,334.937,66.971,334.981Z" transform="translate(-66.951 -314.762)" fill="#e0e0e0"/>
            </g>
          </g>
          <g id="Group_198" data-name="Group 198" transform="translate(78.895 72.014)">
            <g id="Group_197" data-name="Group 197">
              <path id="Path_536" data-name="Path 536" d="M65.157,332.227c.2.065,1.031-2.935,3.2-6a26.453,26.453,0,0,1,4.71-4.86,4.394,4.394,0,0,0-1.818.937,14.64,14.64,0,0,0-3.438,3.54C65.559,329.034,65,332.216,65.157,332.227Z" transform="translate(-65.131 -321.354)" fill="#e0e0e0"/>
            </g>
          </g>
          <g id="Group_200" data-name="Group 200" transform="translate(79.05 147.727)">
            <g id="Group_199" data-name="Group 199">
              <path id="Path_537" data-name="Path 537" d="M40.835,442.043c.072.01.208-1.109.727-3.067A43.6,43.6,0,0,1,44.643,431c3.184-6.509,8.98-14.762,16.344-23.027,3.649-4.168,7.19-8.1,10.2-11.868a83.351,83.351,0,0,0,7.289-10.513,50.547,50.547,0,0,0,3.681-7.8c.339-.963.587-1.713.723-2.232a3.743,3.743,0,0,0,.189-.8c-.06-.018-.394,1.055-1.154,2.935a57.1,57.1,0,0,1-3.845,7.657A88,88,0,0,1,70.7,395.716c-3.016,3.726-6.561,7.638-10.218,11.814-7.384,8.288-13.165,16.645-16.266,23.26a39.916,39.916,0,0,0-2.909,8.124,22.764,22.764,0,0,0-.407,2.312A3.79,3.79,0,0,0,40.835,442.043Z" transform="translate(-40.827 -374.757)" fill="#e0e0e0"/>
            </g>
          </g>
          <g id="Group_202" data-name="Group 202" transform="translate(42.655 173.892)">
            <g id="Group_201" data-name="Group 201">
              <path id="Path_538" data-name="Path 538" d="M70.613,393.215a16.627,16.627,0,0,0,1.907,1.07,41.638,41.638,0,0,1,4.949,3.272,56.887,56.887,0,0,1,6.5,5.928c2.281,2.409,4.63,5.207,7.029,8.206,4.795,6.016,9.279,11.339,11.965,15.59,1.362,2.107,2.354,3.885,3,5.131a16.569,16.569,0,0,0,1.051,1.921,1.814,1.814,0,0,0-.176-.542c-.143-.343-.336-.858-.642-1.494a48.635,48.635,0,0,0-2.837-5.268c-2.609-4.351-7.058-9.749-11.844-15.754-2.4-3-4.781-5.809-7.1-8.215a52.83,52.83,0,0,0-6.661-5.88,34.7,34.7,0,0,0-5.111-3.125c-.632-.316-1.147-.512-1.489-.658A1.841,1.841,0,0,0,70.613,393.215Z" transform="translate(-70.612 -393.211)" fill="#e0e0e0"/>
            </g>
          </g>
          <g id="Group_204" data-name="Group 204" transform="translate(41.942 187.186)">
            <g id="Group_203" data-name="Group 203">
              <path id="Path_539" data-name="Path 539" d="M79.048,402.638a27.975,27.975,0,0,0,4.034.586,53.168,53.168,0,0,1,9.563,1.883,28.723,28.723,0,0,1,8.563,4.494c1.975,1.526,2.905,2.787,3,2.714a3.117,3.117,0,0,0-.6-.929,15.187,15.187,0,0,0-2.1-2.149,25.906,25.906,0,0,0-8.657-4.764,43.185,43.185,0,0,0-9.72-1.718A22.143,22.143,0,0,0,79.048,402.638Z" transform="translate(-79.048 -402.588)" fill="#e0e0e0"/>
            </g>
          </g>
          <g id="Group_206" data-name="Group 206" transform="translate(60.978 181.784)">
            <g id="Group_205" data-name="Group 205">
              <path id="Path_540" data-name="Path 540" d="M84.812,412.44c.211-.119-1.606-2.9-3.016-6.628-1.323-3.768-1.633-7.072-1.87-7.034a6.39,6.39,0,0,0,.067,2.163,23.217,23.217,0,0,0,1.177,5.1,24.683,24.683,0,0,0,2.338,4.674A6.54,6.54,0,0,0,84.812,412.44Z" transform="translate(-79.869 -398.778)" fill="#e0e0e0"/>
            </g>
          </g>
          <g id="Group_208" data-name="Group 208" transform="translate(30.865 138.081)">
            <g id="Group_207" data-name="Group 207">
              <path id="Path_541" data-name="Path 541" d="M70.623,367.956a3.037,3.037,0,0,0,.645.343l1.9.862c.829.356,1.837.807,2.973,1.406s2.468,1.192,3.852,2.023l2.2,1.252c.763.438,1.517.958,2.321,1.462,1.622.984,3.247,2.2,4.981,3.432a93.694,93.694,0,0,1,10.4,9.143,93.71,93.71,0,0,1,8.785,10.706c1.177,1.776,2.334,3.441,3.261,5.1.475.819.97,1.592,1.382,2.369s.8,1.526,1.175,2.242c.783,1.412,1.343,2.762,1.891,3.92s.975,2.178,1.3,3.018c.323.78.586,1.416.8,1.924a2.99,2.99,0,0,0,.322.656,3.1,3.1,0,0,0-.194-.7c-.18-.52-.405-1.173-.681-1.972-.292-.858-.675-1.9-1.2-3.074s-1.052-2.549-1.813-3.983q-.547-1.091-1.143-2.276c-.4-.788-.89-1.572-1.358-2.4-.913-1.677-2.06-3.366-3.231-5.165a89.793,89.793,0,0,0-8.811-10.819,89.59,89.59,0,0,0-10.51-9.174c-1.758-1.232-3.405-2.436-5.052-3.405-.814-.5-1.581-1.009-2.355-1.439l-2.234-1.221c-1.408-.81-2.759-1.389-3.919-1.948s-2.183-.987-3.031-1.307l-1.948-.749A3.065,3.065,0,0,0,70.623,367.956Z" transform="translate(-70.622 -367.953)" fill="#e0e0e0"/>
            </g>
          </g>
          <g id="Group_210" data-name="Group 210" transform="translate(42.452 152.575)">
            <g id="Group_209" data-name="Group 209">
              <path id="Path_542" data-name="Path 542" d="M101.505,382.99a4.618,4.618,0,0,0-1.584-2.359,10,10,0,0,0-6.383-2.45,17.442,17.442,0,0,0-6.717,1.313,9.626,9.626,0,0,0-2.539,1.233,15.545,15.545,0,0,0,2.694-.788,20.272,20.272,0,0,1,6.542-1.092,10.4,10.4,0,0,1,6.1,2.139A18.6,18.6,0,0,1,101.505,382.99Z" transform="translate(-84.281 -378.176)" fill="#e0e0e0"/>
            </g>
          </g>
          <g id="Group_212" data-name="Group 212" transform="translate(61.427 149.777)">
            <g id="Group_211" data-name="Group 211">
              <path id="Path_543" data-name="Path 543" d="M83.793,388.256c.183-.1-1.443-2.484-1.813-5.9-.425-3.407.608-6.1.407-6.156a3.911,3.911,0,0,0-.749,1.718,12.194,12.194,0,0,0,1.031,8.836C83.232,387.777,83.728,388.3,83.793,388.256Z" transform="translate(-81.238 -376.202)" fill="#e0e0e0"/>
            </g>
          </g>
        </g>
        <g id="Group_214" data-name="Group 214" transform="translate(47.311 221.619)">
          <path id="Path_544" data-name="Path 544" d="M111.744,426.875c-.992,17.617-6.3,35.534-14.467,53.649H61.767c-7.788-17.935-12.73-35.824-13.609-53.649Z" transform="translate(-48.158 -426.875)" fill="#e0e0e0"/>
        </g>
        <g id="Group_216" data-name="Group 216" transform="translate(53.067 249.793)">
          <g id="Group_215" data-name="Group 215">
            <path id="Path_545" data-name="Path 545" d="M52.112,447.08c0,.184,11.691.333,26.11.333s26.114-.149,26.114-.333-11.69-.333-26.114-.333S52.112,446.9,52.112,447.08Z" transform="translate(-52.112 -446.747)" fill="#fafafa"/>
          </g>
        </g>
        <g id="Group_218" data-name="Group 218" transform="translate(53.86 256.176)">
          <g id="Group_217" data-name="Group 217">
            <path id="Path_546" data-name="Path 546" d="M53.856,451.582c0,.184,10.961.333,24.478.333s24.481-.149,24.481-.333-10.958-.333-24.481-.333S53.856,451.4,53.856,451.582Z" transform="translate(-53.856 -451.249)" fill="#fafafa"/>
          </g>
        </g>
        <g id="Group_220" data-name="Group 220" transform="translate(95.524 233.185)">
          <g id="Group_219" data-name="Group 219">
            <path id="Path_547" data-name="Path 547" d="M58.864,435.033c-.184,0-.333,3.664-.333,8.179s.149,8.179.333,8.179.333-3.661.333-8.179S59.047,435.033,58.864,435.033Z" transform="translate(-58.531 -435.033)" fill="#fafafa"/>
          </g>
        </g>
        <g id="Group_222" data-name="Group 222" transform="translate(76.497 233.185)">
          <g id="Group_221" data-name="Group 221">
            <path id="Path_548" data-name="Path 548" d="M72.284,435.033c-.184,0-.333,3.793-.333,8.47s.149,8.471.333,8.471.333-3.791.333-8.471S72.468,435.033,72.284,435.033Z" transform="translate(-71.951 -435.033)" fill="#fafafa"/>
          </g>
        </g>
        <g id="Group_224" data-name="Group 224" transform="translate(58.636 233.042)">
          <g id="Group_223" data-name="Group 223">
            <path id="Path_549" data-name="Path 549" d="M84.882,434.932c-.183,0-.333,3.868-.333,8.638s.15,8.64.333,8.64.333-3.868.333-8.64S85.066,434.932,84.882,434.932Z" transform="translate(-84.549 -434.932)" fill="#fafafa"/>
          </g>
        </g>
        <g id="Group_226" data-name="Group 226" transform="translate(48.44 232.852)">
          <g id="Group_225" data-name="Group 225">
            <path id="Path_550" data-name="Path 550" d="M49.008,435.131c0,.184,13.713.333,30.624.333s30.628-.149,30.628-.333-13.71-.333-30.628-.333S49.008,434.948,49.008,435.131Z" transform="translate(-49.008 -434.798)" fill="#fafafa"/>
          </g>
        </g>
      </g>
      <g id="Group_232" data-name="Group 232" transform="translate(35.941 56.029)">
        <g id="Group_231" data-name="Group 231">
          <path id="Path_558" data-name="Path 558" d="M435.058,321.393a41.246,41.246,0,0,0-10.07-4.375l-2.074-9.968-16.842-.295-2.424,9.888a41.208,41.208,0,0,0-10.218,4.019l-8.512-5.579-12.116,11.7,5.276,8.7a41.238,41.238,0,0,0-4.377,10.073l-9.967,2.074-.3,16.84,9.889,2.424a41.227,41.227,0,0,0,4.019,10.218l-5.579,8.512,11.7,12.118,8.7-5.277a41.279,41.279,0,0,0,10.072,4.377l2.076,9.968,16.84.295,2.424-9.889A41.284,41.284,0,0,0,433.8,393.2l8.511,5.579,12.118-11.7-5.276-8.7a41.285,41.285,0,0,0,4.377-10.072l9.967-2.074.3-16.842-9.889-2.424a41.281,41.281,0,0,0-4.019-10.218l5.579-8.511-11.7-12.118-8.7,5.276Zm-8.979,22.435a18.069,18.069,0,1,1-25.548-.448A18.069,18.069,0,0,1,426.079,343.827Z" transform="translate(-363.436 -306.754)" fill="#ebebeb"/>
        </g>
      </g>
      <g id="Group_236" data-name="Group 236" transform="translate(0 156.682)">
        <g id="Group_235" data-name="Group 235">
          <path id="Path_560" data-name="Path 560" d="M459.96,384.576a19.278,19.278,0,0,0-4.7-2.042l-.967-4.649-7.854-.138-1.131,4.612a19.24,19.24,0,0,0-4.765,1.874l-3.97-2.6-5.651,5.457,2.461,4.058a19.2,19.2,0,0,0-2.042,4.7l-4.648.967-.139,7.854,4.612,1.13a19.222,19.222,0,0,0,1.874,4.765l-2.6,3.971,5.456,5.651,4.059-2.461a19.2,19.2,0,0,0,4.7,2.04l.967,4.65,7.854.138,1.13-4.612a19.259,19.259,0,0,0,4.767-1.876l3.968,2.6,5.651-5.457-2.46-4.058a19.279,19.279,0,0,0,2.042-4.7l4.647-.967.139-7.854-4.612-1.131a19.3,19.3,0,0,0-1.874-4.765l2.6-3.97-5.457-5.651-4.058,2.461Zm-4.188,10.463a8.426,8.426,0,1,1-11.915-.21A8.426,8.426,0,0,1,455.772,395.039Z" transform="translate(-426.557 -377.748)" fill="#ebebeb"/>
        </g>
      </g>
      <g id="Group_238" data-name="Group 238" transform="translate(342.82 0)">
        <g id="Group_237" data-name="Group 237">
          <path id="Path_561" data-name="Path 561" d="M218.158,274.062a19.221,19.221,0,0,0-4.7-2.04l-.967-4.649-7.854-.138-1.13,4.611a19.232,19.232,0,0,0-4.767,1.876l-3.97-2.6-5.651,5.457,2.461,4.058a19.279,19.279,0,0,0-2.042,4.7l-4.647.968-.139,7.853,4.612,1.131a19.22,19.22,0,0,0,1.874,4.765l-2.6,3.97,5.456,5.651,4.059-2.46a19.25,19.25,0,0,0,4.7,2.04l.967,4.649,7.854.138,1.13-4.612a19.307,19.307,0,0,0,4.767-1.874l3.968,2.6,5.653-5.456-2.461-4.059a19.233,19.233,0,0,0,2.042-4.7l4.649-.967.137-7.854-4.612-1.13a19.277,19.277,0,0,0-1.874-4.765l2.6-3.97-5.456-5.651-4.059,2.46Zm-4.188,10.463a8.427,8.427,0,1,1-11.915-.21A8.426,8.426,0,0,1,213.97,284.525Z" transform="translate(-184.755 -267.235)" fill="#ebebeb"/>
        </g>
      </g>
    </g>
    <g id="Floor" transform="translate(54.988 592.791)">
      <g id="Group_242" data-name="Group 242">
        <g id="Group_241" data-name="Group 241">
          <path id="Path_563" data-name="Path 563" d="M32.66,465.087c0,.2,139.24.369,310.96.369,171.779,0,310.989-.164,310.989-.369s-139.21-.37-310.989-.37C171.9,464.717,32.66,464.883,32.66,465.087Z" transform="translate(-32.66 -464.717)" fill="#263238"/>
        </g>
      </g>
    </g>
    <g id="Device" transform="translate(42.164)">
      <g id="Group_251" data-name="Group 251" transform="translate(112.104 0)">
        <g id="Group_250" data-name="Group 250">
          <g id="Group_249" data-name="Group 249">
            <path id="Path_564" data-name="Path 564" d="M268.045,519.825l167.737-.1c20.173-.01,36.52-15.692,36.518-35.029l-.082-403.079c0-19.348-16.375-35.028-36.56-35.018L267.919,46.7c-20.174.011-36.519,15.693-36.516,35.03l.082,403.08C231.489,504.157,247.861,519.836,268.045,519.825Z" transform="translate(-231.403 -46.603)" fill="#455a64"/>
            <g id="Group_248" data-name="Group 248" transform="translate(11.121 14.257)">
              <path id="Path_565" data-name="Path 565" d="M264.817,56.754l32.521-.018,94.979-.054,11.437-.006,28.465-.017c14.137-.007,25.6,10.974,25.6,24.525l.081,393.434c0,13.545-11.446,24.526-25.574,24.535l-167.4.094c-14.135.009-25.6-10.972-25.6-24.523l-.079-393.436C239.24,67.743,250.687,56.762,264.817,56.754Z" transform="translate(-239.243 -56.659)" fill="#fff"/>
            </g>
          </g>
        </g>
      </g>
      <g id="Group_276" data-name="Group 276" transform="translate(150.2 197.072)">
        <g id="Group_252" data-name="Group 252" transform="translate(0)">
          <rect id="Rectangle_7323" data-name="Rectangle 7323" width="131.886" height="120.892" fill="#d10248"/>
        </g>
        <g id="Group_253" data-name="Group 253" transform="translate(0)" opacity="0.3">
          <rect id="Rectangle_7324" data-name="Rectangle 7324" width="131.886" height="120.892"/>
        </g>
        <g id="Group_254" data-name="Group 254" transform="translate(53.581)">
          <rect id="Rectangle_7325" data-name="Rectangle 7325" width="111.123" height="120.892" fill="#d10248"/>
        </g>
        <g id="Group_256" data-name="Group 256" transform="translate(53.211 0)">
          <g id="Group_255" data-name="Group 255">
            <path id="Path_566" data-name="Path 566" d="M336.762,306.714c.2,0,.369-27.113.369-60.553s-.166-60.557-.369-60.557-.37,27.108-.37,60.557S336.558,306.714,336.762,306.714Z" transform="translate(-336.392 -185.604)" fill="#263238"/>
          </g>
        </g>
        <g id="Group_266" data-name="Group 266" transform="translate(11.842 88.923)">
          <g id="Group_259" data-name="Group 259" transform="translate(0 16.225)">
            <path id="Path_568" data-name="Path 568" d="M360.975,267.743h6.946a.532.532,0,1,0,0-1.063h-6.414V260.3a.532.532,0,0,0-1.063,0v6.912A.532.532,0,0,0,360.975,267.743Z" transform="translate(-360.443 -259.768)" fill="#fff"/>
          </g>
          <g id="Group_260" data-name="Group 260">
            <path id="Path_569" data-name="Path 569" d="M360.846,257.147a.532.532,0,0,0,.532-.532v-7.228h6.6a.532.532,0,0,0,0-1.063h-7.129a.532.532,0,0,0-.532.532v7.759A.532.532,0,0,0,360.846,257.147Z" transform="translate(-360.314 -248.324)" fill="#fff"/>
          </g>
          <g id="Group_261" data-name="Group 261" transform="translate(16.048)">
            <path id="Path_570" data-name="Path 570" d="M356.644,257.328a.532.532,0,0,0,.532-.532v-7.941a.532.532,0,0,0-.532-.532h-7.089a.532.532,0,0,0,0,1.063h6.557V256.8A.532.532,0,0,0,356.644,257.328Z" transform="translate(-349.023 -248.324)" fill="#fff"/>
          </g>
          <g id="Group_262" data-name="Group 262" transform="translate(16.231 16.589)">
            <path id="Path_571" data-name="Path 571" d="M349.555,267.636h6.906a.532.532,0,0,0,.532-.532v-6.547a.532.532,0,0,0-1.063,0v6.016h-6.374a.532.532,0,1,0,0,1.063Z" transform="translate(-349.023 -260.025)" fill="#fff"/>
          </g>
          <g id="Group_263" data-name="Group 263" transform="translate(7.131 4.733)">
            <path id="Path_572" data-name="Path 572" d="M354.685,266.19h8.732a.531.531,0,0,0,.532-.532V252.194a.532.532,0,0,0-.532-.532h-8.732a.532.532,0,0,0-.532.532v13.465A.531.531,0,0,0,354.685,266.19Zm8.2-1.063h-7.669v-12.4h7.669Z" transform="translate(-354.153 -251.662)" fill="#fff"/>
          </g>
          <g id="Group_264" data-name="Group 264" transform="translate(11.168 15.739)">
            <path id="Path_573" data-name="Path 573" d="M357.153,260.176a.753.753,0,1,0,.753-.751A.753.753,0,0,0,357.153,260.176Z" transform="translate(-357.153 -259.425)" fill="#fff"/>
          </g>
          <g id="Group_265" data-name="Group 265" transform="translate(10.516 6.776)">
            <path id="Path_574" data-name="Path 574" d="M357.073,254.166h1.962a.532.532,0,0,0,0-1.063h-1.962a.532.532,0,1,0,0,1.063Z" transform="translate(-356.541 -253.103)" fill="#fff"/>
          </g>
        </g>
        <g id="Group_267" data-name="Group 267" transform="translate(85.233 60.032)">
          <path id="Path_575" data-name="Path 575" d="M273.394,234.74H329.45a3.4,3.4,0,0,0,3.4-3.4h0a3.4,3.4,0,0,0-3.4-3.4H273.394a3.4,3.4,0,0,0-3.4,3.4h0A3.4,3.4,0,0,0,273.394,234.74Z" transform="translate(-269.997 -227.946)" fill="#fff"/>
        </g>
        <g id="Group_268" data-name="Group 268" transform="translate(126.169 70.518)">
          <rect id="Rectangle_7326" data-name="Rectangle 7326" width="21.914" height="6.794" rx="2.396" fill="#fff"/>
        </g>
        <g id="Group_270" data-name="Group 270" transform="translate(131.885 88.75)">
          <g id="Group_269" data-name="Group 269">
            <path id="Path_576" data-name="Path 576" d="M271.7,248.572c0,.2,3.087.369,6.892.369s6.893-.166,6.893-.369-3.085-.37-6.893-.37S271.7,248.368,271.7,248.572Z" transform="translate(-271.699 -248.202)" fill="#fff"/>
          </g>
        </g>
        <g id="Group_274" data-name="Group 274" transform="translate(63.666 105.097)">
          <g id="Group_271" data-name="Group 271" transform="translate(21.766 0.098)">
            <rect id="Rectangle_7327" data-name="Rectangle 7327" width="7.787" height="7.787" rx="2.01" fill="#fff"/>
          </g>
          <g id="Group_272" data-name="Group 272" transform="translate(10.883 0.098)">
            <rect id="Rectangle_7328" data-name="Rectangle 7328" width="7.787" height="7.787" rx="2.01" fill="#fff"/>
          </g>
          <g id="Group_273" data-name="Group 273" transform="translate(0)">
            <rect id="Rectangle_7329" data-name="Rectangle 7329" width="7.787" height="7.787" rx="2.01" fill="#fff"/>
          </g>
        </g>
      </g>
      <g id="Group_277" data-name="Group 277" transform="translate(10.429 141.118)">
        <path id="Path_577" data-name="Path 577" d="M431.045,155.45h56.813a4.655,4.655,0,0,0,4.656-4.656h0a4.655,4.655,0,0,0-4.656-4.656H431.045a4.655,4.655,0,0,0-4.656,4.656h0A4.655,4.655,0,0,0,431.045,155.45Z" transform="translate(-426.389 -146.138)" fill="#e0e0e0"/>
      </g>
      <g id="Group_278" data-name="Group 278" transform="translate(10.429 159.407)">
        <path id="Path_578" data-name="Path 578" d="M431.045,168.351h56.813a4.656,4.656,0,0,0,4.656-4.656h0a4.657,4.657,0,0,0-4.656-4.657H431.045a4.657,4.657,0,0,0-4.656,4.657h0A4.656,4.656,0,0,0,431.045,168.351Z" transform="translate(-426.389 -159.038)" fill="#e0e0e0"/>
      </g>
      <g id="Group_279" data-name="Group 279" transform="translate(50.133 177.302)">
        <path id="Path_579" data-name="Path 579" d="M431.045,180.972h17.11a4.655,4.655,0,0,0,4.656-4.656h0a4.655,4.655,0,0,0-4.656-4.656h-17.11a4.656,4.656,0,0,0-4.656,4.656h0A4.656,4.656,0,0,0,431.045,180.972Z" transform="translate(-426.389 -171.66)" fill="#e0e0e0"/>
      </g>
      <g id="Group_285" data-name="Group 285" transform="translate(156.595 75.719)">
        <path id="Path_582" data-name="Path 582" d="M275.208,114.107H405.4a7.049,7.049,0,0,0,7.048-7.049h0a7.048,7.048,0,0,0-7.048-7.048h-130.2a7.048,7.048,0,0,0-7.048,7.048h0A7.049,7.049,0,0,0,275.208,114.107Z" transform="translate(-268.16 -100.01)" fill="#e0e0e0"/>
      </g>
      <g id="Group_286" data-name="Group 286" transform="translate(183.324 104.849)">
        <path id="Path_583" data-name="Path 583" d="M294.061,134.653H370.8a7.048,7.048,0,0,0,7.048-7.048h0a7.048,7.048,0,0,0-7.048-7.049H294.061a7.048,7.048,0,0,0-7.048,7.049h0A7.048,7.048,0,0,0,294.061,134.653Z" transform="translate(-287.013 -120.556)" fill="#e0e0e0"/>
      </g>
      <g id="Group_288" data-name="Group 288" transform="translate(365.318 124.308)">
        <path id="Path_584" data-name="Path 584" d="M180.731,143.593h56.813a4.656,4.656,0,0,0,4.656-4.656h0a4.656,4.656,0,0,0-4.656-4.656H180.731a4.657,4.657,0,0,0-4.657,4.656h0A4.657,4.657,0,0,0,180.731,143.593Z" transform="translate(-176.074 -134.281)" fill="#e0e0e0"/>
      </g>
      <g id="Group_289" data-name="Group 289" transform="translate(365.318 142.597)">
        <path id="Path_585" data-name="Path 585" d="M180.731,156.494h56.813a4.657,4.657,0,0,0,4.656-4.656h0a4.658,4.658,0,0,0-4.656-4.657H180.731a4.658,4.658,0,0,0-4.657,4.657h0A4.658,4.658,0,0,0,180.731,156.494Z" transform="translate(-176.074 -147.181)" fill="#e0e0e0"/>
      </g>
      <g id="Group_290" data-name="Group 290" transform="translate(405.023 160.491)">
        <path id="Path_586" data-name="Path 586" d="M180.73,169.115h17.11a4.657,4.657,0,0,0,4.656-4.656h0a4.658,4.658,0,0,0-4.656-4.657H180.73a4.657,4.657,0,0,0-4.656,4.657h0A4.656,4.656,0,0,0,180.73,169.115Z" transform="translate(-176.074 -159.802)" fill="#e0e0e0"/>
      </g>
      <g id="Group_292" data-name="Group 292" transform="translate(0 317.386)">
        <path id="Path_587" data-name="Path 587" d="M438.4,279.777h56.813a4.655,4.655,0,0,0,4.656-4.656h0a4.655,4.655,0,0,0-4.656-4.656H438.4a4.655,4.655,0,0,0-4.656,4.656h0A4.656,4.656,0,0,0,438.4,279.777Z" transform="translate(-433.745 -270.465)" fill="#e0e0e0"/>
      </g>
      <g id="Group_293" data-name="Group 293" transform="translate(0 335.675)">
        <rect id="Rectangle_7333" data-name="Rectangle 7333" width="66.126" height="9.313" rx="3.284" fill="#e0e0e0"/>
      </g>
      <g id="Group_294" data-name="Group 294" transform="translate(39.703 353.569)">
        <path id="Path_588" data-name="Path 588" d="M438.4,305.3h17.108a4.656,4.656,0,0,0,4.656-4.656h0a4.657,4.657,0,0,0-4.656-4.657H438.4a4.658,4.658,0,0,0-4.657,4.657h0A4.658,4.658,0,0,0,438.4,305.3Z" transform="translate(-433.745 -295.986)" fill="#e0e0e0"/>
      </g>
      <g id="Group_300" data-name="Group 300" transform="translate(305.604 155.215)">
        <path id="Path_591" data-name="Path 591" d="M270.718,178.421a.708.708,0,0,0,.709-.709V156.79a.709.709,0,0,0-.709-.709h-20.96a.709.709,0,1,0,0,1.418h20.251v20.213A.707.707,0,0,0,270.718,178.421Z" transform="translate(-249.049 -156.081)" fill="#d10248"/>
      </g>
      <g id="Group_301" data-name="Group 301" transform="translate(141.494 155.197)">
        <path id="Path_592" data-name="Path 592" d="M365.537,178.445a.707.707,0,0,0,.709-.709v-20.25h20.213a.709.709,0,1,0,0-1.418H365.537a.709.709,0,0,0-.709.709v20.959A.708.708,0,0,0,365.537,178.445Z" transform="translate(-364.828 -156.068)" fill="#d10248"/>
      </g>
      <g id="Group_302" data-name="Group 302" transform="translate(141.494 330.632)">
        <path id="Path_593" data-name="Path 593" d="M365.51,302.149h20.96a.709.709,0,1,0,0-1.418H366.219V280.517a.709.709,0,0,0-1.418,0V301.44A.709.709,0,0,0,365.51,302.149Z" transform="translate(-364.801 -279.808)" fill="#d10248"/>
      </g>
      <g id="Group_303" data-name="Group 303" transform="translate(305.642 330.361)">
        <path id="Path_594" data-name="Path 594" d="M249.758,301.994H270.68a.709.709,0,0,0,.709-.709V280.326a.709.709,0,1,0-1.418,0v20.25H249.758a.709.709,0,1,0,0,1.418Z" transform="translate(-249.049 -279.617)" fill="#d10248"/>
      </g>
      <g id="Group_304" data-name="Group 304" transform="translate(212.818 401.206)">
        <ellipse id="Ellipse_34" data-name="Ellipse 34" cx="17.286" cy="17.286" rx="17.286" ry="17.286" transform="translate(31.9 45.23) rotate(-157.322)" fill="#e0e0e0"/>
      </g>
    </g>
    <g id="Box" transform="translate(136.528 386.159)">
      <g id="Group_337" data-name="Group 337" transform="translate(69.642)">
        <g id="Group_313" data-name="Group 313" transform="translate(0)">
          <rect id="Rectangle_7335" data-name="Rectangle 7335" width="225.419" height="206.63" fill="#d10248"/>
        </g>
        <g id="Group_314" data-name="Group 314" transform="translate(0)" opacity="0.3">
          <rect id="Rectangle_7336" data-name="Rectangle 7336" width="225.419" height="206.63"/>
        </g>
        <g id="Group_315" data-name="Group 315" transform="translate(91.581)">
          <rect id="Rectangle_7337" data-name="Rectangle 7337" width="189.932" height="206.63" fill="#d10248"/>
        </g>
        <g id="Group_317" data-name="Group 317" transform="translate(91.211 0)">
          <g id="Group_316" data-name="Group 316">
            <path id="Path_598" data-name="Path 598" d="M300.222,525.975c.2,0,.369-46.343.369-103.5,0-57.173-.164-103.506-.369-103.506s-.37,46.333-.37,103.506C299.852,479.632,300.018,525.975,300.222,525.975Z" transform="translate(-299.852 -318.973)" fill="#263238"/>
          </g>
        </g>
        <g id="Group_319" data-name="Group 319" transform="translate(0 103.132)">
          <g id="Group_318" data-name="Group 318">
            <path id="Path_599" data-name="Path 599" d="M298.371,392.084c0,.2,21.055.37,47.022.37s47.028-.166,47.028-.37-21.051-.369-47.028-.369S298.371,391.881,298.371,392.084Z" transform="translate(-298.371 -391.715)" fill="#263238"/>
          </g>
        </g>
        <g id="Group_327" data-name="Group 327" transform="translate(19.73 151.477)">
          <g id="Group_320" data-name="Group 320" transform="translate(0 27.732)">
            <path id="Path_600" data-name="Path 600" d="M341.834,460.024h11.874a1.418,1.418,0,1,0,0-2.836H343.251v-10.4a1.418,1.418,0,1,0-2.836,0v11.814A1.417,1.417,0,0,0,341.834,460.024Z" transform="translate(-340.416 -445.374)" fill="#fff"/>
          </g>
          <g id="Group_321" data-name="Group 321">
            <path id="Path_601" data-name="Path 601" d="M341.614,441.914a1.417,1.417,0,0,0,1.418-1.418V428.65H353.8a1.418,1.418,0,1,0,0-2.836H341.614a1.417,1.417,0,0,0-1.418,1.418V440.5A1.417,1.417,0,0,0,341.614,441.914Z" transform="translate(-340.196 -425.814)" fill="#fff"/>
          </g>
          <g id="Group_322" data-name="Group 322" transform="translate(27.431)">
            <path id="Path_602" data-name="Path 602" d="M334.431,442.225a1.416,1.416,0,0,0,1.418-1.418V427.232a1.416,1.416,0,0,0-1.418-1.418H322.315a1.418,1.418,0,1,0,0,2.836h10.7v12.157A1.416,1.416,0,0,0,334.431,442.225Z" transform="translate(-320.897 -425.814)" fill="#fff"/>
          </g>
          <g id="Group_323" data-name="Group 323" transform="translate(27.743 28.355)">
            <path id="Path_603" data-name="Path 603" d="M322.315,459.84h11.8a1.416,1.416,0,0,0,1.418-1.418v-11.19a1.418,1.418,0,1,0-2.836,0V457H322.315a1.418,1.418,0,1,0,0,2.836Z" transform="translate(-320.897 -445.814)" fill="#fff"/>
          </g>
          <g id="Group_324" data-name="Group 324" transform="translate(12.19 8.091)">
            <path id="Path_604" data-name="Path 604" d="M331.084,457.371h14.925a1.416,1.416,0,0,0,1.418-1.418V432.939a1.416,1.416,0,0,0-1.418-1.418H331.084a1.416,1.416,0,0,0-1.418,1.418v23.015A1.416,1.416,0,0,0,331.084,457.371Zm13.507-2.836H332.5V434.357h12.089Z" transform="translate(-329.666 -431.521)" fill="#fff"/>
          </g>
          <g id="Group_325" data-name="Group 325" transform="translate(19.599 27.41)">
            <circle id="Ellipse_35" data-name="Ellipse 35" cx="1.286" cy="1.286" r="1.286" fill="#fff"/>
          </g>
          <g id="Group_326" data-name="Group 326" transform="translate(17.975 11.582)">
            <path id="Path_605" data-name="Path 605" d="M335.164,436.819h3.356a1.418,1.418,0,0,0,0-2.836h-3.356a1.418,1.418,0,0,0,0,2.836Z" transform="translate(-333.746 -433.983)" fill="#fff"/>
          </g>
        </g>
        <g id="Group_328" data-name="Group 328" transform="translate(145.68 102.607)">
          <path id="Path_606" data-name="Path 606" d="M191.991,402.957H287.8a5.806,5.806,0,0,0,5.806-5.806h0a5.806,5.806,0,0,0-5.806-5.806H191.991a5.806,5.806,0,0,0-5.806,5.806h0A5.806,5.806,0,0,0,191.991,402.957Z" transform="translate(-186.185 -391.345)" fill="#fff"/>
        </g>
        <g id="Group_329" data-name="Group 329" transform="translate(215.648 120.531)">
          <path id="Path_607" data-name="Path 607" d="M191.992,415.6h25.843a5.806,5.806,0,0,0,5.806-5.806h0a5.806,5.806,0,0,0-5.806-5.806H191.992a5.806,5.806,0,0,0-5.807,5.806h0A5.806,5.806,0,0,0,191.992,415.6Z" transform="translate(-186.185 -403.987)" fill="#fff"/>
        </g>
        <g id="Group_331" data-name="Group 331" transform="translate(225.419 151.954)">
          <g id="Group_330" data-name="Group 330">
            <path id="Path_608" data-name="Path 608" d="M189.094,426.52c0,.2,5.276.37,11.78.37s11.78-.166,11.78-.37-5.274-.369-11.78-.369S189.094,426.315,189.094,426.52Z" transform="translate(-189.094 -426.151)" fill="#fff"/>
          </g>
        </g>
        <g id="Group_335" data-name="Group 335" transform="translate(108.817 179.632)">
          <g id="Group_332" data-name="Group 332" transform="translate(37.202 0.167)">
            <rect id="Rectangle_7338" data-name="Rectangle 7338" width="13.31" height="13.31" rx="2.01" fill="#fff"/>
          </g>
          <g id="Group_333" data-name="Group 333" transform="translate(18.601 0.167)">
            <rect id="Rectangle_7339" data-name="Rectangle 7339" width="13.31" height="13.31" rx="2.01" fill="#fff"/>
          </g>
          <g id="Group_334" data-name="Group 334" transform="translate(0)">
            <rect id="Rectangle_7340" data-name="Rectangle 7340" width="13.31" height="13.31" rx="2.01" fill="#fff"/>
          </g>
        </g>
        <g id="Group_336" data-name="Group 336" transform="translate(163.192 49.672)">
          <rect id="Rectangle_7341" data-name="Rectangle 7341" width="87.83" height="30.079" rx="11" fill="#fff"/>
        </g>
      </g>
      <g id="Group_344" data-name="Group 344" transform="translate(0 112.914)">
        <g id="Group_339" data-name="Group 339" transform="translate(31.838 19.396)">
          <g id="Group_338" data-name="Group 338">
            <path id="Path_609" data-name="Path 609" d="M394.315,418.929c-8.861,6.387-9.3,19.8-1.941,27.34,3.189,3.267-1.819,8.284-5.012,5.013a25.557,25.557,0,0,1-7.157-19.693,25.256,25.256,0,0,1,10.533-18.783c1.554-1.12,3.948-.268,4.849,1.272a3.624,3.624,0,0,1-1.272,4.85Z" transform="translate(-380.128 -412.295)" fill="#d10248"/>
          </g>
        </g>
        <g id="Group_341" data-name="Group 341" transform="translate(16.411 10.429)">
          <g id="Group_340" data-name="Group 340">
            <path id="Path_610" data-name="Path 610" d="M406.495,412.6c-14.185,10.158-15.234,31.728-3.278,43.9,3.2,3.258-1.81,8.274-5.013,5.013a37.176,37.176,0,0,1-5.151-44.556,35.591,35.591,0,0,1,9.865-10.483c1.557-1.114,3.946-.272,4.849,1.272a3.622,3.622,0,0,1-1.272,4.85Z" transform="translate(-387.901 -405.97)" fill="#d10248"/>
          </g>
        </g>
        <g id="Group_343" data-name="Group 343">
          <g id="Group_342" data-name="Group 342">
            <path id="Path_611" data-name="Path 611" d="M419.386,405.245c-15.111,10.778-19.769,31.458-12.888,48.142a39.128,39.128,0,0,0,8.266,12.391c3.206,3.252-1.8,8.268-5.013,5.012-15.009-15.228-17.763-40.063-6.576-58.289a46.032,46.032,0,0,1,12.632-13.377c1.56-1.113,3.946-.275,4.85,1.272a3.621,3.621,0,0,1-1.272,4.849Z" transform="translate(-396.329 -398.614)" fill="#d10248"/>
          </g>
        </g>
      </g>
    </g>
    <g id="Group_802" data-name="Group 802" transform="translate(651.974 190.585)">
      <g id="Group_801" data-name="Group 801" transform="translate(0 0)">
        <g id="Group_798" data-name="Group 798" transform="translate(0)">
          <path id="Path_727" data-name="Path 727" d="M564.254,814.845s27.615,27.739,28.961,38.85-13.639,28.456-13.639,28.456Z" transform="translate(-498.052 -753.872)" fill="#ed7d2b"/>
          <path id="Path_728" data-name="Path 728" d="M740.935,1786.229s-1.005,15.659-4.036,15.877c-.4.03-15.368,0-15.368,0l-19.1-.152s.135-4.6,5.721-5.564,14.941-4.865,18.34-12.238C730.064,1776.393,740.935,1786.229,740.935,1786.229Z" transform="translate(-688.456 -1421.084)" fill="#163560"/>
          <path id="Path_729" data-name="Path 729" d="M603.473,1786.528s-1.005,15.659-4.036,15.877c-.4.029-15.368,0-15.368,0l-19.1-.152s.135-4.6,5.721-5.564,14.941-4.865,18.34-12.238C592.6,1776.691,603.473,1786.528,603.473,1786.528Z" transform="translate(-508.445 -1421.29)" fill="#163560"/>
          <path id="Path_730" data-name="Path 730" d="M561.413,1200.445s4.927,31.965,23.442,88.731,21,81.335,21,81.335l20-.517s.306-61.993-8.222-90.537S616,1176.618,616,1176.618Z" transform="translate(-529.726 -1003.663)" fill="#163560"/>
          <path id="Path_731" data-name="Path 731" d="M613.787,1181.823a775.547,775.547,0,0,0,7.391,107.295c8.2,59.142,5.324,84.233,5.324,84.233l19.953.707s12.053-59.121,8.7-88.721,16.55-101.511,16.55-101.511Z" transform="translate(-591.781 -1007.257)" fill="#1c468a"/>
          <path id="Path_732" data-name="Path 732" d="M701.294,764.93l-10.647,6.948-15.359-2.9c.216-1.24,1.241-6.379,2.175-11.033.056-.275.113-.549.166-.817.8-3.96,1.49-7.362,1.49-7.362l14.364-6.3,5.356-2.349c-.014.083-.424,4.4-.481,5.025C697.33,757.324,701.294,764.93,701.294,764.93Z" transform="translate(-640.415 -702.966)" fill="#ffb27d"/>
          <path id="Path_733" data-name="Path 733" d="M676.358,795.7c.3-.125,18.515-5.457,20.491-4.8s3.138,4.487,3.138,4.487L670.2,802.048S672.551,797.288,676.358,795.7Z" transform="translate(-637.533 -737.297)" fill="#e36791"/>
          <path id="Path_734" data-name="Path 734" d="M655.476,927.724c-3.116,14.07-54.476,15.628-67.686,2.821-1.5-1.459-1.562-8.236-.974-17.372,1.149-17.848,4.775-44.693,4.944-58.411a108.633,108.633,0,0,1,2.233-19.549,158.812,158.812,0,0,1,6.565-23.391s25.1-8.055,29.792-6.665C652.948,811.848,658.593,913.653,655.476,927.724Z" transform="translate(-567.895 -747.071)" fill="#e36791"/>
          <path id="Path_735" data-name="Path 735" d="M729.65,974.71c1.15-17.849,4.775-44.693,4.944-58.412a108.645,108.645,0,0,1,2.233-19.549l15.1-2.63S766.544,954.409,729.65,974.71Z" transform="translate(-710.728 -808.608)" fill="#dc4578"/>
          <path id="Path_736" data-name="Path 736" d="M726.291,999.043c-10.318-5.16-26.792-23.365-27.944-28.4-7.343,1.158-7.755,7.349-7.755,7.349,10.524,22.08,31.366,35.287,35.7,37.35A119.418,119.418,0,0,1,726.291,999.043Z" transform="translate(-670.148 -861.447)" fill="#163560"/>
          <path id="Path_737" data-name="Path 737" d="M763.39,1068.937a3.551,3.551,0,0,1-1.141,4.107c-2.164,1.646-3.57,4.317-3.079,6.272s5.222,5.154,6.864,4.643,4.992-3.077,4.635-4.109,2.268-9.042-1.729-12.136S763.39,1068.937,763.39,1068.937Z" transform="translate(-736.244 -927.698)" fill="#ffb27d"/>
          <path id="Path_738" data-name="Path 738" d="M768.013,817.871s-15.239,2.12-26.537,19.23c-11.507,17.427-19.506,30.085-17.359,36.318S745.9,901.294,749.3,901.3s8.877-2.449,9.2-8c0,0-14.639-20.909-11.9-24.014,1.17-1.327,18.851-14.851,21.24-8.674C771.79,870.83,768.013,817.871,768.013,817.871Z" transform="translate(-723.768 -755.962)" fill="#e36791"/>
          <path id="Path_739" data-name="Path 739" d="M706.738,751.575c-3.162,5.331-14.916,9.922-19.817,11.608.056-.275.113-.549.166-.817.8-3.96,1.49-7.362,1.49-7.362l14.364-6.3C706.114,748.667,708.044,749.381,706.738,751.575Z" transform="translate(-649.873 -708.203)" fill="#fca56b"/>
          <path id="Path_740" data-name="Path 740" d="M662.938,681.394s23.1,7.261,27.4-7.195,10.178-23.254-4.389-28.5-19.087-.588-21.7,3.888S657.04,679.132,662.938,681.394Z" transform="translate(-629.641 -635.477)" fill="#ffb27d"/>
          <path id="Path_741" data-name="Path 741" d="M629.812,630.581s1.438,16.836,4.921,16.112,6.64-1.258,6.12,3.815-5.029,11.119,7.9,12.538c10.7,1.174,23.673-27.408,20.738-32.653C661.021,615.261,617.562,612.116,629.812,630.581Z" transform="translate(-594.289 -617.864)" fill="#163560"/>
        </g>
        <path id="Path_742" data-name="Path 742" d="M713.231,836.737c-5.778-9.842-15.786-13.413-22.527-12.576-7.4,2.465-8.747,7.061-8.747,7.061,10.844-3.771,28.33,13.563,30.627,27.389C715.913,855.1,713.231,836.737,713.231,836.737Z" transform="translate(-655.437 -760.223)" fill="#163560"/>
        <rect id="Rectangle_7355" data-name="Rectangle 7355" width="73.755" height="96.659" rx="23.437" transform="translate(41.102 64.256)" fill="#d10248"/>
      </g>
    </g>
  </g>
</svg>
