<svg xmlns="http://www.w3.org/2000/svg" width="1000" height="800" viewBox="0 0 1000 800">
  <g id="intro-img-1" transform="translate(0 -0.13)">
    <rect id="BG" width="1000" height="800" transform="translate(0 0.13)" fill="#fff" opacity="0"/>
    <g id="Content" transform="translate(-0.148 -18.19)">
      <rect id="Rectangle_7357" data-name="Rectangle 7357" width="853.373" height="2.015" rx="1.008" transform="translate(926.521 715.865) rotate(180)" fill="#2e3552"/>
      <g id="Background_Complete" data-name="Background Complete" transform="translate(227.573 433.126)">
        <g id="Group_227" data-name="Group 227" transform="translate(0 4.714)">
          <g id="Group_213" data-name="Group 213">
            <g id="Group_148" data-name="Group 148" transform="translate(4.995 142.316)">
              <path id="Path_496" data-name="Path 496" d="M49.992,377.714a45.038,45.038,0,0,0-19.265-6.631c-3.149-.323-6.588-.231-9.113,1.676a1.876,1.876,0,0,0-.939,1.664,2.037,2.037,0,0,0,.892,1.138c7.839,5.979,19.7,6.734,28.425,2.152" transform="translate(-20.658 -370.94)" fill="#e0e0e0"/>
            </g>
            <g id="Group_149" data-name="Group 149" transform="translate(13.358 118.343)">
              <path id="Path_497" data-name="Path 497" d="M47.033,384.234A94.031,94.031,0,0,1,34.59,373.286a31.476,31.476,0,0,1-7.8-14.427c-.335-1.645-.438-3.523.617-4.828,9.919,7.747,17.711,17.765,19.628,30.2" transform="translate(-26.557 -354.031)" fill="#e0e0e0"/>
            </g>
            <g id="Group_150" data-name="Group 150" transform="translate(33.594 119.198)">
              <path id="Path_498" data-name="Path 498" d="M41.461,384.453c-.746-5.427-1.015-11,.231-16.337s4.147-10.439,8.7-13.482c1.714,4.007.977,8.621-.23,12.808a62.287,62.287,0,0,1-8.629,18.167" transform="translate(-40.83 -354.634)" fill="#e0e0e0"/>
            </g>
            <g id="Group_151" data-name="Group 151" transform="translate(19.662 166.438)">
              <path id="Path_499" data-name="Path 499" d="M55.291,387.954c-5.9.717-11.043,3.829-15.451,7.819A29.229,29.229,0,0,0,31,410.945c5.79-.357,10.7-4.441,14.263-9.018s6.031-9.6,9.944-13.883" transform="translate(-31.003 -387.954)" fill="#e0e0e0"/>
            </g>
            <g id="Group_152" data-name="Group 152" transform="translate(43.404 133.18)">
              <path id="Path_500" data-name="Path 500" d="M50.406,400.542a38.11,38.11,0,0,1,4.4-36.045c3.363,11.962,2.128,25.473-4.4,36.045" transform="translate(-47.749 -364.496)" fill="#e0e0e0"/>
            </g>
            <g id="Group_153" data-name="Group 153" transform="translate(32.161 184.47)">
              <path id="Path_501" data-name="Path 501" d="M66.567,400.724A27.552,27.552,0,0,0,40.22,415.89c-.328.652-.615,1.482-.179,2.066a1.961,1.961,0,0,0,1.748.515c5.192-.337,9.794-3.461,13.591-7.018s7.106-7.667,11.3-10.744" transform="translate(-39.819 -400.673)" fill="#e0e0e0"/>
            </g>
            <g id="Group_154" data-name="Group 154" transform="translate(56.292 147.183)">
              <path id="Path_502" data-name="Path 502" d="M59.045,410.879a49.067,49.067,0,0,1-.489-27.411c.965-3.527,2.586-7.242,5.85-8.9a1.148,1.148,0,0,1,.895-.157,1.184,1.184,0,0,1,.566.655,16.518,16.518,0,0,1,1.379,7.864,49.406,49.406,0,0,1-1.233,7.961c-1.026,4.866-1.574,10.095-4.242,14.29a29.243,29.243,0,0,0-1.7,3.139c-.5,1.066-.509,1.442-.971,2.29" transform="translate(-56.839 -374.373)" fill="#e0e0e0"/>
            </g>
            <g id="Group_155" data-name="Group 155" transform="translate(91.559 158.56)">
              <path id="Path_503" data-name="Path 503" d="M82.659,412.593c-2.519-9.583.155-21.2,6.194-29.057.445-.58,1.034-1.2,1.761-1.133,1.112.1,1.4,1.585,1.351,2.7a52.506,52.506,0,0,1-9.306,27.488" transform="translate(-81.715 -382.398)" fill="#e0e0e0"/>
            </g>
            <g id="Group_156" data-name="Group 156" transform="translate(95.571 180.805)">
              <path id="Path_504" data-name="Path 504" d="M84.544,408.135c11.643,3.03,25,.084,34.684-7.055a28.087,28.087,0,0,0-18.777-2.305c-6.272,1.435-12,4.245-15.907,9.36" transform="translate(-84.544 -398.087)" fill="#e0e0e0"/>
            </g>
            <g id="Group_157" data-name="Group 157" transform="translate(98.155 166.268)">
              <path id="Path_505" data-name="Path 505" d="M86.367,406.037c6.522-10.632,19.024-17.572,31.48-18.2-1.435,5.067-5.6,9-10.3,11.383s-9.941,3.415-15.111,4.419c-2.012.391-4.769.82-6.074,2.4" transform="translate(-86.367 -387.834)" fill="#e0e0e0"/>
            </g>
            <g id="Group_158" data-name="Group 158" transform="translate(88.63 116.834)">
              <path id="Path_506" data-name="Path 506" d="M84.171,389.639c1.767-6.05,3.542-12.153,4.026-18.437s-.411-12.842-3.672-18.235c-6.091,11.787-6.707,25.558-.537,37.3" transform="translate(-79.648 -352.967)" fill="#e0e0e0"/>
            </g>
            <g id="Group_159" data-name="Group 159" transform="translate(113.66 118.404)">
              <path id="Path_507" data-name="Path 507" d="M97.3,378.811c7.123-12.946,21.656-23.288,36.362-24.737-5.673,14.125-21.143,25.041-36.362,24.737" transform="translate(-97.303 -354.074)" fill="#e0e0e0"/>
            </g>
            <g id="Group_160" data-name="Group 160" transform="translate(109.178 143.554)">
              <path id="Path_508" data-name="Path 508" d="M94.142,373.937c10.623,1.619,19.674,8.4,29.6,12.518a13.264,13.264,0,0,0,6.692,1.282c2.278-.3,4.527-1.828,5.037-4.069a5.841,5.841,0,0,0-1.758-5.2,14.339,14.339,0,0,0-4.86-2.949c-10.813-4.5-22.409-4.613-33.8-1.884" transform="translate(-94.142 -371.813)" fill="#e0e0e0"/>
            </g>
            <g id="Group_161" data-name="Group 161" transform="translate(103.031 152.616)">
              <path id="Path_509" data-name="Path 509" d="M89.806,378.718c2.4.689,3.227,1.934,5.131,3.556a55.37,55.37,0,0,0,22.449,11.532c.856.213,1.982.3,2.406-.478.371-.676-.1-1.5-.58-2.1-3.451-4.319-8.373-7.272-13.554-9.2s-9.669-4.255-15.852-3.756" transform="translate(-89.806 -378.205)" fill="#e0e0e0"/>
            </g>
            <g id="Group_162" data-name="Group 162" transform="translate(96.094 106.978)">
              <path id="Path_510" data-name="Path 510" d="M84.913,347.165a42.486,42.486,0,0,0,32.571,11.081,2.225,2.225,0,0,0,1.482-.533c.821-.892-.163-2.268-1.119-3.013-9.576-7.466-21.174-10.561-32.933-7.535" transform="translate(-84.913 -346.015)" fill="#e0e0e0"/>
            </g>
            <g id="Group_163" data-name="Group 163" transform="translate(104.318 96.273)">
              <path id="Path_511" data-name="Path 511" d="M90.714,347.309a45.393,45.393,0,0,1,40.642-6.706c-5.118,5.044-12.22,7.758-19.367,8.5a61.324,61.324,0,0,1-21.275-1.8" transform="translate(-90.714 -338.464)" fill="#e0e0e0"/>
            </g>
            <g id="Group_164" data-name="Group 164" transform="translate(95.56 55.694)">
              <path id="Path_512" data-name="Path 512" d="M90.027,338.587c-.941-9.557-.33-17.1-.994-26.705-.054-.767-.218-1.69-.936-1.966-1-.386-1.832.844-2.161,1.863a30.609,30.609,0,0,0,4.076,26.6" transform="translate(-84.536 -309.843)" fill="#e0e0e0"/>
            </g>
            <g id="Group_165" data-name="Group 165" transform="translate(100.363 55.448)">
              <path id="Path_513" data-name="Path 513" d="M87.924,339.716c6.478-4.007,11.338-9.238,15.832-15.389,3.126-4.279,5.763-9.4,5.053-14.656-4.392-.088-8.565,2.334-11.422,5.671s-4.554,7.507-5.821,11.714-2.155,8.526-3.642,12.659" transform="translate(-87.924 -309.669)" fill="#e0e0e0"/>
            </g>
            <g id="Group_166" data-name="Group 166" transform="translate(115.714 57.234)">
              <path id="Path_514" data-name="Path 514" d="M98.955,334.868a127.666,127.666,0,0,0,38.963-22.975c-4.655-1.876-9.983-.753-14.636,1.126-10.63,4.29-19.317,11.535-24.53,21.744" transform="translate(-98.752 -310.929)" fill="#e0e0e0"/>
            </g>
            <g id="Group_167" data-name="Group 167" transform="translate(104.735 79.454)">
              <path id="Path_515" data-name="Path 515" d="M91.008,337.871c7.194.785,14.5,1.3,21.637.1,7.014-1.173,13.642-3.953,20.2-6.71a2.379,2.379,0,0,0,1.372-1.042,1.582,1.582,0,0,0-.492-1.728,4.189,4.189,0,0,0-1.723-.808c-7.126-1.992-14.816-1.059-21.828,1.3a101.338,101.338,0,0,0-19.164,8.879" transform="translate(-91.008 -326.601)" fill="#e0e0e0"/>
            </g>
            <g id="Group_168" data-name="Group 168" transform="translate(60.061 76.78)">
              <path id="Path_516" data-name="Path 516" d="M63.1,356.389c-4.907-9.906-4.588-21.465-.349-31.674,2.984,4.548,3.349,10.338,2.8,15.749s-2.193,10.981-2.3,16.418" transform="translate(-59.498 -324.715)" fill="#e0e0e0"/>
            </g>
            <g id="Group_169" data-name="Group 169" transform="translate(11.234 98.559)">
              <path id="Path_517" data-name="Path 517" d="M57.886,340.084a44.177,44.177,0,0,0-32.827,13.985c6.115.96,12.413-.617,17.975-3.333s10.506-6.526,15.406-10.31" transform="translate(-25.059 -340.077)" fill="#e0e0e0"/>
            </g>
            <g id="Group_170" data-name="Group 170" transform="translate(0 93.582)">
              <path id="Path_518" data-name="Path 518" d="M48.017,337.143c-5.994-.485-11.762-1.228-17.525.539s-11.008,5.775-13.357,11.325c5.607.632,11.291-.774,16.431-3.1a94.665,94.665,0,0,0,14.451-8.762" transform="translate(-17.135 -336.566)" fill="#e0e0e0"/>
            </g>
            <g id="Group_171" data-name="Group 171" transform="translate(15.257 85.16)">
              <path id="Path_519" data-name="Path 519" d="M63.036,339.826c-5.392-3.533-10.93-7.13-17.208-8.593s-13.554-.383-17.932,4.35c5.083,2.982,11.249,3.335,17.141,3.33s13.117-.072,18.672,1.894" transform="translate(-27.896 -330.626)" fill="#e0e0e0"/>
            </g>
            <g id="Group_172" data-name="Group 172" transform="translate(39.966 56.958)">
              <path id="Path_520" data-name="Path 520" d="M55.786,348.421c-9.217-9.051-12.712-25.313-9-37.687a57.427,57.427,0,0,1,9,37.687" transform="translate(-45.324 -310.734)" fill="#e0e0e0"/>
            </g>
            <g id="Group_173" data-name="Group 173" transform="translate(75.776 39.254)">
              <path id="Path_521" data-name="Path 521" d="M70.582,327.992c1.738-4.042,2.962-8.284,4.521-12.4a35.623,35.623,0,0,1,6.445-11.429c2.948-3.267,7.022-5.7,11.417-5.918a45.984,45.984,0,0,1-22.158,29.809" transform="translate(-70.582 -298.247)" fill="#e0e0e0"/>
            </g>
            <g id="Group_174" data-name="Group 174" transform="translate(47.344 58.097)">
              <path id="Path_522" data-name="Path 522" d="M74.374,327.783c-2.878-3.96-6.2-9.335-10.1-12.291s-8.982-4.745-13.742-3.61a32.008,32.008,0,0,0,23.846,15.9" transform="translate(-50.528 -311.538)" fill="#e0e0e0"/>
            </g>
            <g id="Group_175" data-name="Group 175" transform="translate(67.226 39.627)">
              <path id="Path_523" data-name="Path 523" d="M69.432,328.211c-1.886-4.792-3.785-9.634-4.548-14.726s-.3-10.533,2.305-14.974c5.06,9.564,6.69,19.832,2.5,29.809" transform="translate(-64.552 -298.51)" fill="#e0e0e0"/>
            </g>
            <g id="Group_176" data-name="Group 176" transform="translate(75.823 19.353)">
              <path id="Path_524" data-name="Path 524" d="M70.615,304.484C73.48,295,82.163,288.019,91.537,284.815a7.816,7.816,0,0,1,3.668-.55,3.186,3.186,0,0,1,2.705,2.257c.342,1.613-.991,3.058-2.244,4.13a71.23,71.23,0,0,1-25.051,13.832" transform="translate(-70.615 -284.211)" fill="#e0e0e0"/>
            </g>
            <g id="Group_177" data-name="Group 177" transform="translate(75.776)">
              <path id="Path_525" data-name="Path 525" d="M70.732,302.432c.364-6.113.746-12.316,2.733-18.109s5.821-11.227,11.4-13.762c.948,6.176-1.776,12.319-5.061,17.631s-7.246,10.33-9.22,16.256" transform="translate(-70.582 -270.56)" fill="#e0e0e0"/>
            </g>
            <g id="Group_178" data-name="Group 178" transform="translate(57.996 2.838)">
              <path id="Path_526" data-name="Path 526" d="M75.821,305.8c-2.369-6.91-2.614-15.688-6.751-21.708-2.892-4.209-7.526-7.076-10.018-11.534-1.655,4.164-1.148,8.96.583,13.092a37.891,37.891,0,0,0,7.656,10.959c3.062,3.271,5.684,5.731,8.531,9.19" transform="translate(-58.041 -272.562)" fill="#e0e0e0"/>
            </g>
            <g id="Group_180" data-name="Group 180" transform="translate(75.464 33.672)">
              <g id="Group_179" data-name="Group 179">
                <path id="Path_527" data-name="Path 527" d="M70.721,500.226c-.184,0-.345-46.1-.357-102.953-.013-56.874.126-102.963.31-102.963s.343,46.089.356,102.963C71.042,454.126,70.9,500.226,70.721,500.226Z" transform="translate(-70.362 -294.31)" fill="#e0e0e0"/>
              </g>
            </g>
            <g id="Group_182" data-name="Group 182" transform="translate(75.763 101.491)">
              <g id="Group_181" data-name="Group 181">
                <path id="Path_528" data-name="Path 528" d="M110.917,342.152a9.789,9.789,0,0,1-1.733.651l-4.771,1.609c-4.022,1.37-9.546,3.354-15.543,5.811-5.938,2.546-11.538,4.615-14.726,7.378a10.837,10.837,0,0,0-2.959,3.915c-.457,1.083-.539,1.745-.6,1.732a1.328,1.328,0,0,1,.02-.483,7.326,7.326,0,0,1,.339-1.343,10.4,10.4,0,0,1,2.888-4.174,25.924,25.924,0,0,1,6.388-3.968c2.556-1.194,5.389-2.437,8.4-3.673,6.014-2.464,11.582-4.385,15.649-5.643,2.033-.634,3.692-1.1,4.842-1.409A9.809,9.809,0,0,1,110.917,342.152Z" transform="translate(-70.573 -342.145)" fill="#e0e0e0"/>
              </g>
            </g>
            <g id="Group_184" data-name="Group 184" transform="translate(78.934 69.061)">
              <g id="Group_183" data-name="Group 183">
                <path id="Path_529" data-name="Path 529" d="M123.188,319.272a2.818,2.818,0,0,1-.485.519l-1.48,1.389L115.7,326.2l-18.38,16.367c-7.175,6.387-13.377,12.489-17.673,17.084-2.152,2.294-3.846,4.2-5,5.522L73.309,366.7a2.854,2.854,0,0,1-.5.5,2.841,2.841,0,0,1,.394-.59c.279-.37.685-.923,1.241-1.606,1.1-1.381,2.742-3.335,4.854-5.677a232.918,232.918,0,0,1,17.576-17.261c7.2-6.371,13.751-12.1,18.512-16.222l5.663-4.857,1.562-1.3A2.862,2.862,0,0,1,123.188,319.272Z" transform="translate(-72.81 -319.271)" fill="#e0e0e0"/>
              </g>
            </g>
            <g id="Group_186" data-name="Group 186" transform="translate(95.682 82.887)">
              <g id="Group_185" data-name="Group 185">
                <path id="Path_530" data-name="Path 530" d="M84.639,344.983c-.187-.084,1.311-3.544,2.8-7.921,1.509-4.375,2.217-8.07,2.409-8.039.173.018-.251,3.819-1.778,8.253a53.634,53.634,0,0,1-2.232,5.541A8.543,8.543,0,0,1,84.639,344.983Z" transform="translate(-84.623 -329.023)" fill="#e0e0e0"/>
              </g>
            </g>
            <g id="Group_188" data-name="Group 188" transform="translate(49.143 93.088)">
              <g id="Group_187" data-name="Group 187">
                <path id="Path_531" data-name="Path 531" d="M78.518,369.88a8.343,8.343,0,0,1-1.106-1.283c-.75-.963-1.7-2.181-2.831-3.632-2.379-3.075-5.668-7.32-9.356-11.966s-7.076-8.814-9.532-11.828L52.8,337.588a8.25,8.25,0,0,1-1-1.368,8.215,8.215,0,0,1,1.2,1.2c.737.8,1.784,1.978,3.058,3.448,2.549,2.94,6,7.065,9.693,11.718s6.924,8.946,9.21,12.1c1.141,1.575,2.052,2.861,2.664,3.761A8.171,8.171,0,0,1,78.518,369.88Z" transform="translate(-51.797 -336.218)" fill="#e0e0e0"/>
              </g>
            </g>
            <g id="Group_190" data-name="Group 190" transform="translate(62.447 101.474)">
              <g id="Group_189" data-name="Group 189">
                <path id="Path_532" data-name="Path 532" d="M65.765,356.07c-.109.116-2.466-2.68-3.7-6.929a19.8,19.8,0,0,1-.839-6.984l.295.024c-.132.533-.228.815-.281.807s-.055-.306-.011-.855l.293.024a31.813,31.813,0,0,0,1.182,6.794C63.9,353.068,65.943,355.956,65.765,356.07Z" transform="translate(-61.181 -342.133)" fill="#e0e0e0"/>
              </g>
            </g>
            <g id="Group_192" data-name="Group 192" transform="translate(35.673 98.233)">
              <g id="Group_191" data-name="Group 191">
                <path id="Path_533" data-name="Path 533" d="M62.251,342.68a11.934,11.934,0,0,0-2.585-1.5,17.278,17.278,0,0,0-7.173-.57,44.194,44.194,0,0,0-7.224,1.165,21.946,21.946,0,0,1-2.973.713,10.4,10.4,0,0,1,2.847-1.167,33.076,33.076,0,0,1,7.3-1.377,15.642,15.642,0,0,1,7.4.8A4.579,4.579,0,0,1,62.251,342.68Z" transform="translate(-42.297 -339.847)" fill="#e0e0e0"/>
              </g>
            </g>
            <g id="Group_194" data-name="Group 194" transform="translate(24.887 93.352)">
              <g id="Group_193" data-name="Group 193">
                <path id="Path_534" data-name="Path 534" d="M62.726,340.642c-.051.1-1.5-.6-3.958-1.442a39.836,39.836,0,0,0-19.947-1.521c-2.552.457-4.1.934-4.131.825a3.784,3.784,0,0,1,1.049-.448,25.035,25.035,0,0,1,2.99-.839,35.222,35.222,0,0,1,20.2,1.541,24.806,24.806,0,0,1,2.827,1.282A3.783,3.783,0,0,1,62.726,340.642Z" transform="translate(-34.689 -336.404)" fill="#e0e0e0"/>
              </g>
            </g>
            <g id="Group_196" data-name="Group 196" transform="translate(70.627 62.668)">
              <g id="Group_195" data-name="Group 195">
                <path id="Path_535" data-name="Path 535" d="M72.1,334.981c-.179.045-1.47-4.445-2.887-10.027s-2.419-10.147-2.241-10.192,1.472,4.445,2.887,10.028S72.278,334.937,72.1,334.981Z" transform="translate(-66.951 -314.762)" fill="#e0e0e0"/>
              </g>
            </g>
            <g id="Group_198" data-name="Group 198" transform="translate(68.048 72.014)">
              <g id="Group_197" data-name="Group 197">
                <path id="Path_536" data-name="Path 536" d="M73.044,332.227c-.2.065-1.031-2.935-3.2-6a26.453,26.453,0,0,0-4.71-4.86,4.394,4.394,0,0,1,1.818.937,14.64,14.64,0,0,1,3.438,3.54C72.641,329.034,73.2,332.216,73.044,332.227Z" transform="translate(-65.131 -321.354)" fill="#e0e0e0"/>
              </g>
            </g>
            <g id="Group_200" data-name="Group 200" transform="translate(33.59 147.727)">
              <g id="Group_199" data-name="Group 199">
                <path id="Path_537" data-name="Path 537" d="M83.06,442.043c-.072.01-.208-1.109-.727-3.067A43.6,43.6,0,0,0,79.252,431c-3.184-6.509-8.98-14.762-16.344-23.027-3.649-4.168-7.19-8.1-10.2-11.868a83.351,83.351,0,0,1-7.289-10.513,50.548,50.548,0,0,1-3.681-7.8c-.339-.963-.587-1.713-.723-2.232a3.744,3.744,0,0,1-.189-.8c.06-.018.394,1.055,1.154,2.935a57.1,57.1,0,0,0,3.845,7.657,88,88,0,0,0,7.361,10.367c3.016,3.726,6.561,7.638,10.218,11.814,7.384,8.288,13.165,16.645,16.266,23.26a39.916,39.916,0,0,1,2.909,8.124,22.764,22.764,0,0,1,.407,2.312A3.79,3.79,0,0,1,83.06,442.043Z" transform="translate(-40.827 -374.757)" fill="#e0e0e0"/>
              </g>
            </g>
            <g id="Group_202" data-name="Group 202" transform="translate(75.818 173.892)">
              <g id="Group_201" data-name="Group 201">
                <path id="Path_538" data-name="Path 538" d="M107.019,393.215a16.627,16.627,0,0,1-1.907,1.07,41.638,41.638,0,0,0-4.949,3.272,56.887,56.887,0,0,0-6.5,5.928c-2.281,2.409-4.63,5.207-7.029,8.206-4.795,6.016-9.279,11.339-11.965,15.59-1.362,2.107-2.354,3.885-3,5.131a16.569,16.569,0,0,1-1.051,1.921,1.814,1.814,0,0,1,.176-.542c.143-.343.336-.858.642-1.494a48.635,48.635,0,0,1,2.837-5.268c2.609-4.351,7.058-9.749,11.844-15.754,2.4-3,4.781-5.809,7.1-8.215a52.83,52.83,0,0,1,6.661-5.88,34.7,34.7,0,0,1,5.111-3.125c.632-.316,1.147-.512,1.489-.658A1.841,1.841,0,0,1,107.019,393.215Z" transform="translate(-70.612 -393.211)" fill="#e0e0e0"/>
              </g>
            </g>
            <g id="Group_204" data-name="Group 204" transform="translate(87.778 187.186)">
              <g id="Group_203" data-name="Group 203">
                <path id="Path_539" data-name="Path 539" d="M104.208,402.638a27.975,27.975,0,0,1-4.034.586,53.168,53.168,0,0,0-9.563,1.883,28.723,28.723,0,0,0-8.563,4.494c-1.975,1.526-2.905,2.787-3,2.714a3.117,3.117,0,0,1,.6-.929,15.187,15.187,0,0,1,2.1-2.149,25.906,25.906,0,0,1,8.657-4.764,43.185,43.185,0,0,1,9.72-1.718A22.143,22.143,0,0,1,104.208,402.638Z" transform="translate(-79.048 -402.588)" fill="#e0e0e0"/>
              </g>
            </g>
            <g id="Group_206" data-name="Group 206" transform="translate(88.943 181.784)">
              <g id="Group_205" data-name="Group 205">
                <path id="Path_540" data-name="Path 540" d="M79.886,412.44c-.211-.119,1.606-2.9,3.016-6.628,1.323-3.768,1.633-7.072,1.87-7.034a6.39,6.39,0,0,1-.067,2.163,23.217,23.217,0,0,1-1.177,5.1,24.683,24.683,0,0,1-2.338,4.674A6.54,6.54,0,0,1,79.886,412.44Z" transform="translate(-79.869 -398.778)" fill="#e0e0e0"/>
              </g>
            </g>
            <g id="Group_208" data-name="Group 208" transform="translate(75.833 138.081)">
              <g id="Group_207" data-name="Group 207">
                <path id="Path_541" data-name="Path 541" d="M118.8,367.956a3.037,3.037,0,0,1-.645.343l-1.9.862c-.829.356-1.837.807-2.973,1.406s-2.468,1.192-3.852,2.023l-2.2,1.252c-.763.438-1.517.958-2.321,1.462-1.622.984-3.247,2.2-4.981,3.432a85.409,85.409,0,0,0-19.181,19.849c-1.177,1.776-2.334,3.441-3.261,5.1-.475.819-.97,1.592-1.382,2.369s-.8,1.526-1.175,2.242c-.783,1.412-1.343,2.762-1.891,3.92s-.975,2.178-1.3,3.018c-.323.78-.586,1.416-.8,1.924a2.99,2.99,0,0,1-.322.656,3.1,3.1,0,0,1,.194-.7c.18-.52.405-1.173.681-1.972.292-.858.675-1.9,1.2-3.074s1.052-2.549,1.813-3.983q.547-1.091,1.143-2.276c.4-.788.89-1.572,1.358-2.4.913-1.677,2.06-3.366,3.231-5.165a82.338,82.338,0,0,1,19.321-19.993c1.758-1.232,3.405-2.436,5.052-3.405.814-.5,1.581-1.009,2.355-1.439l2.234-1.221c1.408-.81,2.759-1.389,3.919-1.948s2.183-.987,3.031-1.307l1.948-.749A3.065,3.065,0,0,1,118.8,367.956Z" transform="translate(-70.622 -367.953)" fill="#e0e0e0"/>
              </g>
            </g>
            <g id="Group_210" data-name="Group 210" transform="translate(95.198 152.575)">
              <g id="Group_209" data-name="Group 209">
                <path id="Path_542" data-name="Path 542" d="M84.288,382.99a4.618,4.618,0,0,1,1.584-2.359,10,10,0,0,1,6.383-2.45,17.442,17.442,0,0,1,6.717,1.313,9.626,9.626,0,0,1,2.539,1.233,15.545,15.545,0,0,1-2.694-.788,20.272,20.272,0,0,0-6.542-1.092,10.4,10.4,0,0,0-6.1,2.139A18.6,18.6,0,0,0,84.288,382.99Z" transform="translate(-84.281 -378.176)" fill="#e0e0e0"/>
              </g>
            </g>
            <g id="Group_212" data-name="Group 212" transform="translate(90.883 149.777)">
              <g id="Group_211" data-name="Group 211">
                <path id="Path_543" data-name="Path 543" d="M81.252,388.256c-.183-.1,1.443-2.484,1.813-5.9.425-3.407-.608-6.1-.407-6.156a3.911,3.911,0,0,1,.749,1.718,12.194,12.194,0,0,1-1.031,8.836C81.814,387.777,81.317,388.3,81.252,388.256Z" transform="translate(-81.238 -376.202)" fill="#e0e0e0"/>
              </g>
            </g>
          </g>
          <g id="Group_214" data-name="Group 214" transform="translate(43.984 221.619)">
            <path id="Path_544" data-name="Path 544" d="M48.158,426.875c.992,17.617,6.3,35.534,14.467,53.649h35.51c7.788-17.935,12.73-35.824,13.609-53.649Z" transform="translate(-48.158 -426.875)" fill="#e0e0e0"/>
          </g>
          <g id="Group_216" data-name="Group 216" transform="translate(49.589 249.793)">
            <g id="Group_215" data-name="Group 215">
              <path id="Path_545" data-name="Path 545" d="M104.336,447.08c0,.184-11.691.333-26.11.333s-26.114-.149-26.114-.333,11.69-.333,26.114-.333S104.336,446.9,104.336,447.08Z" transform="translate(-52.112 -446.747)" fill="#fafafa"/>
            </g>
          </g>
          <g id="Group_218" data-name="Group 218" transform="translate(52.062 256.176)">
            <g id="Group_217" data-name="Group 217">
              <path id="Path_546" data-name="Path 546" d="M102.815,451.582c0,.184-10.961.333-24.478.333s-24.481-.149-24.481-.333,10.958-.333,24.481-.333S102.815,451.4,102.815,451.582Z" transform="translate(-53.856 -451.249)" fill="#fafafa"/>
            </g>
          </g>
          <g id="Group_220" data-name="Group 220" transform="translate(58.69 233.185)">
            <g id="Group_219" data-name="Group 219">
              <path id="Path_547" data-name="Path 547" d="M58.864,435.033c.184,0,.333,3.664.333,8.179s-.149,8.179-.333,8.179-.333-3.661-.333-8.179S58.681,435.033,58.864,435.033Z" transform="translate(-58.531 -435.033)" fill="#fafafa"/>
            </g>
          </g>
          <g id="Group_222" data-name="Group 222" transform="translate(77.717 233.185)">
            <g id="Group_221" data-name="Group 221">
              <path id="Path_548" data-name="Path 548" d="M72.284,435.033c.184,0,.333,3.793.333,8.47s-.149,8.471-.333,8.471-.333-3.791-.333-8.471S72.1,435.033,72.284,435.033Z" transform="translate(-71.951 -435.033)" fill="#fafafa"/>
            </g>
          </g>
          <g id="Group_224" data-name="Group 224" transform="translate(95.578 233.042)">
            <g id="Group_223" data-name="Group 223">
              <path id="Path_549" data-name="Path 549" d="M84.882,434.932c.183,0,.333,3.868.333,8.638s-.15,8.64-.333,8.64-.333-3.868-.333-8.64S84.7,434.932,84.882,434.932Z" transform="translate(-84.549 -434.932)" fill="#fafafa"/>
            </g>
          </g>
          <g id="Group_226" data-name="Group 226" transform="translate(45.189 232.852)">
            <g id="Group_225" data-name="Group 225">
              <path id="Path_550" data-name="Path 550" d="M110.26,435.131c0,.184-13.713.333-30.624.333s-30.628-.149-30.628-.333,13.71-.333,30.628-.333S110.26,434.948,110.26,435.131Z" transform="translate(-49.008 -434.798)" fill="#fafafa"/>
            </g>
          </g>
        </g>
        <g id="Group_232" data-name="Group 232" transform="translate(490.976 56.029)">
          <g id="Group_231" data-name="Group 231">
            <path id="Path_558" data-name="Path 558" d="M392.167,321.393a41.246,41.246,0,0,1,10.07-4.375l2.074-9.968,16.842-.295,2.424,9.888a41.208,41.208,0,0,1,10.218,4.019l8.512-5.579,12.116,11.7-5.276,8.7a41.238,41.238,0,0,1,4.377,10.073l9.967,2.074.3,16.84-9.889,2.424a41.227,41.227,0,0,1-4.019,10.218l5.579,8.512-11.7,12.118-8.7-5.277a41.279,41.279,0,0,1-10.072,4.377l-2.076,9.968-16.84.295-2.424-9.889a41.284,41.284,0,0,1-10.218-4.019l-8.511,5.579-12.118-11.7,5.276-8.7A41.285,41.285,0,0,1,373.7,368.3l-9.967-2.074-.3-16.842,9.889-2.424a41.281,41.281,0,0,1,4.019-10.218l-5.579-8.511,11.7-12.118,8.7,5.276Zm8.979,22.435a18.069,18.069,0,1,0,25.548-.448A18.069,18.069,0,0,0,401.146,343.827Z" transform="translate(-363.436 -306.754)" fill="#ebebeb"/>
          </g>
        </g>
        <g id="Group_236" data-name="Group 236" transform="translate(580.468 156.682)">
          <g id="Group_235" data-name="Group 235">
            <path id="Path_560" data-name="Path 560" d="M439.956,384.576a19.278,19.278,0,0,1,4.7-2.042l.967-4.649,7.854-.138,1.131,4.612a19.24,19.24,0,0,1,4.765,1.874l3.97-2.6,5.651,5.457-2.461,4.058a19.2,19.2,0,0,1,2.042,4.7l4.648.967.139,7.854-4.612,1.13a19.222,19.222,0,0,1-1.874,4.765l2.6,3.971-5.456,5.651-4.059-2.461a19.2,19.2,0,0,1-4.7,2.04l-.967,4.65-7.854.138-1.13-4.612a19.259,19.259,0,0,1-4.767-1.876l-3.968,2.6-5.651-5.457,2.46-4.058a19.279,19.279,0,0,1-2.042-4.7l-4.647-.967-.139-7.854,4.612-1.131a19.3,19.3,0,0,1,1.874-4.765l-2.6-3.97,5.457-5.651,4.058,2.461Zm4.188,10.463a8.426,8.426,0,1,0,11.915-.21A8.426,8.426,0,0,0,444.144,395.039Z" transform="translate(-426.557 -377.748)" fill="#ebebeb"/>
          </g>
        </g>
        <g id="Group_238" data-name="Group 238" transform="translate(237.647 0)">
          <g id="Group_237" data-name="Group 237">
            <path id="Path_561" data-name="Path 561" d="M198.154,274.062a19.221,19.221,0,0,1,4.7-2.04l.967-4.649,7.854-.138,1.13,4.611a19.232,19.232,0,0,1,4.767,1.876l3.97-2.6,5.651,5.457-2.461,4.058a19.279,19.279,0,0,1,2.042,4.7l4.647.968.139,7.853-4.612,1.131a19.22,19.22,0,0,1-1.874,4.765l2.6,3.97-5.456,5.651-4.059-2.46a19.25,19.25,0,0,1-4.7,2.04l-.967,4.649-7.854.138-1.13-4.612a19.307,19.307,0,0,1-4.767-1.874l-3.968,2.6-5.653-5.456,2.461-4.059a19.233,19.233,0,0,1-2.042-4.7l-4.649-.967-.137-7.854,4.612-1.13a19.277,19.277,0,0,1,1.874-4.765l-2.6-3.97L194.1,271.6l4.059,2.46Zm4.188,10.463a8.427,8.427,0,1,0,11.915-.21A8.426,8.426,0,0,0,202.342,284.525Z" transform="translate(-184.755 -267.235)" fill="#ebebeb"/>
          </g>
        </g>
      </g>
      <g id="Floor" transform="translate(249.584 713.111)">
        <g id="Group_242" data-name="Group 242" transform="translate(0)">
          <g id="Group_241" data-name="Group 241">
            <path id="Path_563" data-name="Path 563" d="M654.609,465.087c0,.2-139.24.369-310.96.369-171.779,0-310.989-.164-310.989-.369s139.21-.37,310.989-.37C515.369,464.717,654.609,464.883,654.609,465.087Z" transform="translate(-32.66 -464.717)" fill="#263238"/>
          </g>
        </g>
      </g>
      <g id="Device" transform="translate(452.913 120.32)">
        <g id="Group_251" data-name="Group 251" transform="translate(78.444 0)">
          <g id="Group_250" data-name="Group 250">
            <g id="Group_249" data-name="Group 249">
              <path id="Path_564" data-name="Path 564" d="M435.657,519.825l-167.737-.1c-20.174-.01-36.52-15.692-36.518-35.029l.082-403.079c0-19.348,16.375-35.028,36.56-35.018l167.738.095c20.174.011,36.519,15.693,36.516,35.03l-.082,403.08C472.213,504.157,455.842,519.836,435.657,519.825Z" transform="translate(-231.403 -46.603)" fill="#455a64"/>
              <g id="Group_248" data-name="Group 248" transform="translate(11.115 14.257)">
                <path id="Path_565" data-name="Path 565" d="M432.33,56.754l-32.521-.018-94.979-.054-11.437-.006-28.465-.017c-14.137-.007-25.6,10.974-25.6,24.525l-.081,393.434c0,13.545,11.446,24.526,25.574,24.535l167.4.094c14.135.009,25.6-10.972,25.6-24.523L457.9,81.286C457.906,67.743,446.459,56.762,432.33,56.754Z" transform="translate(-239.243 -56.659)" fill="#fff"/>
              </g>
            </g>
          </g>
        </g>
        <g id="Group_276" data-name="Group 276" transform="translate(116.541 197.072)">
          <g id="Group_252" data-name="Group 252" transform="translate(32.819)">
            <rect id="Rectangle_7323" data-name="Rectangle 7323" width="131.886" height="120.892" fill="#026cd1"/>
          </g>
          <g id="Group_253" data-name="Group 253" transform="translate(32.819)" opacity="0.3">
            <rect id="Rectangle_7324" data-name="Rectangle 7324" width="131.886" height="120.892"/>
          </g>
          <g id="Group_254" data-name="Group 254">
            <rect id="Rectangle_7325" data-name="Rectangle 7325" width="111.123" height="120.892" fill="#026cd1"/>
          </g>
          <g id="Group_256" data-name="Group 256" transform="translate(110.754 0)">
            <g id="Group_255" data-name="Group 255">
              <path id="Path_566" data-name="Path 566" d="M336.761,306.714c-.2,0-.369-27.113-.369-60.553s.166-60.557.369-60.557.37,27.108.37,60.557S336.965,306.714,336.761,306.714Z" transform="translate(-336.392 -185.604)" fill="#263238"/>
            </g>
          </g>
          <g id="Group_266" data-name="Group 266" transform="translate(128.662 88.923)">
            <g id="Group_259" data-name="Group 259" transform="translate(16.191 16.225)">
              <path id="Path_568" data-name="Path 568" d="M367.92,267.743h-6.946a.532.532,0,0,1,0-1.063h6.414V260.3a.532.532,0,0,1,1.063,0v6.912A.532.532,0,0,1,367.92,267.743Z" transform="translate(-360.443 -259.768)" fill="#fff"/>
            </g>
            <g id="Group_260" data-name="Group 260" transform="translate(16.008)">
              <path id="Path_569" data-name="Path 569" d="M367.974,257.147a.532.532,0,0,1-.532-.532v-7.228h-6.6a.532.532,0,0,1,0-1.063h7.129a.532.532,0,0,1,.532.532v7.759A.532.532,0,0,1,367.974,257.147Z" transform="translate(-360.314 -248.324)" fill="#fff"/>
            </g>
            <g id="Group_261" data-name="Group 261">
              <path id="Path_570" data-name="Path 570" d="M349.555,257.328a.532.532,0,0,1-.532-.532v-7.941a.532.532,0,0,1,.532-.532h7.089a.532.532,0,0,1,0,1.063h-6.557V256.8A.532.532,0,0,1,349.555,257.328Z" transform="translate(-349.023 -248.324)" fill="#fff"/>
            </g>
            <g id="Group_262" data-name="Group 262" transform="translate(0 16.589)">
              <path id="Path_571" data-name="Path 571" d="M356.461,267.636h-6.906a.532.532,0,0,1-.532-.532v-6.547a.532.532,0,0,1,1.063,0v6.016h6.374a.532.532,0,1,1,0,1.063Z" transform="translate(-349.023 -260.025)" fill="#fff"/>
            </g>
            <g id="Group_263" data-name="Group 263" transform="translate(7.273 4.733)">
              <path id="Path_572" data-name="Path 572" d="M363.417,266.19h-8.732a.531.531,0,0,1-.532-.532V252.194a.532.532,0,0,1,.532-.532h8.732a.532.532,0,0,1,.532.532v13.465A.531.531,0,0,1,363.417,266.19Zm-8.2-1.063h7.669v-12.4h-7.669Z" transform="translate(-354.153 -251.662)" fill="#fff"/>
            </g>
            <g id="Group_264" data-name="Group 264" transform="translate(11.527 15.739)">
              <path id="Path_573" data-name="Path 573" d="M358.659,260.176a.753.753,0,1,1-.753-.751A.753.753,0,0,1,358.659,260.176Z" transform="translate(-357.153 -259.425)" fill="#fff"/>
            </g>
            <g id="Group_265" data-name="Group 265" transform="translate(10.659 6.776)">
              <path id="Path_574" data-name="Path 574" d="M359.035,254.166h-1.962a.532.532,0,0,1,0-1.063h1.962a.532.532,0,1,1,0,1.063Z" transform="translate(-356.541 -253.103)" fill="#fff"/>
            </g>
          </g>
          <g id="Group_267" data-name="Group 267" transform="translate(16.621 60.032)">
            <path id="Path_575" data-name="Path 575" d="M329.45,234.74H273.394a3.4,3.4,0,0,1-3.4-3.4h0a3.4,3.4,0,0,1,3.4-3.4H329.45a3.4,3.4,0,0,1,3.4,3.4h0A3.4,3.4,0,0,1,329.45,234.74Z" transform="translate(-269.997 -227.946)" fill="#fff"/>
          </g>
          <g id="Group_268" data-name="Group 268" transform="translate(16.622 70.518)">
            <rect id="Rectangle_7326" data-name="Rectangle 7326" width="21.914" height="6.794" rx="2.396" fill="#fff"/>
          </g>
          <g id="Group_270" data-name="Group 270" transform="translate(19.034 88.75)">
            <g id="Group_269" data-name="Group 269">
              <path id="Path_576" data-name="Path 576" d="M285.484,248.572c0,.2-3.087.369-6.892.369s-6.893-.166-6.893-.369,3.085-.37,6.893-.37S285.484,248.368,285.484,248.572Z" transform="translate(-271.699 -248.202)" fill="#fff"/>
            </g>
          </g>
          <g id="Group_274" data-name="Group 274" transform="translate(71.486 105.097)">
            <g id="Group_271" data-name="Group 271" transform="translate(0 0.098)">
              <rect id="Rectangle_7327" data-name="Rectangle 7327" width="7.787" height="7.787" rx="2.01" fill="#fff"/>
            </g>
            <g id="Group_272" data-name="Group 272" transform="translate(10.883 0.098)">
              <rect id="Rectangle_7328" data-name="Rectangle 7328" width="7.787" height="7.787" rx="2.01" fill="#fff"/>
            </g>
            <g id="Group_273" data-name="Group 273" transform="translate(21.766)">
              <rect id="Rectangle_7329" data-name="Rectangle 7329" width="7.787" height="7.787" rx="2.01" fill="#fff"/>
            </g>
          </g>
        </g>
        <g id="Group_277" data-name="Group 277" transform="translate(354.89 141.118)">
          <path id="Path_577" data-name="Path 577" d="M487.858,155.45H431.045a4.655,4.655,0,0,1-4.656-4.656h0a4.655,4.655,0,0,1,4.656-4.656h56.813a4.655,4.655,0,0,1,4.656,4.656h0A4.655,4.655,0,0,1,487.858,155.45Z" transform="translate(-426.389 -146.138)" fill="#e0e0e0"/>
        </g>
        <g id="Group_278" data-name="Group 278" transform="translate(354.89 159.407)">
          <path id="Path_578" data-name="Path 578" d="M487.858,168.351H431.045a4.656,4.656,0,0,1-4.656-4.656h0a4.657,4.657,0,0,1,4.656-4.657h56.813a4.657,4.657,0,0,1,4.656,4.657h0A4.656,4.656,0,0,1,487.858,168.351Z" transform="translate(-426.389 -159.038)" fill="#e0e0e0"/>
        </g>
        <g id="Group_279" data-name="Group 279" transform="translate(354.89 177.302)">
          <path id="Path_579" data-name="Path 579" d="M448.155,180.972h-17.11a4.655,4.655,0,0,1-4.656-4.656h0a4.655,4.655,0,0,1,4.656-4.656h17.11a4.656,4.656,0,0,1,4.656,4.656h0A4.656,4.656,0,0,1,448.155,180.972Z" transform="translate(-426.389 -171.66)" fill="#e0e0e0"/>
        </g>
        <g id="Group_285" data-name="Group 285" transform="translate(130.557 75.719)">
          <path id="Path_582" data-name="Path 582" d="M405.4,114.107h-130.2a7.049,7.049,0,0,1-7.048-7.049h0a7.048,7.048,0,0,1,7.048-7.048H405.4a7.048,7.048,0,0,1,7.048,7.048h0A7.049,7.049,0,0,1,405.4,114.107Z" transform="translate(-268.16 -100.01)" fill="#e0e0e0"/>
        </g>
        <g id="Group_286" data-name="Group 286" transform="translate(157.286 104.849)">
          <path id="Path_583" data-name="Path 583" d="M370.8,134.653H294.061a7.048,7.048,0,0,1-7.048-7.048h0a7.048,7.048,0,0,1,7.048-7.049H370.8a7.048,7.048,0,0,1,7.048,7.049h0A7.048,7.048,0,0,1,370.8,134.653Z" transform="translate(-287.013 -120.556)" fill="#e0e0e0"/>
        </g>
        <g id="Group_288" data-name="Group 288" transform="translate(0 124.308)">
          <path id="Path_584" data-name="Path 584" d="M237.543,143.593H180.73a4.656,4.656,0,0,1-4.656-4.656h0a4.656,4.656,0,0,1,4.656-4.656h56.813a4.657,4.657,0,0,1,4.657,4.656h0A4.657,4.657,0,0,1,237.543,143.593Z" transform="translate(-176.074 -134.281)" fill="#e0e0e0"/>
        </g>
        <g id="Group_289" data-name="Group 289" transform="translate(0 142.597)">
          <path id="Path_585" data-name="Path 585" d="M237.543,156.494H180.73a4.657,4.657,0,0,1-4.656-4.656h0a4.658,4.658,0,0,1,4.656-4.657h56.813a4.658,4.658,0,0,1,4.657,4.657h0A4.658,4.658,0,0,1,237.543,156.494Z" transform="translate(-176.074 -147.181)" fill="#e0e0e0"/>
        </g>
        <g id="Group_290" data-name="Group 290" transform="translate(0 160.491)">
          <path id="Path_586" data-name="Path 586" d="M197.84,169.115H180.73a4.657,4.657,0,0,1-4.656-4.656h0a4.658,4.658,0,0,1,4.656-4.657h17.11a4.657,4.657,0,0,1,4.656,4.657h0A4.656,4.656,0,0,1,197.84,169.115Z" transform="translate(-176.074 -159.802)" fill="#e0e0e0"/>
        </g>
        <g id="Group_292" data-name="Group 292" transform="translate(365.319 317.386)">
          <path id="Path_587" data-name="Path 587" d="M495.214,279.777H438.4a4.655,4.655,0,0,1-4.656-4.656h0a4.655,4.655,0,0,1,4.656-4.656h56.813a4.655,4.655,0,0,1,4.656,4.656h0A4.656,4.656,0,0,1,495.214,279.777Z" transform="translate(-433.745 -270.465)" fill="#e0e0e0"/>
        </g>
        <g id="Group_293" data-name="Group 293" transform="translate(365.318 335.675)">
          <rect id="Rectangle_7333" data-name="Rectangle 7333" width="66.126" height="9.313" rx="3.284" fill="#e0e0e0"/>
        </g>
        <g id="Group_294" data-name="Group 294" transform="translate(365.319 353.569)">
          <path id="Path_588" data-name="Path 588" d="M455.509,305.3H438.4a4.656,4.656,0,0,1-4.656-4.656h0a4.657,4.657,0,0,1,4.656-4.657h17.108a4.658,4.658,0,0,1,4.657,4.657h0A4.658,4.658,0,0,1,455.509,305.3Z" transform="translate(-433.745 -295.986)" fill="#e0e0e0"/>
        </g>
        <g id="Group_300" data-name="Group 300" transform="translate(103.462 155.215)">
          <path id="Path_591" data-name="Path 591" d="M249.758,178.421a.708.708,0,0,1-.709-.709V156.79a.709.709,0,0,1,.709-.709h20.96a.709.709,0,1,1,0,1.418H250.467v20.213A.707.707,0,0,1,249.758,178.421Z" transform="translate(-249.049 -156.081)" fill="#026cd1"/>
        </g>
        <g id="Group_301" data-name="Group 301" transform="translate(267.61 155.197)">
          <path id="Path_592" data-name="Path 592" d="M386.459,178.445a.707.707,0,0,1-.709-.709v-20.25H365.537a.709.709,0,0,1,0-1.418h20.922a.709.709,0,0,1,.709.709v20.959A.708.708,0,0,1,386.459,178.445Z" transform="translate(-364.828 -156.068)" fill="#026cd1"/>
        </g>
        <g id="Group_302" data-name="Group 302" transform="translate(267.572 330.632)">
          <path id="Path_593" data-name="Path 593" d="M386.47,302.149H365.51a.709.709,0,1,1,0-1.418h20.252V280.517a.709.709,0,0,1,1.418,0V301.44A.709.709,0,0,1,386.47,302.149Z" transform="translate(-364.801 -279.808)" fill="#026cd1"/>
        </g>
        <g id="Group_303" data-name="Group 303" transform="translate(103.462 330.361)">
          <path id="Path_594" data-name="Path 594" d="M270.68,301.994H249.758a.709.709,0,0,1-.709-.709V280.326a.709.709,0,1,1,1.418,0v20.25H270.68a.709.709,0,1,1,0,1.418Z" transform="translate(-249.049 -279.617)" fill="#026cd1"/>
        </g>
        <g id="Group_304" data-name="Group 304" transform="translate(173.397 401.206)">
          <circle id="Ellipse_34" data-name="Ellipse 34" cx="17.286" cy="17.286" r="17.286" transform="translate(0 13.329) rotate(-22.678)" fill="#e0e0e0"/>
        </g>
      </g>
      <g id="Box" transform="translate(438.839 506.478)">
        <g id="Group_337" data-name="Group 337">
          <g id="Group_313" data-name="Group 313" transform="translate(56.093)">
            <rect id="Rectangle_7335" data-name="Rectangle 7335" width="225.419" height="206.63" fill="#026cd1"/>
          </g>
          <g id="Group_314" data-name="Group 314" transform="translate(56.093)" opacity="0.3">
            <rect id="Rectangle_7336" data-name="Rectangle 7336" width="225.419" height="206.63"/>
          </g>
          <g id="Group_315" data-name="Group 315">
            <rect id="Rectangle_7337" data-name="Rectangle 7337" width="189.932" height="206.63" fill="#026cd1"/>
          </g>
          <g id="Group_317" data-name="Group 317" transform="translate(189.563 0)">
            <g id="Group_316" data-name="Group 316">
              <path id="Path_598" data-name="Path 598" d="M300.221,525.975c-.2,0-.369-46.343-.369-103.5,0-57.173.164-103.506.369-103.506s.37,46.333.37,103.506C300.591,479.632,300.425,525.975,300.221,525.975Z" transform="translate(-299.852 -318.973)" fill="#263238"/>
            </g>
          </g>
          <g id="Group_319" data-name="Group 319" transform="translate(187.463 103.132)">
            <g id="Group_318" data-name="Group 318">
              <path id="Path_599" data-name="Path 599" d="M392.42,392.084c0,.2-21.055.37-47.022.37s-47.028-.166-47.028-.37,21.051-.369,47.028-.369S392.42,391.881,392.42,392.084Z" transform="translate(-298.371 -391.715)" fill="#263238"/>
            </g>
          </g>
          <g id="Group_327" data-name="Group 327" transform="translate(219.4 151.477)">
            <g id="Group_320" data-name="Group 320" transform="translate(27.673 27.732)">
              <path id="Path_600" data-name="Path 600" d="M353.708,460.024H341.834a1.418,1.418,0,1,1,0-2.836H352.29v-10.4a1.418,1.418,0,1,1,2.836,0v11.814A1.417,1.417,0,0,1,353.708,460.024Z" transform="translate(-340.416 -445.374)" fill="#fff"/>
            </g>
            <g id="Group_321" data-name="Group 321" transform="translate(27.362)">
              <path id="Path_601" data-name="Path 601" d="M353.8,441.914a1.417,1.417,0,0,1-1.418-1.418V428.65H341.614a1.418,1.418,0,1,1,0-2.836H353.8a1.417,1.417,0,0,1,1.418,1.418V440.5A1.417,1.417,0,0,1,353.8,441.914Z" transform="translate(-340.196 -425.814)" fill="#fff"/>
            </g>
            <g id="Group_322" data-name="Group 322">
              <path id="Path_602" data-name="Path 602" d="M322.315,442.225a1.416,1.416,0,0,1-1.418-1.418V427.232a1.416,1.416,0,0,1,1.418-1.418h12.116a1.418,1.418,0,1,1,0,2.836h-10.7v12.157A1.416,1.416,0,0,1,322.315,442.225Z" transform="translate(-320.897 -425.814)" fill="#fff"/>
            </g>
            <g id="Group_323" data-name="Group 323" transform="translate(0 28.355)">
              <path id="Path_603" data-name="Path 603" d="M334.119,459.84h-11.8a1.416,1.416,0,0,1-1.418-1.418v-11.19a1.418,1.418,0,1,1,2.836,0V457h10.387a1.418,1.418,0,1,1,0,2.836Z" transform="translate(-320.897 -445.814)" fill="#fff"/>
            </g>
            <g id="Group_324" data-name="Group 324" transform="translate(12.432 8.091)">
              <path id="Path_604" data-name="Path 604" d="M346.009,457.371H331.084a1.416,1.416,0,0,1-1.418-1.418V432.939a1.416,1.416,0,0,1,1.418-1.418h14.925a1.416,1.416,0,0,1,1.418,1.418v23.015A1.416,1.416,0,0,1,346.009,457.371ZM332.5,454.536h12.089V434.357H332.5Z" transform="translate(-329.666 -431.521)" fill="#fff"/>
            </g>
            <g id="Group_325" data-name="Group 325" transform="translate(20.211 27.41)">
              <circle id="Ellipse_35" data-name="Ellipse 35" cx="1.286" cy="1.286" r="1.286" fill="#fff"/>
            </g>
            <g id="Group_326" data-name="Group 326" transform="translate(18.217 11.582)">
              <path id="Path_605" data-name="Path 605" d="M338.52,436.819h-3.356a1.418,1.418,0,0,1,0-2.836h3.356a1.418,1.418,0,0,1,0,2.836Z" transform="translate(-333.746 -433.983)" fill="#fff"/>
            </g>
          </g>
          <g id="Group_328" data-name="Group 328" transform="translate(28.409 102.607)">
            <path id="Path_606" data-name="Path 606" d="M287.8,402.957H191.991a5.806,5.806,0,0,1-5.806-5.806h0a5.806,5.806,0,0,1,5.806-5.806H287.8a5.806,5.806,0,0,1,5.806,5.806h0A5.806,5.806,0,0,1,287.8,402.957Z" transform="translate(-186.185 -391.345)" fill="#fff"/>
          </g>
          <g id="Group_329" data-name="Group 329" transform="translate(28.409 120.531)">
            <path id="Path_607" data-name="Path 607" d="M217.834,415.6H191.991a5.806,5.806,0,0,1-5.806-5.806h0a5.806,5.806,0,0,1,5.806-5.806h25.843a5.806,5.806,0,0,1,5.807,5.806h0A5.806,5.806,0,0,1,217.834,415.6Z" transform="translate(-186.185 -403.987)" fill="#fff"/>
          </g>
          <g id="Group_331" data-name="Group 331" transform="translate(32.533 151.954)">
            <g id="Group_330" data-name="Group 330">
              <path id="Path_608" data-name="Path 608" d="M212.655,426.52c0,.2-5.276.37-11.78.37s-11.78-.166-11.78-.37,5.274-.369,11.78-.369S212.655,426.315,212.655,426.52Z" transform="translate(-189.094 -426.151)" fill="#fff"/>
            </g>
          </g>
          <g id="Group_335" data-name="Group 335" transform="translate(122.183 179.632)">
            <g id="Group_332" data-name="Group 332" transform="translate(0 0.167)">
              <rect id="Rectangle_7338" data-name="Rectangle 7338" width="13.31" height="13.31" rx="2.01" fill="#fff"/>
            </g>
            <g id="Group_333" data-name="Group 333" transform="translate(18.601 0.167)">
              <rect id="Rectangle_7339" data-name="Rectangle 7339" width="13.31" height="13.31" rx="2.01" fill="#fff"/>
            </g>
            <g id="Group_334" data-name="Group 334" transform="translate(37.202)">
              <rect id="Rectangle_7340" data-name="Rectangle 7340" width="13.31" height="13.31" rx="2.01" fill="#fff"/>
            </g>
          </g>
          <g id="Group_336" data-name="Group 336" transform="translate(30.49 49.672)">
            <rect id="Rectangle_7341" data-name="Rectangle 7341" width="87.83" height="30.079" rx="11" fill="#fff"/>
          </g>
        </g>
        <g id="Group_344" data-name="Group 344" transform="translate(303.376 112.914)">
          <g id="Group_339" data-name="Group 339" transform="translate(0 19.396)">
            <g id="Group_338" data-name="Group 338">
              <path id="Path_609" data-name="Path 609" d="M381.882,418.929c8.861,6.387,9.3,19.8,1.941,27.34-3.189,3.267,1.819,8.284,5.012,5.013a25.557,25.557,0,0,0,7.157-19.693,25.256,25.256,0,0,0-10.533-18.783c-1.554-1.12-3.948-.268-4.849,1.272a3.624,3.624,0,0,0,1.272,4.85Z" transform="translate(-380.128 -412.295)" fill="#026cd1"/>
            </g>
          </g>
          <g id="Group_341" data-name="Group 341" transform="translate(11.02 10.429)">
            <g id="Group_340" data-name="Group 340">
              <path id="Path_610" data-name="Path 610" d="M389.655,412.6c14.185,10.158,15.234,31.728,3.278,43.9-3.2,3.258,1.81,8.274,5.013,5.013a37.176,37.176,0,0,0,5.151-44.556,35.591,35.591,0,0,0-9.865-10.483c-1.557-1.114-3.946-.272-4.849,1.272a3.622,3.622,0,0,0,1.272,4.85Z" transform="translate(-387.901 -405.97)" fill="#026cd1"/>
            </g>
          </g>
          <g id="Group_343" data-name="Group 343" transform="translate(22.969)">
            <g id="Group_342" data-name="Group 342">
              <path id="Path_611" data-name="Path 611" d="M398.082,405.245c15.111,10.778,19.769,31.458,12.888,48.142a39.128,39.128,0,0,1-8.266,12.391c-3.206,3.252,1.8,8.268,5.013,5.012,15.009-15.228,17.763-40.063,6.576-58.289a46.032,46.032,0,0,0-12.632-13.377c-1.56-1.113-3.946-.275-4.85,1.272a3.621,3.621,0,0,0,1.272,4.849Z" transform="translate(-396.329 -398.614)" fill="#026cd1"/>
            </g>
          </g>
        </g>
      </g>
      <g id="Group_802" data-name="Group 802" transform="translate(159.691 310.904)">
        <g id="Group_801" data-name="Group 801" transform="translate(0 0)">
          <g id="Group_798" data-name="Group 798" transform="translate(18.729)">
            <path id="Path_727" data-name="Path 727" d="M593.3,814.845s-27.615,27.739-28.961,38.85,13.639,28.456,13.639,28.456Z" transform="translate(-563.374 -753.872)" fill="#ed7d2b"/>
            <path id="Path_728" data-name="Path 728" d="M702.428,1786.229s1.005,15.659,4.036,15.877c.4.03,15.368,0,15.368,0l19.1-.152s-.135-4.6-5.721-5.564-14.941-4.865-18.34-12.238C713.3,1776.393,702.428,1786.229,702.428,1786.229Z" transform="translate(-658.779 -1421.084)" fill="#163560"/>
            <path id="Path_729" data-name="Path 729" d="M564.966,1786.528s1.005,15.659,4.036,15.877c.4.029,15.368,0,15.368,0l19.1-.152s-.135-4.6-5.721-5.564-14.941-4.865-18.34-12.238C575.836,1776.691,564.966,1786.528,564.966,1786.528Z" transform="translate(-563.866 -1421.29)" fill="#163560"/>
            <path id="Path_730" data-name="Path 730" d="M625.853,1200.445s-4.927,31.965-23.442,88.731-21,81.335-21,81.335l-20-.517s-.306-61.993,8.222-90.537,1.63-102.839,1.63-102.839Z" transform="translate(-561.413 -1003.663)" fill="#163560"/>
            <path id="Path_731" data-name="Path 731" d="M671.682,1181.823a775.547,775.547,0,0,1-7.391,107.295c-8.2,59.142-5.324,84.233-5.324,84.233l-19.953.707s-12.053-59.121-8.7-88.721-16.55-101.511-16.55-101.511Z" transform="translate(-597.56 -1007.257)" fill="#1c468a"/>
            <path id="Path_732" data-name="Path 732" d="M675.288,764.93l10.647,6.948,15.359-2.9c-.216-1.24-1.241-6.379-2.175-11.033-.056-.275-.113-.549-.166-.817-.8-3.96-1.49-7.362-1.49-7.362l-14.364-6.3-5.356-2.349c.014.083.424,4.4.481,5.025C679.252,757.324,675.288,764.93,675.288,764.93Z" transform="translate(-640.04 -702.966)" fill="#ffb27d"/>
            <path id="Path_733" data-name="Path 733" d="M693.827,795.7c-.3-.125-18.515-5.457-20.491-4.8s-3.138,4.487-3.138,4.487l29.791,6.667S697.634,797.288,693.827,795.7Z" transform="translate(-636.525 -737.297)" fill="#93c5f0"/>
            <path id="Path_734" data-name="Path 734" d="M587.26,927.724c3.116,14.07,54.476,15.628,67.686,2.821,1.5-1.459,1.562-8.236.974-17.372-1.149-17.848-4.775-44.693-4.944-58.411a108.633,108.633,0,0,0-2.233-19.549,158.812,158.812,0,0,0-6.565-23.391s-25.1-8.055-29.792-6.665C589.789,811.848,584.143,913.653,587.26,927.724Z" transform="translate(-578.714 -747.071)" fill="#93c5f0"/>
            <path id="Path_735" data-name="Path 735" d="M754.781,974.71c-1.15-17.849-4.775-44.693-4.944-58.412a108.645,108.645,0,0,0-2.233-19.549l-15.1-2.63S717.886,954.409,754.781,974.71Z" transform="translate(-677.574 -808.608)" fill="#66a9e7"/>
            <path id="Path_736" data-name="Path 736" d="M690.591,999.043c10.318-5.16,26.792-23.365,27.944-28.4,7.343,1.158,7.755,7.349,7.755,7.349-10.524,22.08-31.366,35.287-35.7,37.35A119.418,119.418,0,0,0,690.591,999.043Z" transform="translate(-650.606 -861.447)" fill="#163560"/>
            <path id="Path_737" data-name="Path 737" d="M766.871,1068.937a3.551,3.551,0,0,0,1.141,4.107c2.164,1.646,3.57,4.317,3.079,6.272s-5.222,5.154-6.864,4.643-4.992-3.077-4.635-4.109-2.268-9.042,1.729-12.136S766.871,1068.937,766.871,1068.937Z" transform="translate(-697.89 -927.698)" fill="#ffb27d"/>
            <path id="Path_738" data-name="Path 738" d="M725.4,817.871s15.239,2.12,26.537,19.23c11.507,17.427,19.506,30.085,17.359,36.318S747.5,901.294,744.109,901.3s-8.877-2.449-9.2-8c0,0,14.639-20.909,11.9-24.014-1.17-1.327-18.851-14.851-21.24-8.674C721.618,870.83,725.4,817.871,725.4,817.871Z" transform="translate(-673.513 -755.962)" fill="#93c5f0"/>
            <path id="Path_739" data-name="Path 739" d="M687.334,751.575c3.162,5.331,14.916,9.922,19.817,11.608-.056-.275-.113-.549-.166-.817-.8-3.96-1.49-7.362-1.49-7.362l-14.364-6.3C687.959,748.667,686.029,749.381,687.334,751.575Z" transform="translate(-648.072 -708.203)" fill="#fca56b"/>
            <path id="Path_740" data-name="Path 740" d="M692.362,681.394s-23.1,7.261-27.4-7.195-10.178-23.254,4.389-28.5,19.087-.588,21.7,3.888S698.26,679.132,692.362,681.394Z" transform="translate(-629.531 -635.477)" fill="#ffb27d"/>
            <path id="Path_741" data-name="Path 741" d="M667.752,630.581s-1.438,16.836-4.921,16.112-6.64-1.258-6.12,3.815,5.029,11.119-7.9,12.538c-10.7,1.174-23.673-27.408-20.738-32.653C636.544,615.261,680,612.116,667.752,630.581Z" transform="translate(-607.148 -617.864)" fill="#163560"/>
          </g>
          <path id="Path_742" data-name="Path 742" d="M682.978,836.737c5.778-9.842,15.786-13.413,22.527-12.576,7.4,2.465,8.747,7.061,8.747,7.061-10.844-3.771-28.33,13.563-30.627,27.389C680.3,855.1,682.978,836.737,682.978,836.737Z" transform="translate(-625.915 -760.223)" fill="#163560"/>
          <rect id="Rectangle_7355" data-name="Rectangle 7355" width="73.755" height="96.659" rx="23.437" transform="translate(0 64.256)" fill="#026cd1"/>
        </g>
      </g>
    </g>
  </g>
</svg>
