<svg xmlns="http://www.w3.org/2000/svg" width="200" height="100" viewBox="0 0 200 100">
  <g id="logo" transform="translate(-274 -2313)">
    <rect id="Rectangle_5" data-name="Rectangle 5" width="200" height="100" transform="translate(274 2313)" fill="#fff" opacity="0"/>
    <g id="Group_3" data-name="Group 3" transform="translate(-29.23 1852.84)">
      <path id="Path_312" data-name="Path 312" d="M348.714,496.919A33.486,33.486,0,1,0,382.2,530.4v0A33.5,33.5,0,0,0,348.714,496.919Zm7.07,4.675-2.762,9.633s-15.539,5.814-26.054,20.022c0,0,4.218-15.821,28.81-29.655Zm-4.234,15.337-2.037,6.993s-16.487,1.411-23.672,10.957C325.841,534.877,330.082,522.786,351.55,516.931Zm-26.173,21.443c0-8.93,22.849-10.68,22.849-10.68l-1.048,4.093.027-.065a2.14,2.14,0,0,1-2.088,1.58h-.051c-1.368.015-17.253.269-17.535,6.355-.01,2.686,5.68,6.518,5.68,6.518S325.377,543.092,325.377,538.374Zm9.407,8.148c-11.5-7.07-3.745-9.862-3.745-9.862C327.167,539.8,334.784,546.523,334.784,546.523Zm-1.753-10.516c-2.659,4.3,2.236,10.42,2.236,10.42-8.435-7.665-2.236-10.42-2.236-10.42Zm6.793,12.445a10.628,10.628,0,0,1-.376,3.184,4.478,4.478,0,0,1-1.836,2.345,6.136,6.136,0,0,1-3.484.877,5.281,5.281,0,0,1-3.917-1.378,5.556,5.556,0,0,1-1.378-4.05l3.287-.38a4.26,4.26,0,0,0,.428,2.035,1.856,1.856,0,0,0,1.7.9,1.892,1.892,0,0,0,1.628-.654,4.985,4.985,0,0,0,.474-2.66V537.881h3.473ZM360.1,554.6h-3.2l-.011-13.174L353.474,554.6h-3.341l-3.4-13.174-.009,13.174h-3.217V537.881h5.2l3.107,11.393,3.078-11.393h5.208Zm6.827,0h-3.474V537.881h3.474Z" transform="translate(0 -17.539)" fill="#005972"/>
      <path id="Path_313" data-name="Path 313" d="M577.015,526.883H610.04V516.206h-41.8A38.226,38.226,0,0,1,577.015,526.883Z" transform="translate(-194.987 -32.403)" fill="#004493"/>
      <path id="Path_314" data-name="Path 314" d="M624.754,623.093h28.47v-10.68H624.28a38.142,38.142,0,0,1,.653,6.99C624.935,620.648,624.871,621.877,624.754,623.093Z" transform="translate(-238.17 -106.545)" fill="#004493"/>
      <path id="Path_315" data-name="Path 315" d="M625.386,713.809v-10.68H594.5a38.029,38.029,0,0,1-6.342,10.68Z" transform="translate(-210.333 -176.456)" fill="#004493"/>
      <path id="Path_316" data-name="Path 316" d="M802.76,516.066H786.078c-.205,0-.405.023-.608.032h-.6v10.677h17.615a3.141,3.141,0,0,1,3.132,3.132v5.124a3.139,3.139,0,0,1-3.132,3.132H784.871v5l16.123,26.487h11.184s-12.5-20.769-12.484-20.776h3.065a13.772,13.772,0,0,0,13.756-13.761v-5.3A13.772,13.772,0,0,0,802.76,516.066Z" transform="translate(-361.93 -32.295)" fill="#004493"/>
      <path id="Path_317" data-name="Path 317" d="M936.086,548.88l-4.272-10.709h16a3.14,3.14,0,0,0,3.132-3.132v-5.124a3.141,3.141,0,0,0-3.132-3.132l-18.443.11-4-10.818h22.714a13.771,13.771,0,0,1,13.756,13.755v5.288a13.771,13.771,0,0,1-13.756,13.755Z" transform="translate(-470.209 -32.303)" fill="#004493"/>
      <path id="Path_318" data-name="Path 318" d="M888.456,474.16" transform="translate(-441.758)" fill="#004493"/>
    </g>
  </g>
</svg>
